<svg width="380" height="403" viewBox="0 0 380 403" fill="none" xmlns="http://www.w3.org/2000/svg">
<path d="M0.5 28C0.5 25.5147 2.51472 23.5 5 23.5H330C357.338 23.5 379.5 45.6619 379.5 73V353C379.5 380.338 357.338 402.5 330 402.5H50C22.6619 402.5 0.5 380.338 0.5 353V28Z" stroke="#E0E0E0"/>
<path d="M203.979 188.316C207.875 196.934 216.494 205.348 226.958 207.195C233.322 220.127 235.373 228.95 237.627 238.588C239.881 248.237 242.627 255.751 249.632 258.006C254.168 259.471 258.176 259.546 262.249 258.08C266.711 258.386 269.225 258.488 272.305 257.876C275.385 257.263 276.944 254.768 276.823 253.154C281.953 251.307 283.419 248.766 282.983 245.565C277.24 245.973 273.335 244.953 269.642 241.873C265.95 238.793 263.742 229.84 263.334 222.455C262.926 215.071 260.152 202.315 256.256 195.756C252.359 189.188 247.563 182.749 239.863 179.985C233.61 177.74 228.786 177.6 225.316 178.064C221.605 178.556 222.004 180.3 225.928 181.144C230.892 182.211 238.091 184.976 242.757 189.15C245.939 191.999 248.166 195.997 249.121 199.003C250.198 202.417 247.47 202.454 244.808 199.003C240.781 193.77 232.469 188 228.238 186.386C224.518 184.966 221.002 184.234 216.698 183.612C212.384 183 207.003 184.076 204.535 184.688C202.578 185.18 198.895 186.766 196.297 189.689C193.189 193.195 191.065 200.765 191.223 208.159C191.362 214.728 191.223 225.471 194.117 238.607C196.538 249.573 201.288 257.161 205.686 261.8C209.916 266.262 214.434 271.448 221.615 270.827C227.357 267.134 231.671 264.88 235.567 263.85C233.721 260.362 231.254 256.874 228.999 255.232C224.277 258.108 218.72 259.008 215.148 257.338C211.688 255.723 208.691 249.313 206.224 246.001C203.608 242.485 200.936 238.913 199.915 236.102C198.886 233.282 198.162 230.434 197.605 226.51C197.299 224.329 194.729 220.35 194.525 215.433C194.321 210.506 193.913 201.888 195.759 197.583C197.624 193.242 200.695 189.132 203.979 188.316Z" fill="#D44B4B"/>
<path d="M48.8459 286.199L112.357 286.403L137.285 361.511L78.1247 357.485L48.8459 286.199Z" fill="#D44B4B"/>
<path d="M312.447 366.827C312.419 366.827 312.382 366.827 312.355 366.827C311.742 366.771 311.288 366.233 311.343 365.621C311.436 364.526 311.538 363.218 311.649 361.734C312.132 355.369 312.855 345.749 314.479 335.739C316.91 320.784 316.845 312.416 315.954 303.761C315.221 296.645 313.644 290.513 311.278 285.522C311.019 284.965 311.251 284.306 311.807 284.037C312.364 283.768 313.022 284.009 313.292 284.566C315.769 289.789 317.411 296.172 318.171 303.529C319.247 313.965 318.849 322.788 316.678 336.091C315.063 346.009 314.34 355.564 313.867 361.891C313.755 363.385 313.653 364.702 313.561 365.806C313.505 366.391 313.022 366.827 312.447 366.827Z" fill="#475658"/>
<path d="M281.99 284.186C281.758 284.186 281.517 284.112 281.313 283.954C280.822 283.583 280.738 282.878 281.109 282.395C284.607 277.849 294.032 274.63 300.164 275.892C300.767 276.013 301.157 276.606 301.027 277.209C300.907 277.812 300.322 278.202 299.71 278.072C294.478 276.996 285.822 279.918 282.872 283.75C282.649 284.037 282.324 284.186 281.99 284.186Z" fill="#475658"/>
<path d="M277.278 289.678C276.749 289.372 276.062 289.548 275.756 290.086C273.233 294.446 269.847 304.66 267.379 312.119C266.284 315.431 265.338 318.298 264.828 319.513C264.067 321.331 263.659 323.539 263.251 325.664C262.787 328.113 262.314 330.655 261.386 331.731C259.67 333.735 260.699 335.581 261.377 336.806C261.748 337.474 262.1 338.114 262.1 338.708C262.1 339.515 261.469 340.183 260.838 340.489C260.616 340.591 259.846 340.906 259.298 340.47C257.443 338.986 254.678 339.422 250.856 340.034L249.548 340.238C245.058 340.934 228.582 342.511 223.173 341.88C217.616 341.231 215.798 340.906 214.666 340.6C213.293 340.229 211.243 340.739 210.241 341.917C206.697 341.379 202.457 340.739 201.743 340.674C201.158 340.619 200.203 340.702 199.646 341.723C199.015 341.686 198.329 341.639 197.605 341.602C194.433 341.407 190.49 341.175 187.688 340.897C184.552 340.582 179.32 339.014 175.498 337.873C174.125 337.464 172.928 337.103 172.056 336.871C171.425 336.704 170.841 336.555 170.275 336.407C171.592 336.036 173.067 335.637 174.524 335.238C179.088 333.986 183.393 332.798 184.571 332.343C188.031 331.008 189.877 329.365 190.054 327.454C190.184 326.072 191.909 323.066 193.941 321.897C196.464 320.45 197.169 319.393 197.587 317.945C197.698 317.574 197.763 317.157 197.847 316.684C198.032 315.561 198.273 314.169 199.117 312.796C200.027 311.312 206.335 298.936 210.937 289.891C213.163 285.522 214.916 282.08 215.445 281.069C216.772 278.545 218.507 275.576 220.195 275.02C220.78 274.825 221.095 274.194 220.9 273.61C220.705 273.025 220.075 272.71 219.49 272.905C217.078 273.712 215.176 276.801 213.479 280.029C212.94 281.059 211.178 284.51 208.951 288.88C204.619 297.378 198.078 310.217 197.216 311.628C196.139 313.372 195.861 315.069 195.648 316.313C195.583 316.721 195.518 317.083 195.444 317.333C195.23 318.066 195.054 318.697 192.837 319.968C190.221 321.461 188.041 325.052 187.836 327.25C187.753 328.206 186.269 329.301 183.773 330.265C182.697 330.683 178.04 331.963 173.93 333.086C170.154 334.125 166.582 335.108 165.284 335.544C164.606 335.498 163.92 335.488 163.168 335.516C162.417 335.544 161.508 335.618 160.534 335.711C160.515 335.702 160.506 335.692 160.487 335.683C160.228 335.6 159.921 335.572 156.183 335.359C153.863 335.229 151.229 335.08 150.273 334.969C149.262 334.848 148.483 335.006 147.833 335.294C147.648 335.052 147.379 334.885 147.045 334.858C143.714 334.589 142.415 336.11 141.905 337.483L141.627 337.502C139.113 337.659 137.582 337.761 136.2 339.431L116.681 280.735C116.532 280.28 116.105 279.974 115.632 279.974L51.0446 279.426H51.0353C50.423 279.426 49.9314 279.918 49.9221 280.53C49.9128 281.143 50.4138 281.644 51.0261 281.653L114.816 282.191L138.018 351.946C138.027 352.02 138.064 352.076 138.083 352.141L139.753 357.169C139.901 357.624 140.328 357.93 140.81 357.93H178.698C180.981 358.125 183.346 358.153 185.406 358.153C185.833 358.153 186.25 358.153 186.649 358.153H198.978C199.201 358.153 199.396 358.069 199.563 357.958C199.628 357.986 199.693 358.004 199.758 358.023L212.05 360.323C212.115 360.333 212.189 360.342 212.254 360.342C212.282 360.342 212.31 360.333 212.337 360.323C212.263 360.5 212.198 360.676 212.124 360.834C212.078 360.926 212.068 361.028 212.05 361.13H139.41L78.8483 356.408L49.1428 284.436C48.9109 283.87 48.2522 283.601 47.6863 283.833C47.1204 284.065 46.8513 284.714 47.0833 285.29L77.0485 357.893C77.2062 358.282 77.5773 358.542 77.9948 358.579L139.326 363.357H213.247C213.859 363.357 214.36 362.856 214.36 362.244C214.36 362.03 214.286 361.854 214.184 361.687C216.15 357.41 217.06 347.233 215.937 343.151C217.291 343.393 219.342 343.671 222.886 344.088C223.85 344.2 225.103 344.246 226.559 344.246C233.935 344.246 246.283 342.984 249.854 342.437L251.172 342.233C254.437 341.713 256.794 341.342 257.879 342.205C258.918 343.04 260.412 343.142 261.766 342.493C263.306 341.75 264.29 340.266 264.29 338.708C264.29 337.529 263.751 336.565 263.278 335.72C262.518 334.357 262.397 333.921 263.037 333.178C264.345 331.648 264.855 328.939 265.403 326.072C265.783 324.059 266.173 321.972 266.841 320.367C267.379 319.068 268.297 316.312 269.448 312.815C271.888 305.449 275.227 295.355 277.639 291.19C277.992 290.67 277.816 289.984 277.278 289.678ZM144.011 338.309C144.178 337.836 144.521 337.325 145.468 337.13C145.022 337.585 144.382 338.383 143.686 339.283C143.798 338.93 143.909 338.596 144.011 338.309ZM139.456 343.003L139.252 343.355C138.955 343.856 138.565 344.497 138.129 345.118L137.063 341.917C137.229 341.825 137.387 341.695 137.489 341.519C138.352 340.099 138.899 339.923 141.219 339.765C141.042 340.387 140.857 341.036 140.671 341.686C140.597 341.955 140.523 342.224 140.449 342.474C140.059 342.456 139.669 342.632 139.456 343.003ZM141.645 355.713L141.516 355.332C141.618 355.434 141.729 355.536 141.85 355.638C141.887 355.666 141.933 355.694 141.97 355.722H141.645V355.713ZM142.332 348.959C141.998 349.831 141.71 350.888 141.46 351.816C141.293 352.438 141.135 353.032 141.005 353.356C140.977 353.43 140.959 353.514 140.94 353.597L140.3 351.659C140.365 351.334 140.43 350.972 140.504 350.555C140.764 349.089 141.209 346.621 141.673 345.888C142.536 344.534 146.265 339.376 147.184 338.541L147.462 338.29C148.381 337.455 148.835 337.028 150.041 337.168C150.292 337.195 150.644 337.233 151.062 337.26C150.533 337.613 150.153 338.077 149.772 338.559C149.466 338.94 149.114 339.376 148.613 339.886C146.646 341.853 144.484 344.617 144.243 344.933C143.473 345.925 143.018 347.131 142.536 348.412L142.332 348.959ZM145.82 355.713C145.996 355.573 146.108 355.379 146.173 355.184C146.33 355.258 146.497 355.314 146.664 355.314C146.887 355.314 147.1 355.239 147.286 355.1C147.332 355.323 147.407 355.527 147.518 355.713H145.82ZM155.403 355.713C155.997 355.36 156.572 354.924 157.064 354.386C157.658 354.191 158.298 354.006 158.966 353.811C160.775 353.291 162.64 352.753 164.05 351.816C164.384 352.039 164.718 352.262 165.061 352.484C166.777 353.625 168.521 354.776 170.358 355.713H155.403ZM199.294 355.917C199.117 355.796 198.913 355.713 198.681 355.713H178.884C177.594 355.601 176.342 355.444 175.219 355.193C172.112 354.507 169.152 352.54 166.286 350.638C165.72 350.258 165.163 349.887 164.606 349.534C164.189 349.265 163.642 349.302 163.271 349.636C162.185 350.582 160.237 351.139 158.354 351.686C157.584 351.909 156.795 352.132 156.062 352.391C155.877 352.456 155.7 352.577 155.58 352.725C153.687 354.98 150.292 354.878 149.448 354.572C149.475 354.265 149.809 353.495 150.561 352.874L156.146 348.217C157.185 347.345 157.5 347.085 158.483 346.834C159.782 346.51 163.243 345.647 165.794 345.331C166.026 345.304 166.211 345.192 166.369 345.053C167.399 345.025 168.336 345.016 169.059 345.016C169.672 345.016 170.173 344.515 170.173 343.903C170.173 343.291 169.672 342.79 169.059 342.79C167.25 342.79 164.161 342.892 161.443 342.975C159.17 343.049 157.027 343.114 155.997 343.114C155.691 343.114 155.403 343.244 155.19 343.467C153.288 345.48 150.477 346.983 149.392 347.345C149.039 347.465 148.77 347.753 148.668 348.105C147.945 350.749 147.11 352.373 145.941 353.365C145.774 353.505 145.681 353.69 145.625 353.885C145.264 353.699 144.809 353.718 144.466 353.978C144.243 354.145 143.965 354.136 143.77 354.108C143.529 354.061 143.325 353.959 143.204 353.876C143.334 353.477 143.464 352.985 143.621 352.419C143.863 351.538 144.122 350.545 144.419 349.785L144.633 349.228C145.069 348.068 145.449 347.057 146.015 346.333C146.247 346.037 148.334 343.365 150.208 341.5C150.802 340.906 151.201 340.396 151.535 339.988C152.156 339.209 152.305 339.042 152.871 338.958L153.214 338.912C155.005 338.652 160.469 337.863 163.289 337.761C166.174 337.659 168.197 338.151 171.527 339.042C172.381 339.264 173.55 339.617 174.904 340.025C178.81 341.194 184.153 342.799 187.512 343.133C190.351 343.42 194.321 343.652 197.512 343.847C198.765 343.921 199.906 343.986 200.806 344.051C200.815 346.853 200.5 353.393 199.294 355.917ZM150.375 350.1C150.477 349.794 150.57 349.497 150.654 349.209C151.238 348.959 151.971 348.588 152.75 348.124L150.375 350.1ZM213.015 358.412C212.866 358.282 212.699 358.18 212.504 358.143L201.622 356.102C203.042 352.122 203.06 344.617 202.995 343.086C205.843 343.495 211.846 344.413 214.054 344.766C214.545 347.994 214.128 354.238 213.015 358.412Z" fill="#475658"/>
<path d="M217.895 339.83C217.394 339.83 216.939 339.496 216.818 338.986C216.586 338.049 216.327 336.964 215.965 335.442C215.557 333.744 215.019 331.49 214.239 328.28C213.785 326.434 213.191 324.56 212.616 322.751C211.308 318.65 209.944 314.401 210.315 310.301C210.946 303.371 212.05 293.621 213.08 288.973C213.21 288.37 213.803 287.999 214.406 288.129C215.009 288.258 215.38 288.852 215.251 289.455C214.239 294.001 213.154 303.631 212.532 310.496C212.198 314.142 213.432 317.992 214.731 322.064C215.325 323.911 215.928 325.822 216.401 327.751C217.18 330.97 217.718 333.225 218.126 334.923C218.488 336.435 218.748 337.511 218.98 338.448C219.128 339.042 218.767 339.645 218.173 339.802C218.071 339.821 217.978 339.83 217.895 339.83Z" fill="#475658"/>
<path d="M284.783 366.502C284.273 366.502 283.818 366.149 283.697 365.639C283.558 365.036 283.939 364.442 284.532 364.303C287.575 363.607 290.219 361.4 292.381 357.744C294.181 354.692 301.89 340.591 306.139 330.071C310.026 320.432 313.653 306.655 312.16 296.905C311.937 295.43 311.603 293.982 311.167 292.581C310.982 291.997 311.316 291.366 311.9 291.19C312.485 291.004 313.115 291.338 313.292 291.923C313.755 293.426 314.117 294.984 314.358 296.571C315.917 306.766 312.197 320.988 308.198 330.905C304.181 340.869 296.723 354.757 294.292 358.876C291.806 363.088 288.689 365.639 285.015 366.474C284.95 366.493 284.866 366.502 284.783 366.502Z" fill="#475658"/>
<path d="M276.099 366.873C272.5 366.873 267.75 366.521 263.13 366.177C258.556 365.834 254.242 365.519 251.042 365.519C243.62 365.519 218.08 363.691 216.373 363.543C215.761 363.487 215.306 362.949 215.362 362.337C215.417 361.724 215.974 361.288 216.568 361.325C218.219 361.474 243.861 363.292 251.042 363.292C254.326 363.292 258.686 363.617 263.297 363.96C268.761 364.368 274.411 364.786 277.983 364.609C278.549 364.582 279.114 365.055 279.152 365.667C279.179 366.279 278.706 366.799 278.094 366.836C277.482 366.855 276.814 366.873 276.099 366.873Z" fill="#475658"/>
<path d="M71.5935 354.952C71.575 354.952 71.5471 354.952 71.5286 354.952L55.3956 353.987C54.7833 353.95 54.3101 353.421 54.3473 352.809C54.3844 352.197 54.9132 351.733 55.5254 351.761L71.6585 352.725C72.2707 352.763 72.7439 353.291 72.7068 353.904C72.6697 354.497 72.178 354.952 71.5935 354.952Z" fill="#475658"/>
<path d="M335.993 370.779C335.974 370.779 335.946 370.779 335.928 370.779L289.802 368.014C289.19 367.977 288.716 367.448 288.754 366.836C288.791 366.224 289.329 365.76 289.932 365.788L336.058 368.552C336.67 368.589 337.143 369.118 337.106 369.73C337.06 370.324 336.577 370.779 335.993 370.779Z" fill="#475658"/>
<path d="M282.018 246.446C277.37 246.446 272.658 243.487 270.329 241.168C267.379 238.217 265.496 232.122 265.032 224.033C264.781 219.709 263.557 204.792 258.157 194.244C253.751 185.634 246.672 179.929 241.625 178.092C241.05 177.879 240.753 177.239 240.957 176.663C241.171 176.088 241.802 175.791 242.386 175.995C247.451 177.832 255.133 183.454 260.143 193.232C265.746 204.161 266.998 219.477 267.258 223.903C267.685 231.343 269.383 237.067 271.906 239.59C274.17 241.854 279.411 245.055 283.809 244.016C284.412 243.876 285.005 244.248 285.154 244.841C285.293 245.444 284.931 246.038 284.328 246.186C283.567 246.363 282.797 246.446 282.018 246.446Z" fill="#475658"/>
<path d="M243.769 230.489C243.258 230.489 242.804 230.137 242.683 229.627C242.349 228.161 242.015 226.649 241.672 225.099L241.375 223.754C238.898 212.622 233.703 199.04 226.532 194.336C226.021 194.002 225.873 193.306 226.216 192.796C226.55 192.286 227.246 192.138 227.756 192.481C237.479 198.864 242.303 217.668 243.546 223.272L243.843 224.617C244.186 226.166 244.52 227.678 244.854 229.135C244.993 229.738 244.613 230.332 244.019 230.471C243.936 230.48 243.852 230.489 243.769 230.489Z" fill="#475658"/>
<path d="M236.106 173.908C231.662 173.166 224.769 172.73 217.124 174.836C211.066 176.506 201.029 181.552 200.11 184.614C200.064 184.781 200.064 184.948 200.082 185.106C199.823 185.004 199.535 184.994 199.257 185.096C197.448 185.82 194.85 188.158 193.403 191.219C192.178 193.808 190.323 197.723 189.998 203.205C189.692 208.363 189.775 212.631 189.989 217.455C190.416 227.242 191.464 235.453 193.004 241.205C196.576 254.545 206.317 267.144 216.16 271.142C216.299 271.198 216.438 271.226 216.577 271.226C217.013 271.226 217.431 270.966 217.607 270.53C217.839 269.964 217.56 269.314 216.995 269.082C207.745 265.325 198.561 253.358 195.147 240.629C193.644 235.035 192.633 226.992 192.206 217.362C192.002 212.603 191.918 208.401 192.215 203.335C192.512 198.279 194.182 194.745 195.407 192.165C196.668 189.494 198.895 187.629 200.073 187.156C200.574 186.952 200.825 186.432 200.732 185.922C200.769 185.941 200.797 185.968 200.843 185.978C200.954 186.005 201.056 186.024 201.158 186.024C201.641 186.024 202.077 185.709 202.225 185.226C202.68 183.705 210.816 178.853 217.7 176.96C224.945 174.956 231.504 175.374 235.716 176.079C236.319 176.181 236.894 175.773 236.996 175.16C237.117 174.585 236.709 174.01 236.106 173.908Z" fill="#475658"/>
<path d="M206.79 213.614C206.558 213.614 206.317 213.54 206.113 213.382C205.621 213.011 205.528 212.315 205.899 211.824C208.608 208.261 213.961 205.942 218.34 206.434C218.952 206.499 219.388 207.055 219.323 207.668C219.258 208.28 218.693 208.716 218.09 208.651C214.499 208.252 209.907 210.237 207.671 213.178C207.458 213.466 207.124 213.614 206.79 213.614Z" fill="#475658"/>
<path d="M206.196 239.906C206.15 239.906 206.103 239.906 206.057 239.897C205.445 239.822 205.018 239.266 205.092 238.653C205.361 236.529 205.111 232.92 204.257 230.786C204.025 230.211 204.303 229.571 204.879 229.339C205.445 229.107 206.094 229.385 206.326 229.961C207.365 232.549 207.606 236.52 207.3 238.932C207.235 239.498 206.753 239.906 206.196 239.906Z" fill="#475658"/>
<path d="M213.126 223.995C214.33 223.995 215.306 223.019 215.306 221.815C215.306 220.611 214.33 219.635 213.126 219.635C211.922 219.635 210.946 220.611 210.946 221.815C210.946 223.019 211.922 223.995 213.126 223.995Z" fill="#475658"/>
<path d="M234.139 249.702C233.693 249.276 232.988 249.285 232.562 249.73C228.665 253.775 225.891 255.306 222.672 256.475C219.722 257.551 216.429 257.18 214.286 255.538C212.523 254.183 211.178 251.808 210.092 249.897L209.777 249.341C209.666 249.137 209.517 248.905 209.378 248.682C212.356 247.671 217.106 245.147 218.887 242.466C219.23 241.956 219.091 241.26 218.581 240.926C218.071 240.583 217.375 240.722 217.041 241.232C215.51 243.524 210.64 246.019 208.144 246.743C206.706 244.581 204.906 242.049 203.737 240.435C201.706 237.614 200.648 235.75 200.156 232.725C200.036 231.983 199.906 231.25 199.767 230.536C199.878 230.554 199.999 230.573 200.119 230.573C201.195 230.573 202.077 229.701 202.077 228.615C202.077 227.539 201.205 226.658 200.119 226.658C199.711 226.658 199.331 226.788 199.015 227.001C198.774 225.962 198.542 225.118 198.375 224.608C198.097 223.782 197.735 222.808 197.364 221.806C197.16 221.268 196.956 220.721 196.761 220.183C197.41 219.83 197.856 219.802 198.839 220.053C199.433 220.201 200.036 219.839 200.184 219.246C200.333 218.652 199.971 218.049 199.377 217.891C198.171 217.594 197.206 217.52 196.037 218.058C195.499 216.203 195.286 211.666 195.36 208.271C195.434 204.884 196.204 199.745 197.531 196.489C198.876 193.205 200.936 190.681 202.652 190.227C203.246 190.069 203.598 189.457 203.441 188.863C203.283 188.269 202.671 187.917 202.077 188.074C199.173 188.854 196.761 192.49 195.472 195.644C193.969 199.318 193.208 204.736 193.134 208.224C193.059 211.824 193.273 216.666 193.931 218.8C194.284 219.941 194.785 221.287 195.267 222.585C195.629 223.559 195.982 224.506 196.251 225.313C196.65 226.5 197.41 229.812 197.939 233.087C198.552 236.863 200.036 239.145 201.91 241.743C203.589 244.062 206.586 248.283 207.829 250.454L208.144 251.001C209.322 253.089 210.797 255.686 212.922 257.31C214.638 258.627 216.902 259.314 219.249 259.314C220.64 259.314 222.069 259.072 223.424 258.581C226.838 257.338 229.973 255.621 234.157 251.289C234.593 250.834 234.575 250.129 234.139 249.702Z" fill="#475658"/>
<path d="M310.36 279.055C309.275 276.152 306.083 272.673 303.467 270.372C300.944 268.164 284.282 256.493 278.827 253.172C280.042 252.606 281.258 251.818 282.464 250.723C282.918 250.305 282.955 249.61 282.538 249.146C282.12 248.691 281.415 248.654 280.961 249.072C274.374 255.046 267.268 250.677 261.534 247.142C255.857 243.654 250.55 233.226 248.027 225.016C247.851 224.431 247.229 224.097 246.635 224.283C246.051 224.459 245.717 225.09 245.902 225.675C248.639 234.562 254.168 245.231 260.393 249.062C264.197 251.4 268.891 254.295 273.817 254.295C274.587 254.295 275.367 254.22 276.137 254.063C276.239 254.211 276.369 254.341 276.536 254.434C279.634 255.983 299.413 269.806 301.983 272.06C304.284 274.074 307.317 277.33 308.254 279.844C308.421 280.289 308.848 280.568 309.293 280.568C309.423 280.568 309.553 280.549 309.683 280.493C310.286 280.271 310.574 279.631 310.36 279.055Z" fill="#475658"/>
<path d="M274.968 255.371C274.402 255.612 274.133 256.261 274.374 256.827C275.914 260.473 274.04 271.856 272.379 276.105L263.019 278.814C262.546 278.953 262.221 279.38 262.212 279.872C262.202 280.363 262.527 280.799 262.991 280.948L269.327 282.943C264.818 290.448 259.493 297.86 255.18 303.881C253.352 306.432 251.766 308.64 250.55 310.431C246.144 316.925 240.893 330.21 238.759 338.55C238.601 339.144 238.963 339.756 239.557 339.904C239.65 339.932 239.742 339.941 239.835 339.941C240.336 339.941 240.781 339.607 240.911 339.106C242.961 331.119 248.175 317.899 252.387 311.692C253.584 309.93 255.161 307.731 256.979 305.189C261.553 298.806 267.249 290.874 271.962 282.878C272.138 282.581 272.166 282.228 272.045 281.913C271.925 281.597 271.665 281.356 271.34 281.254L267.184 279.946L273.511 278.118C273.827 278.026 274.086 277.803 274.216 277.497C276.072 273.322 278.307 260.455 276.424 255.983C276.192 255.399 275.543 255.139 274.968 255.371Z" fill="#475658"/>
<path d="M274.42 257.44C274.226 256.855 273.585 256.549 273.01 256.744C264.67 259.601 256.228 253.321 252.545 249.164C249.641 245.88 248.324 242.438 246.765 236.854C246.598 236.26 245.986 235.917 245.392 236.084C244.798 236.251 244.455 236.863 244.622 237.457C246.264 243.375 247.684 247.031 250.875 250.649C252.981 253.033 256.525 256.029 260.783 257.903C256.089 259.156 249.873 258.692 245.466 254.721C241.561 251.215 240.021 244.925 237.887 236.223C237.071 232.892 236.143 229.107 234.965 225.007C233.091 218.494 230.966 213.123 228.294 208.122C229.63 208.28 230.994 208.363 232.404 208.363C233.016 208.363 233.517 207.862 233.517 207.25C233.517 206.638 233.016 206.137 232.404 206.137C228.341 206.137 224.667 205.441 221.179 204.022C215.297 201.619 210.436 197.147 206.716 190.746C206.409 190.217 205.723 190.032 205.194 190.338C204.665 190.644 204.48 191.331 204.786 191.859C208.757 198.697 213.989 203.474 220.325 206.072C222.255 206.86 224.231 207.436 226.281 207.816C226.059 208.15 226.012 208.586 226.216 208.957C228.869 213.874 230.966 219.171 232.822 225.619C233.99 229.673 234.909 233.43 235.725 236.742C237.952 245.834 239.566 252.402 243.982 256.363C247.461 259.49 251.895 260.724 256.052 260.724C258.825 260.724 261.488 260.176 263.65 259.267C263.789 259.212 263.909 259.128 264.002 259.026C264.605 259.193 265.217 259.332 265.839 259.434C265.459 259.546 265.152 259.852 265.06 260.26C264.382 263.637 263.353 267.208 262.175 270.307C260.755 274.027 257.573 280.234 254.103 286.737C253.955 286.765 253.816 286.82 253.686 286.913C241.347 295.587 233.87 298.946 230.14 297.461C228.461 296.793 227.385 295.068 226.773 292.053C226.717 291.802 226.578 291.598 226.392 291.44C228.628 283.332 232.005 273.452 235.605 268.229C235.614 268.294 235.633 268.368 235.642 268.433C235.716 268.832 235.79 269.231 235.874 269.658C235.976 270.186 236.449 270.548 236.968 270.548C237.043 270.548 237.117 270.539 237.191 270.53C237.794 270.409 238.184 269.825 238.063 269.222C237.98 268.813 237.915 268.424 237.841 268.034C237.516 266.262 237.21 264.592 236.152 262.598C234.955 260.353 232.58 256.345 230.076 254.675C229.565 254.332 228.869 254.471 228.535 254.981C228.192 255.491 228.331 256.187 228.842 256.521C230.28 257.477 232.079 259.824 233.833 262.997C233.48 263.154 233.081 263.331 232.617 263.535C224.528 267.144 221.754 268.693 221.216 269.917C220.965 270.483 221.207 271.17 221.763 271.42C221.921 271.485 222.079 271.522 222.236 271.522C222.654 271.522 223.034 271.29 223.22 270.882C223.637 270.298 226.021 269.064 228.461 267.895C225.799 270.316 222.784 274.38 220.91 277.283C220.715 277.58 220.678 277.951 220.808 278.285C220.938 278.619 221.216 278.87 221.55 278.963L223.452 279.482L219.62 281.273C219.314 281.412 219.091 281.69 219.008 282.015C216.253 293.24 215.464 305.273 215.909 312.203C216.429 320.348 217.551 327.955 218.915 332.538C219.064 333.021 219.5 333.336 219.982 333.336C220.084 333.336 220.195 333.318 220.297 333.29C220.882 333.113 221.225 332.492 221.049 331.907C219.731 327.473 218.637 320.06 218.127 312.073C217.7 305.412 218.451 293.927 221.049 283.072L227.153 280.224C227.58 280.03 227.83 279.584 227.793 279.12C227.756 278.656 227.432 278.267 226.977 278.137L223.637 277.228C225.66 274.25 228.35 270.864 230.474 269.092C230.948 268.702 231.012 267.997 230.614 267.524C230.456 267.329 230.243 267.227 230.02 267.171C231.449 266.513 232.757 265.928 233.536 265.576C234.018 265.362 234.445 265.167 234.816 265.001C234.946 265.353 235.057 265.696 235.159 266.04C234.779 265.993 234.38 266.132 234.13 266.476C227.933 274.964 222.821 295.42 221.754 301.515C220.529 308.501 221.318 319.764 221.735 325.822C221.875 327.835 221.995 329.532 222.106 331.008C222.375 334.718 222.533 336.963 222.617 339.06C222.635 339.663 223.136 340.136 223.73 340.136C223.748 340.136 223.758 340.136 223.767 340.136C224.379 340.118 224.862 339.598 224.843 338.986C224.76 336.843 224.602 334.589 224.333 330.85C224.231 329.375 224.101 327.677 223.962 325.664C223.544 319.708 222.774 308.612 223.943 301.896C224.231 300.272 224.732 297.944 225.409 295.226C226.281 297.406 227.571 298.825 229.333 299.521C230.15 299.846 231.068 300.013 232.098 300.013C236.393 300.013 242.637 297.099 251.905 290.847C251.181 292.192 250.448 293.537 249.734 294.854C247.09 299.725 244.604 304.317 242.971 307.573C238.341 316.823 235.15 330.126 234.139 338.559C234.065 339.171 234.501 339.719 235.113 339.793C235.159 339.802 235.206 339.802 235.243 339.802C235.8 339.802 236.282 339.385 236.347 338.819C237.34 330.562 240.457 317.574 244.965 308.566C246.57 305.347 249.057 300.764 251.691 295.912C256.627 286.811 262.212 276.504 264.271 271.086C265.486 267.876 266.553 264.184 267.258 260.687C267.351 260.223 267.138 259.777 266.767 259.536C267.398 259.61 268.038 259.657 268.687 259.657C270.348 259.657 272.045 259.406 273.743 258.822C274.309 258.655 274.615 258.024 274.42 257.44Z" fill="#475658"/>
<rect x="75.5" y="49.5" width="202" height="67" rx="33.5" fill="white" stroke="#E0E0E0"/>
<path d="M104.7 66.907C105.078 66.571 105.517 66.3143 106.016 66.137C106.515 65.9597 107.082 65.871 107.717 65.871C108.235 65.871 108.699 65.934 109.11 66.06C109.525 66.186 109.878 66.3633 110.167 66.592C110.456 66.8207 110.678 67.0913 110.832 67.404C110.991 67.7167 111.07 68.0597 111.07 68.433C111.07 68.937 110.944 69.3803 110.692 69.763C110.445 70.1457 110.095 70.442 109.642 70.652C109.899 70.7593 110.132 70.8923 110.342 71.051C110.552 71.205 110.732 71.38 110.881 71.576C111.035 71.772 111.152 71.9867 111.231 72.22C111.315 72.4533 111.357 72.6983 111.357 72.955C111.357 73.3937 111.275 73.8043 111.112 74.187C110.949 74.5697 110.711 74.9033 110.398 75.188C110.09 75.468 109.71 75.6897 109.257 75.853C108.804 76.0163 108.289 76.098 107.71 76.098C106.991 76.098 106.345 75.9813 105.771 75.748C105.197 75.51 104.705 75.1903 104.294 74.789L104.686 74.145C104.723 74.0937 104.77 74.0517 104.826 74.019C104.882 73.9817 104.943 73.963 105.008 73.963C105.106 73.963 105.223 74.0167 105.358 74.124C105.493 74.2267 105.666 74.341 105.876 74.467C106.086 74.593 106.34 74.7097 106.639 74.817C106.942 74.9197 107.311 74.971 107.745 74.971C108.114 74.971 108.443 74.9267 108.732 74.838C109.026 74.7493 109.271 74.621 109.467 74.453C109.668 74.285 109.819 74.0797 109.922 73.837C110.029 73.5943 110.083 73.3213 110.083 73.018C110.083 72.7567 110.032 72.5163 109.929 72.297C109.831 72.0777 109.686 71.891 109.495 71.737C109.304 71.5783 109.07 71.457 108.795 71.373C108.52 71.2843 108.209 71.24 107.864 71.24H106.492V70.127H107.808C108.093 70.127 108.356 70.092 108.599 70.022C108.846 69.952 109.056 69.8493 109.229 69.714C109.406 69.5787 109.544 69.413 109.642 69.217C109.745 69.021 109.796 68.797 109.796 68.545C109.796 68.3163 109.749 68.1063 109.656 67.915C109.563 67.7237 109.427 67.5603 109.25 67.425C109.073 67.285 108.856 67.1777 108.599 67.103C108.342 67.0283 108.051 66.991 107.724 66.991C107.346 66.991 107.024 67.0307 106.758 67.11C106.492 67.1893 106.268 67.278 106.086 67.376C105.904 67.4693 105.755 67.5557 105.638 67.635C105.526 67.7143 105.428 67.754 105.344 67.754C105.269 67.754 105.209 67.7377 105.162 67.705C105.115 67.6723 105.071 67.6187 105.029 67.544L104.7 66.907ZM116.773 72.808C116.199 72.8267 115.709 72.8733 115.303 72.948C114.902 73.018 114.573 73.1113 114.316 73.228C114.064 73.3447 113.88 73.4823 113.763 73.641C113.651 73.7997 113.595 73.977 113.595 74.173C113.595 74.3597 113.626 74.5207 113.686 74.656C113.747 74.7913 113.829 74.9033 113.931 74.992C114.039 75.076 114.162 75.139 114.302 75.181C114.447 75.2183 114.601 75.237 114.764 75.237C114.984 75.237 115.184 75.216 115.366 75.174C115.548 75.1273 115.719 75.062 115.877 74.978C116.041 74.894 116.195 74.7937 116.339 74.677C116.489 74.5603 116.633 74.4273 116.773 74.278V72.808ZM112.748 69.91C113.14 69.532 113.563 69.2497 114.015 69.063C114.468 68.8763 114.97 68.783 115.52 68.783C115.917 68.783 116.269 68.8483 116.577 68.979C116.885 69.1097 117.144 69.2917 117.354 69.525C117.564 69.7583 117.723 70.0407 117.83 70.372C117.938 70.7033 117.991 71.0673 117.991 71.464V76H117.438C117.317 76 117.224 75.9813 117.158 75.944C117.093 75.902 117.042 75.8227 117.004 75.706L116.864 75.034C116.678 75.2067 116.496 75.3607 116.318 75.496C116.141 75.6267 115.954 75.7387 115.758 75.832C115.562 75.9207 115.352 75.9883 115.128 76.035C114.909 76.0863 114.664 76.112 114.393 76.112C114.118 76.112 113.859 76.0747 113.616 76C113.374 75.9207 113.161 75.804 112.979 75.65C112.802 75.496 112.66 75.3023 112.552 75.069C112.45 74.831 112.398 74.551 112.398 74.229C112.398 73.949 112.475 73.6807 112.629 73.424C112.783 73.1627 113.033 72.9317 113.378 72.731C113.724 72.5303 114.174 72.367 114.729 72.241C115.285 72.1103 115.966 72.0357 116.773 72.017V71.464C116.773 70.9133 116.654 70.498 116.416 70.218C116.178 69.9333 115.831 69.791 115.373 69.791C115.065 69.791 114.806 69.8307 114.596 69.91C114.391 69.9847 114.211 70.071 114.057 70.169C113.908 70.2623 113.777 70.3487 113.665 70.428C113.558 70.5027 113.451 70.54 113.343 70.54C113.259 70.54 113.187 70.519 113.126 70.477C113.066 70.4303 113.014 70.3743 112.972 70.309L112.748 69.91ZM125.972 68.909V76H124.726V71.184C124.726 71.0907 124.731 70.9903 124.74 70.883C124.75 70.7757 124.761 70.6683 124.775 70.561C124.733 70.6543 124.691 70.7407 124.649 70.82C124.607 70.8993 124.563 70.9717 124.516 71.037L121.093 75.692C121.042 75.7667 120.977 75.839 120.897 75.909C120.823 75.9743 120.739 76.007 120.645 76.007H119.889V68.916H121.142V73.732C121.142 73.8207 121.138 73.9187 121.128 74.026C121.119 74.1287 121.107 74.2337 121.093 74.341C121.135 74.2523 121.177 74.1707 121.219 74.096C121.261 74.0167 121.303 73.9443 121.345 73.879L124.768 69.224C124.82 69.1493 124.885 69.0793 124.964 69.014C125.044 68.944 125.13 68.909 125.223 68.909H125.972ZM123.011 67.194C123.203 67.194 123.364 67.173 123.494 67.131C123.625 67.0843 123.73 67.012 123.809 66.914C123.893 66.816 123.954 66.69 123.991 66.536C124.029 66.382 124.047 66.193 124.047 65.969H124.775C124.864 65.969 124.932 66.0087 124.978 66.088C125.025 66.1673 125.048 66.2537 125.048 66.347C125.048 66.5803 125.002 66.7903 124.908 66.977C124.815 67.1637 124.68 67.3247 124.502 67.46C124.33 67.5907 124.117 67.691 123.865 67.761C123.613 67.831 123.329 67.866 123.011 67.866C122.694 67.866 122.409 67.831 122.157 67.761C121.905 67.691 121.691 67.5907 121.513 67.46C121.341 67.3247 121.208 67.1637 121.114 66.977C121.021 66.7903 120.974 66.5803 120.974 66.347C120.974 66.2537 120.998 66.1673 121.044 66.088C121.091 66.0087 121.159 65.969 121.247 65.969H121.975C121.975 66.193 121.994 66.382 122.031 66.536C122.069 66.69 122.127 66.816 122.206 66.914C122.29 67.012 122.398 67.0843 122.528 67.131C122.659 67.173 122.82 67.194 123.011 67.194ZM132.828 75.09V69.889H130.581C130.534 70.617 130.469 71.261 130.385 71.821C130.301 72.381 130.203 72.8733 130.091 73.298C129.984 73.718 129.862 74.075 129.727 74.369C129.596 74.663 129.459 74.9033 129.314 75.09H132.828ZM135.334 75.055V78.058C135.334 78.1793 135.299 78.2727 135.229 78.338C135.164 78.408 135.077 78.443 134.97 78.443H134.207V76H128.243V78.086C128.243 78.1747 128.215 78.2563 128.159 78.331C128.108 78.4057 128.021 78.443 127.9 78.443H127.116V75.09H127.347C127.51 75.09 127.671 75.062 127.83 75.006C127.993 74.95 128.15 74.845 128.299 74.691C128.448 74.5323 128.588 74.3107 128.719 74.026C128.854 73.7413 128.976 73.3703 129.083 72.913C129.19 72.4557 129.284 71.9003 129.363 71.247C129.442 70.589 129.505 69.8097 129.552 68.909H134.039V75.055H135.334ZM142.386 68.909L138.431 78.093C138.389 78.1863 138.336 78.261 138.27 78.317C138.21 78.373 138.114 78.401 137.983 78.401H137.059L138.354 75.587L135.428 68.909H136.506C136.614 68.909 136.698 68.937 136.758 68.993C136.824 69.0443 136.868 69.1027 136.891 69.168L138.788 73.634C138.863 73.83 138.926 74.0353 138.977 74.25C139.043 74.0307 139.113 73.823 139.187 73.627L141.028 69.168C141.056 69.0933 141.103 69.0327 141.168 68.986C141.238 68.9347 141.315 68.909 141.399 68.909H142.386ZM152.977 68.909V76H151.724V72.682H148.322V76H147.069V68.909H148.322V71.737H151.724V68.909H152.977ZM158.801 72.808C158.227 72.8267 157.737 72.8733 157.331 72.948C156.929 73.018 156.6 73.1113 156.344 73.228C156.092 73.3447 155.907 73.4823 155.791 73.641C155.679 73.7997 155.623 73.977 155.623 74.173C155.623 74.3597 155.653 74.5207 155.714 74.656C155.774 74.7913 155.856 74.9033 155.959 74.992C156.066 75.076 156.19 75.139 156.33 75.181C156.474 75.2183 156.628 75.237 156.792 75.237C157.011 75.237 157.212 75.216 157.394 75.174C157.576 75.1273 157.746 75.062 157.905 74.978C158.068 74.894 158.222 74.7937 158.367 74.677C158.516 74.5603 158.661 74.4273 158.801 74.278V72.808ZM154.776 69.91C155.168 69.532 155.59 69.2497 156.043 69.063C156.495 68.8763 156.997 68.783 157.548 68.783C157.944 68.783 158.297 68.8483 158.605 68.979C158.913 69.1097 159.172 69.2917 159.382 69.525C159.592 69.7583 159.75 70.0407 159.858 70.372C159.965 70.7033 160.019 71.0673 160.019 71.464V76H159.466C159.344 76 159.251 75.9813 159.186 75.944C159.12 75.902 159.069 75.8227 159.032 75.706L158.892 75.034C158.705 75.2067 158.523 75.3607 158.346 75.496C158.168 75.6267 157.982 75.7387 157.786 75.832C157.59 75.9207 157.38 75.9883 157.156 76.035C156.936 76.0863 156.691 76.112 156.421 76.112C156.145 76.112 155.886 76.0747 155.644 76C155.401 75.9207 155.189 75.804 155.007 75.65C154.829 75.496 154.687 75.3023 154.58 75.069C154.477 74.831 154.426 74.551 154.426 74.229C154.426 73.949 154.503 73.6807 154.657 73.424C154.811 73.1627 155.06 72.9317 155.406 72.731C155.751 72.5303 156.201 72.367 156.757 72.241C157.312 72.1103 157.993 72.0357 158.801 72.017V71.464C158.801 70.9133 158.682 70.498 158.444 70.218C158.206 69.9333 157.858 69.791 157.401 69.791C157.093 69.791 156.834 69.8307 156.624 69.91C156.418 69.9847 156.239 70.071 156.085 70.169C155.935 70.2623 155.805 70.3487 155.693 70.428C155.585 70.5027 155.478 70.54 155.371 70.54C155.287 70.54 155.214 70.519 155.154 70.477C155.093 70.4303 155.042 70.3743 155 70.309L154.776 69.91ZM174.991 68.909L172.695 76H171.708C171.586 76 171.502 75.9207 171.456 75.762L169.888 70.953C169.85 70.8457 169.82 70.7383 169.797 70.631C169.773 70.519 169.75 70.4093 169.727 70.302C169.703 70.4093 169.68 70.519 169.657 70.631C169.633 70.7383 169.603 70.848 169.566 70.96L167.97 75.762C167.928 75.9207 167.834 76 167.69 76H166.752L164.456 68.909H165.436C165.534 68.909 165.615 68.9347 165.681 68.986C165.751 69.0373 165.797 69.098 165.821 69.168L167.179 73.732C167.258 74.068 167.321 74.3853 167.368 74.684C167.41 74.53 167.452 74.3737 167.494 74.215C167.54 74.0563 167.589 73.8953 167.641 73.732L169.139 69.14C169.162 69.07 169.202 69.0117 169.258 68.965C169.318 68.9183 169.391 68.895 169.475 68.895H170.021C170.114 68.895 170.191 68.9183 170.252 68.965C170.312 69.0117 170.354 69.07 170.378 69.14L171.841 73.732C171.892 73.8953 171.939 74.0563 171.981 74.215C172.023 74.3737 172.062 74.53 172.1 74.684C172.123 74.53 172.151 74.376 172.184 74.222C172.221 74.0633 172.261 73.9 172.303 73.732L173.689 69.168C173.712 69.0933 173.756 69.0327 173.822 68.986C173.887 68.9347 173.964 68.909 174.053 68.909H174.991ZM185.983 68.909L183.687 76H182.7C182.578 76 182.494 75.9207 182.448 75.762L180.88 70.953C180.842 70.8457 180.812 70.7383 180.789 70.631C180.765 70.519 180.742 70.4093 180.719 70.302C180.695 70.4093 180.672 70.519 180.649 70.631C180.625 70.7383 180.595 70.848 180.558 70.96L178.962 75.762C178.92 75.9207 178.826 76 178.682 76H177.744L175.448 68.909H176.428C176.526 68.909 176.607 68.9347 176.673 68.986C176.743 69.0373 176.789 69.098 176.813 69.168L178.171 73.732C178.25 74.068 178.313 74.3853 178.36 74.684C178.402 74.53 178.444 74.3737 178.486 74.215C178.532 74.0563 178.581 73.8953 178.633 73.732L180.131 69.14C180.154 69.07 180.194 69.0117 180.25 68.965C180.31 68.9183 180.383 68.895 180.467 68.895H181.013C181.106 68.895 181.183 68.9183 181.244 68.965C181.304 69.0117 181.346 69.07 181.37 69.14L182.833 73.732C182.884 73.8953 182.931 74.0563 182.973 74.215C183.015 74.3737 183.054 74.53 183.092 74.684C183.115 74.53 183.143 74.376 183.176 74.222C183.213 74.0633 183.253 73.9 183.295 73.732L184.681 69.168C184.704 69.0933 184.748 69.0327 184.814 68.986C184.879 68.9347 184.956 68.909 185.045 68.909H185.983ZM196.975 68.909L194.679 76H193.692C193.571 76 193.487 75.9207 193.44 75.762L191.872 70.953C191.835 70.8457 191.804 70.7383 191.781 70.631C191.758 70.519 191.734 70.4093 191.711 70.302C191.688 70.4093 191.664 70.519 191.641 70.631C191.618 70.7383 191.587 70.848 191.55 70.96L189.954 75.762C189.912 75.9207 189.819 76 189.674 76H188.736L186.44 68.909H187.42C187.518 68.909 187.6 68.9347 187.665 68.986C187.735 69.0373 187.782 69.098 187.805 69.168L189.163 73.732C189.242 74.068 189.305 74.3853 189.352 74.684C189.394 74.53 189.436 74.3737 189.478 74.215C189.525 74.0563 189.574 73.8953 189.625 73.732L191.123 69.14C191.146 69.07 191.186 69.0117 191.242 68.965C191.303 68.9183 191.375 68.895 191.459 68.895H192.005C192.098 68.895 192.175 68.9183 192.236 68.965C192.297 69.0117 192.339 69.07 192.362 69.14L193.825 73.732C193.876 73.8953 193.923 74.0563 193.965 74.215C194.007 74.3737 194.047 74.53 194.084 74.684C194.107 74.53 194.135 74.376 194.168 74.222C194.205 74.0633 194.245 73.9 194.287 73.732L195.673 69.168C195.696 69.0933 195.741 69.0327 195.806 68.986C195.871 68.9347 195.948 68.909 196.037 68.909H196.975ZM197.677 75.23C197.677 75.1087 197.698 74.9943 197.74 74.887C197.787 74.7797 197.848 74.6863 197.922 74.607C198.002 74.5277 198.095 74.4647 198.202 74.418C198.31 74.3713 198.424 74.348 198.545 74.348C198.667 74.348 198.781 74.3713 198.888 74.418C198.996 74.4647 199.089 74.5277 199.168 74.607C199.248 74.6863 199.311 74.7797 199.357 74.887C199.404 74.9943 199.427 75.1087 199.427 75.23C199.427 75.356 199.404 75.4727 199.357 75.58C199.311 75.6827 199.248 75.7737 199.168 75.853C199.089 75.9323 198.996 75.993 198.888 76.035C198.781 76.0817 198.667 76.105 198.545 76.105C198.424 76.105 198.31 76.0817 198.202 76.035C198.095 75.993 198.002 75.9323 197.922 75.853C197.848 75.7737 197.787 75.6827 197.74 75.58C197.698 75.4727 197.677 75.356 197.677 75.23ZM206.131 70.169C206.094 70.2203 206.056 70.26 206.019 70.288C205.982 70.316 205.93 70.33 205.865 70.33C205.795 70.33 205.718 70.302 205.634 70.246C205.55 70.1853 205.445 70.12 205.319 70.05C205.198 69.98 205.046 69.917 204.864 69.861C204.687 69.8003 204.467 69.77 204.206 69.77C203.856 69.77 203.548 69.833 203.282 69.959C203.016 70.0803 202.792 70.2577 202.61 70.491C202.433 70.7243 202.297 71.0067 202.204 71.338C202.115 71.6693 202.071 72.0403 202.071 72.451C202.071 72.8803 202.12 73.263 202.218 73.599C202.316 73.9303 202.454 74.2103 202.631 74.439C202.813 74.663 203.03 74.8357 203.282 74.957C203.539 75.0737 203.826 75.132 204.143 75.132C204.446 75.132 204.696 75.097 204.892 75.027C205.088 74.9523 205.249 74.8707 205.375 74.782C205.506 74.6933 205.613 74.614 205.697 74.544C205.786 74.4693 205.872 74.432 205.956 74.432C206.059 74.432 206.138 74.4717 206.194 74.551L206.544 75.006C206.39 75.1973 206.215 75.3607 206.019 75.496C205.823 75.6313 205.611 75.7457 205.382 75.839C205.158 75.9277 204.922 75.993 204.675 76.035C204.428 76.077 204.176 76.098 203.919 76.098C203.476 76.098 203.063 76.0163 202.68 75.853C202.302 75.6897 201.973 75.454 201.693 75.146C201.413 74.8333 201.194 74.4507 201.035 73.998C200.876 73.5453 200.797 73.0297 200.797 72.451C200.797 71.9237 200.869 71.436 201.014 70.988C201.163 70.54 201.378 70.155 201.658 69.833C201.943 69.5063 202.29 69.252 202.701 69.07C203.116 68.888 203.592 68.797 204.129 68.797C204.628 68.797 205.067 68.8787 205.445 69.042C205.828 69.2007 206.166 69.427 206.46 69.721L206.131 70.169ZM212.693 70.169C212.656 70.2203 212.619 70.26 212.581 70.288C212.544 70.316 212.493 70.33 212.427 70.33C212.357 70.33 212.28 70.302 212.196 70.246C212.112 70.1853 212.007 70.12 211.881 70.05C211.76 69.98 211.608 69.917 211.426 69.861C211.249 69.8003 211.03 69.77 210.768 69.77C210.418 69.77 210.11 69.833 209.844 69.959C209.578 70.0803 209.354 70.2577 209.172 70.491C208.995 70.7243 208.86 71.0067 208.766 71.338C208.678 71.6693 208.633 72.0403 208.633 72.451C208.633 72.8803 208.682 73.263 208.78 73.599C208.878 73.9303 209.016 74.2103 209.193 74.439C209.375 74.663 209.592 74.8357 209.844 74.957C210.101 75.0737 210.388 75.132 210.705 75.132C211.009 75.132 211.258 75.097 211.454 75.027C211.65 74.9523 211.811 74.8707 211.937 74.782C212.068 74.6933 212.175 74.614 212.259 74.544C212.348 74.4693 212.434 74.432 212.518 74.432C212.621 74.432 212.7 74.4717 212.756 74.551L213.106 75.006C212.952 75.1973 212.777 75.3607 212.581 75.496C212.385 75.6313 212.173 75.7457 211.944 75.839C211.72 75.9277 211.485 75.993 211.237 76.035C210.99 76.077 210.738 76.098 210.481 76.098C210.038 76.098 209.625 76.0163 209.242 75.853C208.864 75.6897 208.535 75.454 208.255 75.146C207.975 74.8333 207.756 74.4507 207.597 73.998C207.439 73.5453 207.359 73.0297 207.359 72.451C207.359 71.9237 207.432 71.436 207.576 70.988C207.726 70.54 207.94 70.155 208.22 69.833C208.505 69.5063 208.853 69.252 209.263 69.07C209.679 68.888 210.155 68.797 210.691 68.797C211.191 68.797 211.629 68.8787 212.007 69.042C212.39 69.2007 212.728 69.427 213.022 69.721L212.693 70.169ZM219.256 70.169C219.219 70.2203 219.181 70.26 219.144 70.288C219.107 70.316 219.055 70.33 218.99 70.33C218.92 70.33 218.843 70.302 218.759 70.246C218.675 70.1853 218.57 70.12 218.444 70.05C218.323 69.98 218.171 69.917 217.989 69.861C217.812 69.8003 217.592 69.77 217.331 69.77C216.981 69.77 216.673 69.833 216.407 69.959C216.141 70.0803 215.917 70.2577 215.735 70.491C215.558 70.7243 215.422 71.0067 215.329 71.338C215.24 71.6693 215.196 72.0403 215.196 72.451C215.196 72.8803 215.245 73.263 215.343 73.599C215.441 73.9303 215.579 74.2103 215.756 74.439C215.938 74.663 216.155 74.8357 216.407 74.957C216.664 75.0737 216.951 75.132 217.268 75.132C217.571 75.132 217.821 75.097 218.017 75.027C218.213 74.9523 218.374 74.8707 218.5 74.782C218.631 74.6933 218.738 74.614 218.822 74.544C218.911 74.4693 218.997 74.432 219.081 74.432C219.184 74.432 219.263 74.4717 219.319 74.551L219.669 75.006C219.515 75.1973 219.34 75.3607 219.144 75.496C218.948 75.6313 218.736 75.7457 218.507 75.839C218.283 75.9277 218.047 75.993 217.8 76.035C217.553 76.077 217.301 76.098 217.044 76.098C216.601 76.098 216.188 76.0163 215.805 75.853C215.427 75.6897 215.098 75.454 214.818 75.146C214.538 74.8333 214.319 74.4507 214.16 73.998C214.001 73.5453 213.922 73.0297 213.922 72.451C213.922 71.9237 213.994 71.436 214.139 70.988C214.288 70.54 214.503 70.155 214.783 69.833C215.068 69.5063 215.415 69.252 215.826 69.07C216.241 68.888 216.717 68.797 217.254 68.797C217.753 68.797 218.192 68.8787 218.57 69.042C218.953 69.2007 219.291 69.427 219.585 69.721L219.256 70.169ZM225.818 70.169C225.781 70.2203 225.744 70.26 225.706 70.288C225.669 70.316 225.618 70.33 225.552 70.33C225.482 70.33 225.405 70.302 225.321 70.246C225.237 70.1853 225.132 70.12 225.006 70.05C224.885 69.98 224.733 69.917 224.551 69.861C224.374 69.8003 224.155 69.77 223.893 69.77C223.543 69.77 223.235 69.833 222.969 69.959C222.703 70.0803 222.479 70.2577 222.297 70.491C222.12 70.7243 221.985 71.0067 221.891 71.338C221.803 71.6693 221.758 72.0403 221.758 72.451C221.758 72.8803 221.807 73.263 221.905 73.599C222.003 73.9303 222.141 74.2103 222.318 74.439C222.5 74.663 222.717 74.8357 222.969 74.957C223.226 75.0737 223.513 75.132 223.83 75.132C224.134 75.132 224.383 75.097 224.579 75.027C224.775 74.9523 224.936 74.8707 225.062 74.782C225.193 74.6933 225.3 74.614 225.384 74.544C225.473 74.4693 225.559 74.432 225.643 74.432C225.746 74.432 225.825 74.4717 225.881 74.551L226.231 75.006C226.077 75.1973 225.902 75.3607 225.706 75.496C225.51 75.6313 225.298 75.7457 225.069 75.839C224.845 75.9277 224.61 75.993 224.362 76.035C224.115 76.077 223.863 76.098 223.606 76.098C223.163 76.098 222.75 76.0163 222.367 75.853C221.989 75.6897 221.66 75.454 221.38 75.146C221.1 74.8333 220.881 74.4507 220.722 73.998C220.564 73.5453 220.484 73.0297 220.484 72.451C220.484 71.9237 220.557 71.436 220.701 70.988C220.851 70.54 221.065 70.155 221.345 69.833C221.63 69.5063 221.978 69.252 222.388 69.07C222.804 68.888 223.28 68.797 223.816 68.797C224.316 68.797 224.754 68.8787 225.132 69.042C225.515 69.2007 225.853 69.427 226.147 69.721L225.818 70.169ZM232.381 70.169C232.344 70.2203 232.306 70.26 232.269 70.288C232.232 70.316 232.18 70.33 232.115 70.33C232.045 70.33 231.968 70.302 231.884 70.246C231.8 70.1853 231.695 70.12 231.569 70.05C231.448 69.98 231.296 69.917 231.114 69.861C230.937 69.8003 230.717 69.77 230.456 69.77C230.106 69.77 229.798 69.833 229.532 69.959C229.266 70.0803 229.042 70.2577 228.86 70.491C228.683 70.7243 228.547 71.0067 228.454 71.338C228.365 71.6693 228.321 72.0403 228.321 72.451C228.321 72.8803 228.37 73.263 228.468 73.599C228.566 73.9303 228.704 74.2103 228.881 74.439C229.063 74.663 229.28 74.8357 229.532 74.957C229.789 75.0737 230.076 75.132 230.393 75.132C230.696 75.132 230.946 75.097 231.142 75.027C231.338 74.9523 231.499 74.8707 231.625 74.782C231.756 74.6933 231.863 74.614 231.947 74.544C232.036 74.4693 232.122 74.432 232.206 74.432C232.309 74.432 232.388 74.4717 232.444 74.551L232.794 75.006C232.64 75.1973 232.465 75.3607 232.269 75.496C232.073 75.6313 231.861 75.7457 231.632 75.839C231.408 75.9277 231.172 75.993 230.925 76.035C230.678 76.077 230.426 76.098 230.169 76.098C229.726 76.098 229.313 76.0163 228.93 75.853C228.552 75.6897 228.223 75.454 227.943 75.146C227.663 74.8333 227.444 74.4507 227.285 73.998C227.126 73.5453 227.047 73.0297 227.047 72.451C227.047 71.9237 227.119 71.436 227.264 70.988C227.413 70.54 227.628 70.155 227.908 69.833C228.193 69.5063 228.54 69.252 228.951 69.07C229.366 68.888 229.842 68.797 230.379 68.797C230.878 68.797 231.317 68.8787 231.695 69.042C232.078 69.2007 232.416 69.427 232.71 69.721L232.381 70.169ZM233.922 75.23C233.922 75.1087 233.943 74.9943 233.985 74.887C234.031 74.7797 234.092 74.6863 234.167 74.607C234.246 74.5277 234.339 74.4647 234.447 74.418C234.554 74.3713 234.668 74.348 234.79 74.348C234.911 74.348 235.025 74.3713 235.133 74.418C235.24 74.4647 235.333 74.5277 235.413 74.607C235.492 74.6863 235.555 74.7797 235.602 74.887C235.648 74.9943 235.672 75.1087 235.672 75.23C235.672 75.356 235.648 75.4727 235.602 75.58C235.555 75.6827 235.492 75.7737 235.413 75.853C235.333 75.9323 235.24 75.993 235.133 76.035C235.025 76.0817 234.911 76.105 234.79 76.105C234.668 76.105 234.554 76.0817 234.447 76.035C234.339 75.993 234.246 75.9323 234.167 75.853C234.092 75.7737 234.031 75.6827 233.985 75.58C233.943 75.4727 233.922 75.356 233.922 75.23ZM238.623 70.33C238.847 69.8447 239.122 69.4667 239.449 69.196C239.776 68.9207 240.175 68.783 240.646 68.783C240.795 68.783 240.938 68.7993 241.073 68.832C241.213 68.8647 241.337 68.916 241.444 68.986L241.353 69.917C241.325 70.0337 241.255 70.092 241.143 70.092C241.078 70.092 240.982 70.078 240.856 70.05C240.73 70.022 240.588 70.008 240.429 70.008C240.205 70.008 240.004 70.0407 239.827 70.106C239.654 70.1713 239.498 70.2693 239.358 70.4C239.223 70.526 239.099 70.6847 238.987 70.876C238.88 71.0627 238.782 71.2773 238.693 71.52V76H237.44V68.909H238.154C238.289 68.909 238.383 68.9347 238.434 68.986C238.485 69.0373 238.52 69.126 238.539 69.252L238.623 70.33ZM248.371 68.909V76H247.629C247.451 76 247.339 75.9137 247.293 75.741L247.195 74.978C246.887 75.3187 246.541 75.594 246.159 75.804C245.776 76.0093 245.337 76.112 244.843 76.112C244.455 76.112 244.112 76.049 243.814 75.923C243.52 75.7923 243.272 75.6103 243.072 75.377C242.871 75.1437 242.719 74.8613 242.617 74.53C242.519 74.1987 242.47 73.8323 242.47 73.431V68.909H243.716V73.431C243.716 73.9677 243.837 74.383 244.08 74.677C244.327 74.971 244.703 75.118 245.207 75.118C245.575 75.118 245.918 75.0317 246.236 74.859C246.558 74.6817 246.854 74.439 247.125 74.131V68.909H248.371ZM111.07 89.909V97H109.824V92.184C109.824 92.0907 109.829 91.9903 109.838 91.883C109.847 91.7757 109.859 91.6683 109.873 91.561C109.831 91.6543 109.789 91.7407 109.747 91.82C109.705 91.8993 109.661 91.9717 109.614 92.037L106.191 96.692C106.14 96.7667 106.074 96.839 105.995 96.909C105.92 96.9743 105.836 97.007 105.743 97.007H104.987V89.916H106.24V94.732C106.24 94.8207 106.235 94.9187 106.226 95.026C106.217 95.1287 106.205 95.2337 106.191 95.341C106.233 95.2523 106.275 95.1707 106.317 95.096C106.359 95.0167 106.401 94.9443 106.443 94.879L109.866 90.224C109.917 90.1493 109.983 90.0793 110.062 90.014C110.141 89.944 110.228 89.909 110.321 89.909H111.07ZM122.74 89.909L118.785 99.093C118.743 99.1863 118.689 99.261 118.624 99.317C118.563 99.373 118.467 99.401 118.337 99.401H117.413L118.708 96.587L115.782 89.909H116.86C116.967 89.909 117.051 89.937 117.112 89.993C117.177 90.0443 117.221 90.1027 117.245 90.168L119.142 94.634C119.216 94.83 119.279 95.0353 119.331 95.25C119.396 95.0307 119.466 94.823 119.541 94.627L121.382 90.168C121.41 90.0933 121.456 90.0327 121.522 89.986C121.592 89.9347 121.669 89.909 121.753 89.909H122.74ZM123.338 90.637C123.604 90.385 123.926 90.182 124.304 90.028C124.686 89.874 125.146 89.797 125.683 89.797C126.112 89.797 126.49 89.8507 126.817 89.958C127.143 90.0607 127.416 90.1983 127.636 90.371C127.86 90.5437 128.028 90.742 128.14 90.966C128.256 91.1853 128.315 91.414 128.315 91.652C128.315 91.792 128.291 91.939 128.245 92.093C128.203 92.247 128.13 92.394 128.028 92.534C127.925 92.674 127.792 92.8047 127.629 92.926C127.465 93.0473 127.262 93.1453 127.02 93.22C127.472 93.3553 127.827 93.5723 128.084 93.871C128.345 94.1697 128.476 94.536 128.476 94.97C128.476 95.2967 128.401 95.593 128.252 95.859C128.102 96.1203 127.902 96.3443 127.65 96.531C127.398 96.713 127.104 96.853 126.768 96.951C126.436 97.049 126.089 97.098 125.725 97.098C125.496 97.098 125.263 97.077 125.025 97.035C124.791 96.993 124.563 96.9277 124.339 96.839C124.115 96.7457 123.902 96.6313 123.702 96.496C123.506 96.3607 123.331 96.1973 123.177 96.006L123.527 95.551C123.583 95.4717 123.662 95.432 123.765 95.432C123.849 95.432 123.937 95.4693 124.031 95.544C124.129 95.614 124.248 95.6933 124.388 95.782C124.528 95.8707 124.698 95.9523 124.899 96.027C125.104 96.097 125.354 96.132 125.648 96.132C125.904 96.132 126.133 96.1017 126.334 96.041C126.539 95.9757 126.712 95.887 126.852 95.775C126.992 95.663 127.099 95.53 127.174 95.376C127.248 95.222 127.286 95.054 127.286 94.872C127.286 94.522 127.139 94.2397 126.845 94.025C126.555 93.8103 126.114 93.703 125.522 93.703H124.717V92.877H125.522C125.778 92.877 126.009 92.8513 126.215 92.8C126.42 92.744 126.595 92.6693 126.74 92.576C126.884 92.4827 126.994 92.3707 127.069 92.24C127.143 92.1047 127.181 91.96 127.181 91.806C127.181 91.666 127.148 91.533 127.083 91.407C127.022 91.281 126.926 91.1713 126.796 91.078C126.67 90.9847 126.511 90.91 126.32 90.854C126.128 90.798 125.904 90.77 125.648 90.77C125.368 90.77 125.13 90.798 124.934 90.854C124.742 90.91 124.579 90.9707 124.444 91.036C124.313 91.1013 124.206 91.162 124.122 91.218C124.038 91.274 123.965 91.302 123.905 91.302C123.844 91.302 123.793 91.2903 123.751 91.267C123.713 91.2437 123.671 91.1947 123.625 91.12L123.338 90.637ZM135.983 89.909V97H134.73V93.682H131.328V97H130.075V89.909H131.328V92.737H134.73V89.909H135.983ZM141.807 93.808C141.233 93.8267 140.743 93.8733 140.337 93.948C139.935 94.018 139.606 94.1113 139.35 94.228C139.098 94.3447 138.913 94.4823 138.797 94.641C138.685 94.7997 138.629 94.977 138.629 95.173C138.629 95.3597 138.659 95.5207 138.72 95.656C138.78 95.7913 138.862 95.9033 138.965 95.992C139.072 96.076 139.196 96.139 139.336 96.181C139.48 96.2183 139.634 96.237 139.798 96.237C140.017 96.237 140.218 96.216 140.4 96.174C140.582 96.1273 140.752 96.062 140.911 95.978C141.074 95.894 141.228 95.7937 141.373 95.677C141.522 95.5603 141.667 95.4273 141.807 95.278V93.808ZM137.782 90.91C138.174 90.532 138.596 90.2497 139.049 90.063C139.501 89.8763 140.003 89.783 140.554 89.783C140.95 89.783 141.303 89.8483 141.611 89.979C141.919 90.1097 142.178 90.2917 142.388 90.525C142.598 90.7583 142.756 91.0407 142.864 91.372C142.971 91.7033 143.025 92.0673 143.025 92.464V97H142.472C142.35 97 142.257 96.9813 142.192 96.944C142.126 96.902 142.075 96.8227 142.038 96.706L141.898 96.034C141.711 96.2067 141.529 96.3607 141.352 96.496C141.174 96.6267 140.988 96.7387 140.792 96.832C140.596 96.9207 140.386 96.9883 140.162 97.035C139.942 97.0863 139.697 97.112 139.427 97.112C139.151 97.112 138.892 97.0747 138.65 97C138.407 96.9207 138.195 96.804 138.013 96.65C137.835 96.496 137.693 96.3023 137.586 96.069C137.483 95.831 137.432 95.551 137.432 95.229C137.432 94.949 137.509 94.6807 137.663 94.424C137.817 94.1627 138.066 93.9317 138.412 93.731C138.757 93.5303 139.207 93.367 139.763 93.241C140.318 93.1103 140.999 93.0357 141.807 93.017V92.464C141.807 91.9133 141.688 91.498 141.45 91.218C141.212 90.9333 140.864 90.791 140.407 90.791C140.099 90.791 139.84 90.8307 139.63 90.91C139.424 90.9847 139.245 91.071 139.091 91.169C138.941 91.2623 138.811 91.3487 138.699 91.428C138.591 91.5027 138.484 91.54 138.377 91.54C138.293 91.54 138.22 91.519 138.16 91.477C138.099 91.4303 138.048 91.3743 138.006 91.309L137.782 90.91ZM151.069 96.125C151.722 96.125 152.21 95.8917 152.532 95.425C152.854 94.9537 153.015 94.298 153.015 93.458C153.015 92.6133 152.854 91.9553 152.532 91.484C152.21 91.0127 151.722 90.777 151.069 90.777C150.415 90.777 149.928 91.0127 149.606 91.484C149.284 91.9553 149.123 92.6133 149.123 93.458C149.123 94.298 149.284 94.9537 149.606 95.425C149.928 95.8917 150.415 96.125 151.069 96.125ZM147.898 92.968C147.94 92.4827 148.04 92.044 148.199 91.652C148.362 91.26 148.579 90.9263 148.85 90.651C149.125 90.3757 149.447 90.1657 149.816 90.021C150.189 89.8717 150.607 89.797 151.069 89.797C151.563 89.797 152.009 89.8833 152.406 90.056C152.807 90.2287 153.148 90.4737 153.428 90.791C153.708 91.1083 153.922 91.4933 154.072 91.946C154.226 92.394 154.303 92.8957 154.303 93.451C154.303 94.011 154.226 94.515 154.072 94.963C153.918 95.411 153.698 95.7937 153.414 96.111C153.129 96.4283 152.788 96.6733 152.392 96.846C151.995 97.014 151.554 97.098 151.069 97.098C150.597 97.098 150.173 97.0233 149.795 96.874C149.421 96.7247 149.099 96.5123 148.829 96.237C148.558 95.957 148.341 95.6187 148.178 95.222C148.019 94.8253 147.923 94.3773 147.891 93.878H146.176V97H144.923V89.909H146.176V92.968H147.898ZM157.372 86.969V90.973C157.372 91.183 157.367 91.3883 157.358 91.589C157.348 91.7897 157.337 91.9927 157.323 92.198C157.309 92.3987 157.29 92.6063 157.267 92.821C157.248 93.031 157.225 93.2573 157.197 93.5H156.357C156.329 93.2573 156.303 93.031 156.28 92.821C156.261 92.6063 156.245 92.3987 156.231 92.198C156.217 91.9927 156.205 91.7897 156.196 91.589C156.186 91.3883 156.182 91.183 156.182 90.973V86.969H157.372ZM155.881 96.23C155.881 96.1087 155.902 95.9943 155.944 95.887C155.99 95.7797 156.053 95.6863 156.133 95.607C156.212 95.5277 156.303 95.4647 156.406 95.418C156.513 95.3713 156.63 95.348 156.756 95.348C156.877 95.348 156.989 95.3713 157.092 95.418C157.199 95.4647 157.292 95.5277 157.372 95.607C157.451 95.6863 157.514 95.7797 157.561 95.887C157.607 95.9943 157.631 96.1087 157.631 96.23C157.631 96.356 157.607 96.4727 157.561 96.58C157.514 96.6827 157.451 96.7737 157.372 96.853C157.292 96.9323 157.199 96.993 157.092 97.035C156.989 97.0817 156.877 97.105 156.756 97.105C156.63 97.105 156.513 97.0817 156.406 97.035C156.303 96.993 156.212 96.9323 156.133 96.853C156.053 96.7737 155.99 96.6827 155.944 96.58C155.902 96.4727 155.881 96.356 155.881 96.23Z" fill="#475658"/>
<path d="M31.43 37.1C32.23 37.1 32.86 37.33 33.32 37.79C33.8 38.23 34.04 38.82 34.04 39.56V44H4.28V41.54C4.28 41.04 4.38 40.52 4.58 39.98C4.8 39.42 5.14 38.92 5.6 38.48L18.77 25.28C19.87 24.16 20.85 23.09 21.71 22.07C22.59 21.05 23.32 20.04 23.9 19.04C24.48 18.04 24.92 17.03 25.22 16.01C25.54 14.97 25.7 13.88 25.7 12.74C25.7 11.7 25.55 10.79 25.25 10.01C24.95 9.21 24.52 8.54 23.96 8C23.42 7.46 22.76 7.06 21.98 6.8C21.22 6.52 20.36 6.38 19.4 6.38C18.52 6.38 17.7 6.51 16.94 6.77C16.2 7.01 15.54 7.36 14.96 7.82C14.38 8.26 13.89 8.78 13.49 9.38C13.09 9.98 12.79 10.64 12.59 11.36C12.25 12.28 11.81 12.89 11.27 13.19C10.73 13.49 9.95 13.56 8.93 13.4L5.03 12.71C5.33 10.63 5.91 8.81 6.77 7.25C7.63 5.67 8.7 4.36 9.98 3.32C11.28 2.26 12.76 1.47 14.42 0.949998C16.1 0.409999 17.9 0.14 19.82 0.14C21.82 0.14 23.65 0.439999 25.31 1.04C26.97 1.62 28.39 2.45 29.57 3.53C30.75 4.61 31.67 5.91 32.33 7.43C32.99 8.95 33.32 10.64 33.32 12.5C33.32 14.1 33.08 15.58 32.6 16.94C32.14 18.3 31.51 19.6 30.71 20.84C29.93 22.08 29.01 23.28 27.95 24.44C26.89 25.6 25.78 26.78 24.62 27.98L14.84 37.97C15.78 37.69 16.71 37.48 17.63 37.34C18.57 37.18 19.46 37.1 20.3 37.1H31.43Z" fill="#03073C"/>
</svg>
