<svg width="380" height="404" viewBox="0 0 380 404" fill="none" xmlns="http://www.w3.org/2000/svg">
<path d="M0.5 29C0.5 26.5147 2.51472 24.5 5 24.5H330C357.338 24.5 379.5 46.6619 379.5 74V354C379.5 381.338 357.338 403.5 330 403.5H50C22.6619 403.5 0.5 381.338 0.5 354V29Z" stroke="#E0E0E0"/>
<path d="M200.088 189.827C197.528 190.754 193.316 193.621 190.959 198.649C188.269 204.383 186.237 214.856 186.237 221.425C186.237 227.993 186.441 242.558 188.909 251.177C191.368 259.795 195.477 263.691 198.966 265.333C202.454 266.976 208.41 266.15 210.664 264.1C212.51 263.283 213.336 262.662 214.56 261.02C205.534 253.013 200.459 246.696 197.936 238.04C195.422 229.384 193.01 223.262 192.806 218.131C192.601 213.001 194.039 203.353 197.732 199.865C203.27 206.229 206.962 209.717 212.297 211.359C217.631 213.001 223.791 213.817 228.922 211.971C233.235 214.43 237.336 216.693 239.998 217.306C237.54 212.788 234.46 208.483 229.738 204.373C236.102 206.628 239.182 209.503 241.845 213.604C244.516 217.705 246.159 222.631 244.516 226.945C242.874 231.258 239.59 237.001 239.59 241.723C239.59 246.445 240.62 253.422 243.283 256.706C249.851 259.582 254.573 256.502 258.469 251.78C262.366 247.057 264.629 240.285 264.833 235.776C265.038 231.258 263.6 223.262 260.937 219.152C258.265 215.051 253.757 210.329 250.881 205.811C248.005 201.293 243.292 192.675 237.54 188.982C231.797 185.29 222.966 183.036 219.273 182.822C215.581 182.618 214.347 185.077 217.835 186.515C221.324 187.953 233.022 192.257 237.327 197.183C229.525 194.929 222.864 194.103 217.937 192.767C214.644 191.877 211.063 190.309 207.983 189.177C205.914 188.454 202.714 188.88 200.088 189.827Z" fill="#D44B4B"/>
<path d="M68.4541 364.256L164.491 370.416L161.207 358.513L65.7822 353.383L68.4541 364.256Z" fill="#D44B4B"/>
<path d="M127.197 163.133C130.509 167.753 132.42 170.369 133.478 172.067C134.535 173.765 134.925 176.279 133.552 178.292C132.17 180.305 129.127 184.554 127.429 186.678C131.149 183.598 134.507 181.511 136.103 180.342C137.699 179.173 139.749 178.904 141.27 179.915C143.822 181.613 146.54 183.274 151.29 186.53C147.857 182.105 146.16 178.923 144.499 176.835C143.701 175.833 143.219 173.737 144.146 172.373C145.204 170.814 148.961 165.86 151.689 162.502C147.904 165.294 142.523 169.265 141.141 169.794C139.758 170.323 138.589 170.36 136.678 169.228C134.173 167.753 131.678 166.296 127.197 163.133Z" fill="#D44B4B"/>
<path d="M113.865 200.567C115.572 202.951 116.556 204.296 117.103 205.168C117.65 206.04 117.854 207.339 117.14 208.378C116.426 209.417 114.858 211.606 113.986 212.701C115.897 211.115 117.632 210.039 118.457 209.435C119.274 208.832 120.341 208.693 121.12 209.213C122.437 210.085 123.838 210.948 126.278 212.627C124.506 210.345 123.634 208.703 122.781 207.626C122.372 207.107 122.122 206.031 122.595 205.326C123.142 204.528 125.072 201.967 126.482 200.242C124.534 201.68 121.76 203.721 121.046 203.999C120.331 204.268 119.728 204.287 118.745 203.711C117.465 202.951 116.175 202.199 113.865 200.567Z" fill="#D44B4B"/>
<path d="M174 153.325C175.707 155.709 176.69 157.054 177.238 157.926C177.785 158.798 177.989 160.097 177.275 161.136C176.561 162.175 174.993 164.365 174.121 165.459C176.032 163.873 177.767 162.797 178.592 162.194C179.409 161.591 180.475 161.451 181.255 161.971C182.572 162.843 183.973 163.706 186.413 165.385C184.641 163.103 183.769 161.461 182.915 160.385C182.507 159.865 182.257 158.789 182.73 158.084C183.277 157.286 185.207 154.726 186.617 153C184.669 154.438 181.895 156.479 181.181 156.757C180.466 157.026 179.863 157.045 178.88 156.47C177.59 155.709 176.31 154.957 174 153.325Z" fill="#D44B4B"/>
<path d="M252.235 204.141C251.836 204.141 251.447 203.919 251.243 203.538C249.146 199.466 245.834 193.602 241.381 189.725C235.481 184.594 225.072 180.188 218.893 180.188C218.81 180.188 218.717 180.188 218.633 180.188C210.868 180.345 206.044 181.7 203.901 184.325C203.511 184.798 202.806 184.873 202.333 184.483C201.86 184.093 201.786 183.388 202.176 182.915C205.617 178.703 213.188 178.073 218.587 177.952C218.689 177.952 218.791 177.952 218.893 177.952C225.638 177.952 236.51 182.516 242.856 188.036C247.597 192.165 251.048 198.278 253.237 202.509C253.515 203.056 253.302 203.724 252.755 204.011C252.578 204.095 252.411 204.141 252.235 204.141Z" fill="#475658"/>
<path d="M240.184 218.679C240.054 218.679 239.924 218.66 239.794 218.604C235.824 217.129 231.482 214.977 228.55 213.446C224.45 211.294 214.199 205.635 207.705 199.568C207.259 199.15 207.232 198.445 207.649 197.991C208.066 197.545 208.771 197.517 209.226 197.935C215.516 203.817 225.563 209.355 229.58 211.461C232.456 212.964 236.705 215.07 240.564 216.508C241.14 216.721 241.436 217.361 241.223 217.937C241.065 218.4 240.639 218.679 240.184 218.679Z" fill="#475658"/>
<path d="M241.112 253.468C240.722 253.468 240.342 253.264 240.138 252.893C238.282 249.581 237.865 244.376 239.071 239.636C239.488 237.975 240.268 236.101 241.093 234.116C242.179 231.5 243.301 228.791 243.719 226.314C244.563 221.351 242.364 213.817 236.538 209.03C236.065 208.641 235.991 207.936 236.38 207.463C236.77 206.989 237.475 206.915 237.948 207.314C243.663 212.008 247.012 220.163 245.917 226.685C245.453 229.403 244.285 232.233 243.143 234.969C242.355 236.88 241.603 238.68 241.223 240.183C240.008 244.979 240.778 249.479 242.077 251.807C242.373 252.346 242.188 253.023 241.65 253.32C241.483 253.422 241.288 253.468 241.112 253.468Z" fill="#475658"/>
<path d="M185.82 240.73C185.272 240.73 184.799 240.332 184.716 239.775C183.974 234.58 183.296 228.355 182.953 223.531C182.183 212.695 185.727 201.265 187.944 196.209C190.579 190.198 194.049 186.663 198.845 185.095C199.429 184.91 200.06 185.225 200.246 185.81C200.441 186.394 200.116 187.025 199.531 187.21C195.32 188.584 192.369 191.636 189.976 197.1C187.842 201.961 184.437 212.973 185.17 223.373C185.504 228.151 186.172 234.32 186.915 239.459C186.998 240.072 186.581 240.628 185.968 240.721C185.922 240.721 185.875 240.73 185.82 240.73Z" fill="#475658"/>
<path d="M202.212 257.531C199.29 257.531 196.711 255.954 194.744 254.526C192.026 252.559 187.415 247.855 185.847 242.966C185.662 242.382 185.977 241.751 186.571 241.565C187.156 241.38 187.786 241.705 187.972 242.289C189.364 246.631 193.668 250.991 196.052 252.726C198.845 254.748 200.895 255.509 202.908 255.268C203.502 255.194 204.077 255.63 204.142 256.242C204.216 256.854 203.78 257.402 203.168 257.476C202.853 257.513 202.528 257.531 202.212 257.531Z" fill="#475658"/>
<path d="M244.266 248.894C243.839 248.894 243.431 248.644 243.245 248.226C242.995 247.661 243.255 247.011 243.821 246.761C251.91 243.198 256.669 228.744 254.174 220.952C253.988 220.367 254.313 219.736 254.898 219.551C255.491 219.365 256.113 219.69 256.298 220.274C259.1 229.051 253.886 244.757 244.711 248.792C244.572 248.867 244.414 248.894 244.266 248.894Z" fill="#475658"/>
<path d="M250.565 255.491C250.157 255.491 249.758 255.259 249.563 254.869C249.294 254.322 249.517 253.654 250.064 253.375C255.9 250.499 258.887 240.647 257.152 234.895C256.976 234.311 257.31 233.689 257.894 233.504C258.488 233.327 259.1 233.661 259.286 234.246C261.763 242.475 256.809 252.522 251.048 255.361C250.899 255.453 250.723 255.491 250.565 255.491Z" fill="#475658"/>
<path d="M195.552 223.688C195.31 223.688 195.06 223.605 194.856 223.447C194.373 223.067 194.299 222.362 194.679 221.879C196.479 219.625 201.517 218.178 204.662 218.994C205.255 219.152 205.617 219.755 205.46 220.349C205.302 220.942 204.69 221.295 204.105 221.146C201.795 220.543 197.695 221.666 196.424 223.262C196.201 223.54 195.876 223.688 195.552 223.688Z" fill="#475658"/>
<path d="M218.327 224.662C218.578 225.822 219.719 226.564 220.878 226.314C222.038 226.063 222.78 224.922 222.53 223.763C222.279 222.603 221.138 221.861 219.979 222.111C218.819 222.352 218.086 223.494 218.327 224.662Z" fill="#475658"/>
<path d="M199.429 229.403C199.68 230.563 200.821 231.305 201.981 231.054C203.14 230.804 203.883 229.663 203.632 228.503C203.382 227.344 202.24 226.601 201.081 226.852C199.921 227.102 199.188 228.243 199.429 229.403Z" fill="#475658"/>
<path d="M209.31 241.491C209.254 241.491 209.198 241.491 209.143 241.482C208.53 241.389 208.113 240.823 208.206 240.22C208.632 237.335 208.809 231.722 208.113 229.153C207.955 228.559 208.308 227.947 208.901 227.789C209.495 227.631 210.107 227.984 210.265 228.577C211.072 231.574 210.868 237.456 210.404 240.545C210.33 241.092 209.848 241.491 209.31 241.491Z" fill="#475658"/>
<path d="M228.931 244.043C228.653 243.495 227.985 243.273 227.437 243.542C223.188 245.666 210.488 247.726 207.714 246.334C207.167 246.056 206.499 246.278 206.22 246.835C205.942 247.382 206.165 248.05 206.721 248.329C207.12 248.533 207.631 248.681 208.224 248.792C210.033 252.346 213.958 254.813 217.668 254.813C218.04 254.813 218.401 254.786 218.763 254.739C223.207 254.127 226.946 250.407 227.827 245.814C228.05 245.722 228.254 245.629 228.43 245.536C228.987 245.267 229.209 244.599 228.931 244.043ZM218.457 252.54C215.832 252.902 212.779 251.39 210.98 249.024C211.017 249.024 211.054 249.024 211.091 249.024C215.386 249.024 221.296 247.939 225.285 246.724C224.2 249.776 221.537 252.114 218.457 252.54Z" fill="#475658"/>
<path d="M226.51 212.973C226.333 212.379 225.721 212.045 225.127 212.222C222.613 212.964 217.455 212.305 212.288 210.589C207.065 208.845 202.454 204.596 199.624 198.918C199.355 198.371 198.678 198.148 198.131 198.417C197.583 198.696 197.361 199.364 197.63 199.911C200.719 206.117 205.803 210.774 211.583 212.704C213.763 213.428 216.462 214.114 219.06 214.476C217 214.996 215.024 215.756 213.605 216.74C213.095 217.092 212.974 217.779 213.317 218.289C213.531 218.604 213.883 218.771 214.236 218.771C214.449 218.771 214.672 218.706 214.867 218.577C217.028 217.083 221.444 215.914 225.118 215.868C225.73 215.858 226.222 215.348 226.213 214.736C226.213 214.541 226.138 214.365 226.046 214.207C226.454 213.929 226.658 213.446 226.51 212.973Z" fill="#475658"/>
<path d="M219.598 292.228C214.941 292.228 208.966 291.551 205.45 288.536C204.986 288.137 204.931 287.432 205.33 286.968C205.729 286.504 206.434 286.448 206.897 286.847C212.519 291.662 228.003 290.271 236.195 287.2C236.77 286.986 237.41 287.274 237.623 287.849C237.837 288.424 237.549 289.065 236.974 289.278C232.298 291.031 226.073 292.126 220.321 292.219C220.09 292.228 219.848 292.228 219.598 292.228Z" fill="#475658"/>
<path d="M207.9 264.063C207.519 263.58 206.814 263.506 206.332 263.886C202.426 267.003 197.528 264.239 195.181 261.623C192.852 259.016 190.171 253.848 188.807 249.349C188.631 248.765 188.009 248.421 187.416 248.607C186.831 248.783 186.497 249.405 186.673 249.998C188.139 254.86 190.959 260.25 193.52 263.116C193.733 263.358 193.975 263.589 194.216 263.831C190.356 264.471 182.499 266.326 179.446 267.087C176.459 267.829 170.689 270.121 170.216 273.442C170.132 274.054 170.55 274.611 171.162 274.703C171.218 274.713 171.273 274.713 171.32 274.713C171.867 274.713 172.34 274.314 172.424 273.757C172.628 272.31 176.162 270.204 179.994 269.249C183.065 268.479 191.052 266.595 194.772 266.002C195.273 265.918 195.617 265.519 195.682 265.046C197.583 266.438 199.986 267.532 202.482 267.532C204.244 267.532 206.044 266.994 207.723 265.649C208.206 265.241 208.28 264.545 207.9 264.063Z" fill="#475658"/>
<path d="M173.24 292.543C172.72 292.543 172.256 292.182 172.145 291.653C171.459 288.202 171.106 284.092 171.134 279.787C171.134 279.175 171.635 278.683 172.247 278.683H172.256C172.869 278.683 173.37 279.194 173.36 279.806C173.333 283.962 173.667 287.905 174.325 291.217C174.446 291.82 174.056 292.404 173.453 292.525C173.388 292.534 173.314 292.543 173.24 292.543Z" fill="#475658"/>
<path d="M221.166 354.951C221.036 354.951 220.915 354.932 220.786 354.886C220.21 354.673 219.914 354.032 220.118 353.457C222.149 347.863 227.205 337.76 233.644 326.442C238.551 317.814 244.628 309.27 249.99 301.737C252.495 298.221 254.879 294.872 257.022 291.69L247.457 290.771C246.938 290.725 246.53 290.326 246.455 289.807C246.391 289.296 246.687 288.795 247.17 288.619L258.414 284.454C258.442 284.277 258.479 284.092 258.516 283.897C259.007 281.17 259.842 276.596 257.254 268.488C257.069 267.903 257.393 267.272 257.978 267.087C258.562 266.901 259.193 267.226 259.379 267.811C262.125 276.448 261.243 281.355 260.705 284.296C260.631 284.723 260.557 285.094 260.52 285.428C260.464 285.836 260.186 286.179 259.805 286.328L252.504 289.037L259.091 289.668C259.481 289.705 259.824 289.946 259.991 290.298C260.158 290.651 260.13 291.068 259.917 291.393C257.495 295.058 254.731 298.935 251.808 303.045C246.474 310.541 240.435 319.03 235.583 327.555C229.209 338.772 224.209 348.745 222.214 354.227C222.047 354.673 221.621 354.951 221.166 354.951Z" fill="#475658"/>
<path d="M205.524 354.626C205.126 354.626 204.745 354.413 204.541 354.042C202.769 350.739 199.661 343.559 196.665 336.61C195.31 333.484 193.984 330.413 192.815 327.787C188.779 318.714 184.206 300.902 186.655 289.714C186.766 289.213 187.202 288.851 187.712 288.842C188.287 288.823 191.265 288.731 193.993 288.656C193.863 288.601 193.733 288.545 193.603 288.489C190.792 287.283 188.909 286.476 188.343 286.152C187.852 285.873 187.647 285.28 187.87 284.76C188.918 282.246 198.836 271.642 201.433 268.933C201.86 268.488 202.565 268.479 203.01 268.905C203.456 269.332 203.465 270.037 203.038 270.482C198.65 275.047 192.416 281.958 190.477 284.714C191.516 285.177 193.112 285.864 194.485 286.458C200.153 288.888 200.153 288.888 199.949 289.872C199.838 290.391 199.364 290.772 198.836 290.772C198.502 290.772 192.87 290.939 188.668 291.059C186.757 301.709 191.163 318.585 194.856 326.906C196.025 329.541 197.361 332.621 198.715 335.757C201.702 342.659 204.782 349.793 206.517 353.021C206.805 353.559 206.601 354.237 206.063 354.524C205.877 354.58 205.701 354.626 205.524 354.626Z" fill="#475658"/>
<path d="M318.233 352.047C318.168 351.435 317.621 350.98 317.008 351.054C316.396 351.119 315.951 351.667 316.016 352.279C317.148 362.911 308.139 365.852 305.347 366.501C298.556 368.078 291.153 365.341 287.145 362.141C283.332 359.089 280.354 349.83 279.668 344.31C278.907 338.224 277.172 330.023 275.929 325.616C274.955 322.175 273.832 317.824 273.749 314.688C273.656 311.33 274.491 307.591 276.031 304.418C276.634 303.175 277.673 301.245 279.176 299.158C279.538 298.657 279.427 297.961 278.926 297.609C278.425 297.247 277.729 297.368 277.376 297.859C275.781 300.076 274.677 302.127 274.037 303.453C272.348 306.932 271.439 311.061 271.541 314.753C271.634 318.13 272.803 322.657 273.805 326.22C274.213 327.657 274.677 329.569 275.15 331.675C275.113 331.758 275.057 331.832 275.038 331.925C274.12 336.397 273.396 347.659 272.97 354.394C272.83 356.509 272.728 358.216 272.645 359.172C272.599 359.784 273.053 360.322 273.665 360.378C273.693 360.378 273.73 360.378 273.758 360.378C274.333 360.378 274.816 359.942 274.871 359.358C274.955 358.383 275.066 356.667 275.196 354.533C275.493 349.941 275.92 343.215 276.449 338.057C276.866 340.33 277.228 342.584 277.478 344.57C278.202 350.405 281.263 360.248 285.781 363.857C289.307 366.677 295.226 369.154 301.293 369.154C302.824 369.154 304.364 368.997 305.885 368.644C312.527 367.123 319.29 361.946 318.233 352.047Z" fill="#475658"/>
<path d="M167.052 371.501C167.024 371.501 167.006 371.501 166.978 371.501L69.1036 365.147C68.4913 365.109 68.0275 364.581 68.0646 363.959C68.1017 363.347 68.6491 362.883 69.2521 362.92L166.987 369.266C183.658 366.121 211.555 360.879 212.306 360.879C212.918 360.879 213.419 361.38 213.419 361.992C213.419 362.586 212.955 363.068 212.371 363.106C211.026 363.263 184.697 368.189 167.265 371.474C167.182 371.492 167.117 371.501 167.052 371.501Z" fill="#475658"/>
<path d="M280.289 362.697C280.28 362.697 280.271 362.697 280.252 362.697L215.025 360.842C214.412 360.823 213.93 360.313 213.939 359.701C213.958 359.089 214.477 358.56 215.08 358.625L280.308 360.48C280.92 360.499 281.403 361.009 281.384 361.621C281.384 362.215 280.892 362.697 280.289 362.697Z" fill="#475658"/>
<path d="M348.309 364.636C348.3 364.636 348.291 364.636 348.272 364.636L319.773 363.82C319.161 363.801 318.678 363.291 318.687 362.679C318.706 362.066 319.198 361.556 319.828 361.593L348.328 362.41C348.94 362.428 349.423 362.939 349.404 363.551C349.404 364.154 348.912 364.636 348.309 364.636Z" fill="#475658"/>
<path d="M209.801 355.61C209.337 355.61 208.901 355.313 208.744 354.849C207.111 349.978 203.484 335.812 201.944 329.754L201.48 327.927C198.372 315.811 197.76 306.821 199.494 298.759C199.708 297.757 199.93 296.7 200.162 295.596C202.101 286.356 204.764 273.702 210.043 263.673C210.33 263.135 210.998 262.921 211.545 263.209C212.093 263.497 212.297 264.165 212.009 264.712C206.87 274.462 204.254 286.94 202.333 296.05C202.101 297.163 201.879 298.221 201.665 299.223C200.005 306.923 200.608 315.606 203.632 327.37L204.096 329.197C205.636 335.228 209.245 349.338 210.85 354.135C211.044 354.719 210.729 355.35 210.145 355.545C210.043 355.591 209.922 355.61 209.801 355.61Z" fill="#475658"/>
<path d="M233.254 258.635C232.864 258.153 232.168 258.079 231.686 258.459C228.114 261.317 223.884 262.133 219.115 260.908C214.848 259.804 212.074 257.717 208.985 254.711C206.183 251.984 202.147 244.97 199.782 239.756C197.88 235.572 196.952 231.249 196.507 229.171C196.349 228.42 196.108 227.538 195.839 226.509C195.264 224.347 194.549 221.657 194.215 218.948C193.612 213.91 194.447 209.123 196.85 203.882C197.11 203.325 196.859 202.666 196.303 202.406C195.746 202.147 195.088 202.397 194.828 202.954C192.249 208.585 191.349 213.752 192.007 219.217C192.351 222.074 193.093 224.848 193.687 227.084C193.956 228.076 194.178 228.939 194.327 229.635C194.791 231.787 195.746 236.268 197.75 240.675C199.782 245.146 204.04 253.004 207.426 256.298C209.365 258.19 211.211 259.73 213.326 260.945C213.336 261.029 213.336 261.122 213.373 261.205C214.783 264.721 213.744 268.191 210.664 270.241C210.154 270.584 210.014 271.271 210.358 271.781C210.571 272.106 210.924 272.273 211.285 272.273C211.499 272.273 211.712 272.208 211.898 272.087C215.302 269.814 216.805 266.076 215.998 262.207C216.805 262.523 217.64 262.81 218.559 263.051C220.154 263.46 221.713 263.664 223.216 263.664C226.834 263.664 230.183 262.495 233.068 260.185C233.56 259.814 233.634 259.109 233.254 258.635Z" fill="#475658"/>
<path d="M211.879 358.356C211.768 358.374 200.561 360.09 189.503 361.881C176.311 364.015 170.587 364.989 168.1 365.666C167.729 364.07 166.987 360.814 166.013 356.435C166.022 356.435 166.032 356.445 166.032 356.445L209.708 358.541C209.727 358.541 209.746 358.541 209.764 358.541C210.358 358.541 210.85 358.077 210.877 357.484C210.905 356.871 210.432 356.352 209.82 356.315L166.143 354.218C165.93 354.209 165.725 354.274 165.549 354.376C164.083 347.826 162.182 339.263 160.15 330.088C160.744 329.606 161.291 329.17 161.792 328.771C163.211 327.639 164.343 326.739 165.475 325.607C166.236 324.846 168.24 323.789 170.188 323.826C171.31 323.845 172.21 324.216 172.887 324.921C172.999 325.041 173.129 325.125 173.277 325.181C173.926 329.773 175.633 334.625 178.676 341.146C180.346 344.727 181.701 351.787 181.868 352.975C181.858 353.105 181.877 353.244 181.923 353.374C182.053 353.763 182.397 354.07 182.805 354.144C182.87 354.153 182.925 354.162 182.99 354.162C183.334 354.162 183.668 354.005 183.881 353.726C184.187 353.327 184.326 353.142 183.157 348.104C182.61 345.729 181.729 342.427 180.699 340.209C175.281 328.576 174.223 322.555 176.005 313.389C176.598 310.337 176.506 306.914 175.726 302.906C175.606 302.303 175.04 301.904 174.418 302.025C173.815 302.145 173.416 302.73 173.537 303.333C174.26 307.044 174.353 310.198 173.815 312.962C173.156 316.339 172.869 319.317 173.008 322.258C172.192 321.831 171.255 321.609 170.234 321.59C170.197 321.59 170.16 321.59 170.123 321.59C167.646 321.59 165.141 322.806 163.916 324.021C162.868 325.069 161.792 325.932 160.419 327.017C160.168 327.221 159.899 327.435 159.621 327.648C157.023 315.94 154.268 303.463 151.977 293.072C153.823 291.514 159.797 286.411 162.182 283.776C162.608 283.303 163.044 282.775 163.499 282.236C165.02 280.409 166.755 278.349 168.583 277.709C169.167 277.505 169.473 276.874 169.269 276.29C169.065 275.705 168.434 275.399 167.85 275.603C165.438 276.438 163.499 278.758 161.792 280.799C161.356 281.318 160.938 281.819 160.53 282.274C158.573 284.454 153.832 288.564 151.439 290.604C151.068 288.916 150.706 287.283 150.362 285.734C150.251 285.224 149.797 284.862 149.277 284.862H143.33C143.34 284.843 143.349 284.834 143.349 284.825L144.991 280.205C145.056 280.019 145.056 279.824 145.019 279.639C145.093 279.231 145.028 278.591 144.23 277.941C143.553 277.385 142.904 277.106 142.375 276.911L142.653 275.845C142.737 275.511 142.653 275.177 142.468 274.917C142.421 274.379 142.004 273.989 141.484 273.933C142.635 271.289 146.002 263.673 147.375 261.456C149.091 258.682 150.854 256.4 153.127 253.616C153.73 252.884 154.259 252.29 154.713 251.78C156.077 250.24 156.986 249.228 157.228 247.206C157.395 245.814 157.487 243.449 157.571 241.361C157.626 240.016 157.673 238.745 157.738 238.068C157.923 235.897 156.634 234.255 155.205 232.808C154.045 231.63 152.988 230.201 151.522 228.225L151.402 228.058C150.706 227.121 149.741 226.694 148.739 226.88C147.561 227.102 146.475 228.197 146.104 229.551C145.854 230.479 145.844 231.37 145.974 232.214C145.705 232.186 145.427 232.195 145.158 232.233C144.434 232.325 143.794 232.631 143.284 233.077C142.551 232.706 141.725 232.585 140.937 232.761C140.464 232.863 140.037 233.067 139.666 233.337C139.146 232.863 138.534 232.539 137.866 232.409C136.966 232.233 135.528 232.316 133.784 233.726C132.318 234.914 131.047 236.11 129.916 237.159C129.257 237.771 128.672 238.318 128.171 238.754C126.928 239.821 126.242 241.556 126.084 244.061C126.019 245.016 125.899 246.25 125.759 247.568C125.537 249.785 125.277 252.299 125.277 254.099V255.305C125.296 257.773 125.305 260.315 124.841 262.235C124.479 263.719 123.885 265.556 123.255 267.319C122.253 267.263 120.277 267.272 119.609 268.478C119.46 268.618 119.33 268.794 119.275 269.007L118.208 273.423C118.208 273.414 118.217 273.405 118.217 273.386C118.217 272.774 117.716 272.273 117.104 272.273C115.193 272.273 113.393 272.458 112.975 273.692C112.799 273.841 112.651 274.026 112.586 274.267L110.192 283.906C110.109 284.259 110.211 284.602 110.424 284.862H50.1134C49.7701 284.862 49.4547 285.02 49.2413 285.279C49.028 285.548 48.9538 285.892 49.028 286.226L66.5711 361.983C66.7103 362.586 67.3133 362.957 67.907 362.818C68.51 362.679 68.8811 362.085 68.7419 361.482L51.5142 287.088H148.368C148.6 288.137 149.027 290.094 149.611 292.71C149.62 292.85 149.639 292.97 149.694 293.1C151.383 300.754 154.259 313.76 157.135 326.776C159.38 336.916 161.634 347.056 163.332 354.654C164.185 358.458 164.89 361.621 165.401 363.848C165.651 364.961 165.855 365.833 165.994 366.427C166.236 367.447 166.412 368.199 167.256 368.199C167.312 368.199 167.367 368.199 167.432 368.189C167.637 368.171 167.822 368.087 167.971 367.976C170.466 367.123 195.644 363.096 212.223 360.554C212.835 360.462 213.252 359.896 213.15 359.283C213.048 358.68 212.482 358.272 211.879 358.356ZM145.446 234.431C145.965 234.357 146.475 234.57 146.846 234.997C147.718 236.444 148.09 237.483 148.09 238.439C148.09 239.636 147.978 241.102 147.82 241.918C147.7 242.567 147.162 243.226 146.652 243.365C146.55 243.393 146.271 243.458 145.872 243.133C146.067 242.159 145.993 241.222 145.928 240.461C145.789 238.819 145.538 236.871 144.741 234.737C144.926 234.589 145.167 234.468 145.446 234.431ZM139.842 243.922C140.853 242.948 141.085 241.5 141.169 240.09C141.262 238.671 141.308 237.02 140.844 235.266C140.974 235.099 141.169 234.979 141.401 234.932C141.79 234.849 142.208 234.979 142.57 235.266C143.349 237.252 143.599 239.107 143.72 240.665C143.85 242.243 143.859 243.337 142.792 244.228L142.44 244.516C141.642 245.183 140.297 246.306 139.926 246.12C139.712 246.018 139.1 245.722 138.942 244.571C139.286 244.376 139.601 244.163 139.842 243.922ZM127.003 262.764C127.531 260.584 127.513 257.893 127.504 255.296V254.099C127.504 252.41 127.754 249.961 127.977 247.8C128.116 246.464 128.246 245.202 128.301 244.209C128.422 242.345 128.849 241.111 129.619 240.452C130.147 239.998 130.76 239.432 131.437 238.792C132.541 237.762 133.784 236.593 135.185 235.461C136.038 234.774 136.809 234.468 137.439 234.598C138.005 234.71 138.386 235.164 138.627 235.572C139.081 237.103 139.044 238.578 138.961 239.96C138.877 241.278 138.692 241.964 138.311 242.326C137.894 242.725 136.827 243.207 136.113 243.17C135.018 243.152 134.656 242.864 134.378 242.345C134.341 242.27 134.332 242.224 134.332 242.215C134.35 242.159 134.619 241.881 135.482 241.816C136.066 241.769 136.521 241.278 136.512 240.693C136.502 240.109 136.048 239.626 135.454 239.589C135.037 239.571 134.322 239.459 134.257 238.968C134.183 238.355 133.626 237.919 133.014 238.003C132.402 238.077 131.975 238.634 132.049 239.246C132.124 239.812 132.337 240.304 132.68 240.693C132.56 240.833 132.458 240.981 132.365 241.139C131.984 241.834 132.003 242.66 132.411 243.402C133.357 245.128 134.944 245.36 136.057 245.378C136.085 245.378 136.103 245.378 136.131 245.378C136.354 245.378 136.586 245.35 136.827 245.313C137.124 246.612 137.857 247.596 138.979 248.124C139.016 248.143 139.054 248.152 139.1 248.161C136.614 250.137 134.545 252.661 134.48 255.435C134.461 256.047 134.953 256.557 135.565 256.576C135.575 256.576 135.584 256.576 135.593 256.576C136.196 256.576 136.688 256.093 136.706 255.49C136.799 251.631 143.247 247.651 146.512 246.464C146.93 246.315 147.19 245.935 147.236 245.517C147.245 245.517 147.245 245.517 147.255 245.517C148.609 245.146 149.75 243.838 150.028 242.326C150.195 241.417 150.288 240.174 150.316 239.135L151.457 240.499L150.483 238.086C150.613 237.975 150.724 237.845 150.789 237.669C150.975 237.196 151.337 236.806 151.68 236.695C152.264 236.509 152.589 235.878 152.403 235.294C152.218 234.71 151.587 234.385 151.003 234.57C150.492 234.728 150.028 235.044 149.63 235.442C149.398 234.932 149.119 234.394 148.767 233.819C148.117 232.186 147.969 231.138 148.257 230.099C148.405 229.542 148.85 229.088 149.147 229.032C149.286 229.013 149.435 229.115 149.611 229.347L149.732 229.514C151.253 231.565 152.348 233.049 153.619 234.338C155.094 235.841 155.613 236.788 155.521 237.845C155.456 238.569 155.409 239.812 155.354 241.241C155.27 243.291 155.177 245.62 155.029 246.918C154.871 248.245 154.342 248.839 153.062 250.277C152.589 250.805 152.051 251.418 151.42 252.188C149.082 255.045 147.282 257.392 145.501 260.268C143.831 262.968 139.657 272.579 139.109 273.822C135.259 273.497 128.107 272.291 124.349 270.807C125.286 268.33 126.427 265.148 127.003 262.764ZM122.429 269.545C122.401 269.629 122.364 269.722 122.336 269.805C122.216 269.722 122.104 269.638 122.011 269.573C122.132 269.555 122.271 269.545 122.429 269.545ZM120.945 271.54C121.26 271.763 121.612 271.994 122.021 272.217C125.899 274.342 136.187 275.984 140.269 276.132L139.536 278.962C135.445 278.665 125.138 277.635 119.841 276.123L120.945 271.54ZM117.095 274.509C117.54 274.509 117.92 274.24 118.096 273.868L117.735 275.362C116.974 275.037 116.408 274.759 116.009 274.536C116.297 274.527 116.649 274.509 117.095 274.509ZM141.262 284.871H112.122C112.224 284.751 112.308 284.611 112.345 284.454L114.395 276.188C115.091 276.624 116.046 277.088 117.299 277.607C122.754 279.871 138.265 281.132 140.417 281.253C140.733 281.272 141.03 281.281 141.308 281.281C141.651 281.281 141.967 281.262 142.245 281.244L141.234 284.092C141.141 284.352 141.16 284.63 141.262 284.871Z" fill="#475658"/>
<path d="M319.42 250.481C318.4 248.727 317.212 247.225 315.329 245.323L315.264 245.174C313.325 240.851 312.11 238.708 311.21 238.012C310.718 237.641 310.022 237.725 309.651 238.216C309.28 238.708 309.364 239.404 309.856 239.775C310.106 239.97 310.941 240.972 313.232 246.083L313.39 246.427C313.446 246.547 313.52 246.659 313.613 246.751C315.431 248.57 316.554 249.971 317.491 251.594C318.548 253.412 318.548 253.895 317.528 254.813C316.934 255.351 315.951 256.196 314.856 257.151C312.75 258.979 310.134 261.261 308.844 262.485C308.631 262.69 308.408 262.894 308.195 263.098C306.404 264.768 304.558 266.484 304.456 269.156C304.373 271.289 304.428 272.57 304.586 274.305C302.879 274.416 300.755 274.592 298.602 274.852C295.708 275.195 292.869 275.807 290.856 276.29C290.485 273.831 289.91 270.789 289.483 268.516L289.14 266.688C288.722 264.415 288.416 259.387 289.399 255.555C289.492 255.203 289.603 254.832 289.743 254.424C289.937 253.839 289.631 253.208 289.047 253.013C288.462 252.819 287.832 253.125 287.637 253.709C287.479 254.164 287.349 254.6 287.247 254.999C286.171 259.211 286.477 264.536 286.95 267.096L287.293 268.933C287.47 269.842 287.665 270.891 287.859 271.957C286.533 271.02 284.863 270.603 283.323 270.241L282.664 270.083C279.974 269.416 260.362 263.515 257.922 262.782L253.089 258.292C253.821 257.93 254.564 257.485 255.334 256.938C260.056 253.589 263.173 247.456 264.611 244.098C266.698 239.209 266.893 231.175 265.065 225.006C263.915 221.128 261.642 217.63 259.629 214.55C258.469 212.778 257.384 211.109 256.67 209.606C256.41 209.049 255.742 208.808 255.185 209.077C254.629 209.337 254.387 210.005 254.656 210.561C255.436 212.203 256.567 213.938 257.764 215.775C259.694 218.725 261.874 222.074 262.932 225.646C264.601 231.286 264.444 238.847 262.57 243.235C261.225 246.38 258.33 252.104 254.053 255.138C250.658 257.541 247.244 258.07 244.182 256.65C243.626 256.39 242.967 256.641 242.707 257.197C242.448 257.754 242.698 258.413 243.255 258.673C243.839 258.942 244.507 259.183 245.24 259.368C246.001 260.741 246.261 265.445 245.732 268.302C244.591 274.472 239.386 285.957 234.358 297.061C230.972 304.53 227.474 312.239 225.266 318.25C222.659 325.348 217.492 343.967 214.997 356.445C214.876 357.048 215.266 357.632 215.869 357.753C215.943 357.771 216.017 357.771 216.091 357.771C216.611 357.771 217.075 357.409 217.186 356.881C219.598 344.83 224.793 325.988 227.363 319.011C229.543 313.074 233.031 305.402 236.39 297.971C241.474 286.745 246.734 275.14 247.93 268.701C248.357 266.419 248.394 262.263 247.717 259.656H247.726C248.682 259.656 249.712 259.517 250.816 259.201L256.623 264.591C256.744 264.703 256.892 264.795 257.059 264.842C257.968 265.111 279.241 271.531 282.154 272.254L282.831 272.421C284.835 272.904 286.728 273.358 287.562 274.787C287.767 275.13 288.119 275.325 288.481 275.334C288.564 275.863 288.648 276.373 288.722 276.865C288.323 276.976 288.082 277.041 288.036 277.06C287.498 277.218 287.164 277.756 287.256 278.303L287.85 281.986C287.665 282.032 287.479 282.07 287.321 282.116C284.408 282.626 281.56 283.461 281.44 283.498C280.874 283.665 280.54 284.24 280.67 284.816C281.226 287.246 282.089 293.61 282.84 299.223C283.443 303.685 284.009 307.906 284.38 309.855C284.733 311.692 285.28 315.004 285.865 318.51C286.663 323.307 287.562 328.752 288.138 331.452C288.23 331.879 288.351 332.51 288.462 333.289C288.407 333.233 288.36 333.159 288.286 333.113C287.776 332.779 287.08 332.927 286.746 333.437C284.612 336.712 283.119 341.926 285.308 346.713C285.494 347.121 285.902 347.362 286.319 347.362C286.477 347.362 286.635 347.325 286.783 347.26C287.34 347 287.59 346.342 287.331 345.785C285.512 341.824 286.802 337.436 288.611 334.653C288.62 334.643 288.62 334.625 288.629 334.606C288.824 336.443 288.917 338.79 288.611 341.286C288.128 345.266 287.887 349.162 290.16 352.938C290.374 353.29 290.735 353.476 291.116 353.476C291.31 353.476 291.505 353.42 291.691 353.318C292.22 353.003 292.387 352.316 292.071 351.787C290.346 348.912 290.309 345.85 290.819 341.536C291.385 336.796 290.652 332.565 290.309 330.96C289.743 328.316 288.843 322.898 288.054 318.121C287.47 314.605 286.922 311.274 286.561 309.409C286.199 307.517 285.633 303.333 285.039 298.898C284.334 293.666 283.61 288.267 283.045 285.335C284.121 285.048 285.939 284.593 287.776 284.268C292.145 283.174 304.707 281.615 308.538 281.429C309.42 289.937 310.69 300.438 311.72 308.946L312.166 312.647C312.731 317.341 313.557 326.127 314.346 334.615C314.643 337.807 314.939 340.97 315.218 343.902C315.273 344.514 315.811 344.969 316.433 344.904C317.045 344.848 317.491 344.301 317.435 343.688C317.157 340.757 316.86 337.593 316.563 334.411C315.765 325.904 314.939 317.109 314.374 312.387L313.928 308.686C312.861 299.854 311.525 288.86 310.653 280.205C310.607 279.713 310.236 279.342 309.763 279.24L309.466 275.149C309.42 274.555 308.919 274.082 308.325 274.119C308.306 274.119 307.759 274.138 306.859 274.184C306.72 272.69 306.646 271.429 306.729 269.249C306.794 267.504 308.167 266.224 309.763 264.74C309.985 264.536 310.208 264.322 310.431 264.118C311.683 262.922 314.281 260.667 316.368 258.849C317.481 257.884 318.465 257.03 319.068 256.492C321.563 254.182 320.274 251.956 319.42 250.481ZM307.276 276.373L307.481 279.249C303.389 279.537 295.04 280.594 289.984 281.522L289.566 278.906C291.273 278.451 295.068 277.505 298.862 277.051C302.276 276.642 305.625 276.457 307.276 276.373Z" fill="#475658"/>
<path d="M289.882 251C290.03 251.075 290.197 251.102 290.355 251.102C290.772 251.102 291.171 250.861 291.366 250.462C292.99 246.983 295.095 243.282 296.339 241.417C296.543 241.111 296.738 240.814 296.923 240.517C296.747 241.083 296.626 241.677 296.589 242.308C295.838 243.263 295.513 244.924 295.179 246.946L295.142 247.169C294.854 248.904 294.938 250.592 295.04 251.863C295.114 252.809 295.68 253.589 296.506 253.895C296.71 253.969 296.979 254.034 297.303 254.034C297.971 254.034 298.89 253.756 299.938 252.717C301.654 251 301.896 249.405 301.923 248.291L301.97 248.254C302.211 248.041 302.452 247.809 302.693 247.577C303.705 248.848 305.402 250.119 307.128 250.119C307.74 250.119 308.241 249.618 308.241 249.006C308.241 248.393 307.74 247.892 307.128 247.892C306.005 247.892 304.475 246.501 304.029 245.601C304.011 245.573 303.992 245.555 303.974 245.527C304.029 245.017 303.742 244.516 303.232 244.358C302.647 244.163 302.016 244.488 301.831 245.072C301.682 245.527 301.042 246.093 300.486 246.603C300.337 246.733 300.198 246.863 300.059 246.983C299.827 247.197 299.697 247.494 299.697 247.8C299.697 248.746 299.697 249.813 298.352 251.149C297.721 251.78 297.331 251.835 297.285 251.835C297.276 251.826 297.257 251.78 297.248 251.696C297.155 250.546 297.081 249.034 297.331 247.54L297.368 247.317C297.526 246.334 297.916 244.033 298.37 243.653C298.407 243.625 298.435 243.588 298.463 243.56C298.472 243.551 298.491 243.551 298.5 243.532C299.196 242.79 300.235 241.667 300.866 241.5C301.608 241.306 303.12 241.695 304.345 242.001L304.966 242.159C305.746 242.354 306.84 242.864 307.907 243.365C308.445 243.616 308.983 243.875 309.484 244.089C309.624 244.154 309.772 244.182 309.92 244.182C310.356 244.182 310.765 243.931 310.941 243.504C311.182 242.938 310.922 242.289 310.356 242.039C309.874 241.834 309.364 241.593 308.844 241.352C307.685 240.805 306.479 240.239 305.486 239.998L304.874 239.849C303.25 239.432 301.571 239.005 300.281 239.348C300.272 239.348 300.272 239.357 300.263 239.357C300.448 239.218 300.634 239.088 300.847 238.986C302.545 238.216 305.838 238.513 307.137 238.875C307.722 239.042 308.343 238.708 308.51 238.114C308.677 237.521 308.334 236.908 307.75 236.741C307.193 236.584 306.237 236.407 305.143 236.324C305.152 236.259 305.171 236.194 305.171 236.12C304.966 233.494 304.15 231.917 302.758 231.435C301.682 231.054 300.467 231.453 299.502 232.502C298.556 233.522 297.647 235.044 296.598 236.797C295.94 237.901 295.253 239.042 294.483 240.202C293.194 242.131 291.023 245.954 289.353 249.535C289.084 250.073 289.325 250.741 289.882 251ZM301.135 233.995C301.497 233.606 301.859 233.466 302.035 233.522C302.285 233.615 302.814 234.301 302.963 236.277V236.287C301.886 236.352 300.819 236.546 299.929 236.955C299.382 237.214 298.899 237.567 298.482 237.975C298.491 237.957 298.5 237.938 298.519 237.919C299.493 236.268 300.346 234.849 301.135 233.995Z" fill="#475658"/>
<path d="M295.782 257.773C295.476 258.311 295.671 258.988 296.199 259.294C296.376 259.396 296.561 259.442 296.747 259.442C297.136 259.442 297.507 259.238 297.712 258.877C300.318 254.284 305.764 252.206 308.037 252.355C308.649 252.383 309.178 251.919 309.215 251.306C309.252 250.694 308.779 250.165 308.167 250.128C304.901 249.952 298.778 252.494 295.782 257.773Z" fill="#475658"/>
<rect x="93.5" y="50.5" width="183" height="67" rx="33.5" fill="white" stroke="#E0E0E0"/>
<path d="M133.549 71.988C133.549 72.7393 133.43 73.43 133.192 74.06C132.954 74.6853 132.618 75.2243 132.184 75.677C131.75 76.1297 131.227 76.482 130.616 76.734C130.009 76.9813 129.337 77.105 128.6 77.105C127.863 77.105 127.191 76.9813 126.584 76.734C125.977 76.482 125.457 76.1297 125.023 75.677C124.589 75.2243 124.253 74.6853 124.015 74.06C123.777 73.43 123.658 72.7393 123.658 71.988C123.658 71.2367 123.777 70.5483 124.015 69.923C124.253 69.293 124.589 68.7517 125.023 68.299C125.457 67.8417 125.977 67.487 126.584 67.235C127.191 66.983 127.863 66.857 128.6 66.857C129.337 66.857 130.009 66.983 130.616 67.235C131.227 67.487 131.75 67.8417 132.184 68.299C132.618 68.7517 132.954 69.293 133.192 69.923C133.43 70.5483 133.549 71.2367 133.549 71.988ZM132.156 71.988C132.156 71.372 132.072 70.819 131.904 70.329C131.736 69.839 131.498 69.426 131.19 69.09C130.882 68.7493 130.509 68.488 130.07 68.306C129.631 68.124 129.141 68.033 128.6 68.033C128.063 68.033 127.576 68.124 127.137 68.306C126.698 68.488 126.323 68.7493 126.01 69.09C125.702 69.426 125.464 69.839 125.296 70.329C125.128 70.819 125.044 71.372 125.044 71.988C125.044 72.604 125.128 73.157 125.296 73.647C125.464 74.1323 125.702 74.5453 126.01 74.886C126.323 75.222 126.698 75.481 127.137 75.663C127.576 75.8403 128.063 75.929 128.6 75.929C129.141 75.929 129.631 75.8403 130.07 75.663C130.509 75.481 130.882 75.222 131.19 74.886C131.498 74.5453 131.736 74.1323 131.904 73.647C132.072 73.157 132.156 72.604 132.156 71.988ZM141.092 70.861H138.369V77H137.123V70.861H134.4V69.909H141.092V70.861ZM147.799 77H146.553V70.889H144.313C144.257 71.7897 144.173 72.569 144.061 73.227C143.949 73.8803 143.813 74.438 143.655 74.9C143.501 75.3573 143.326 75.7307 143.13 76.02C142.938 76.3047 142.735 76.5263 142.521 76.685C142.311 76.8437 142.091 76.951 141.863 77.007C141.639 77.063 141.415 77.091 141.191 77.091C140.794 77.091 140.596 77.028 140.596 76.902V76.111H140.96C141.118 76.111 141.279 76.083 141.443 76.027C141.606 75.971 141.765 75.8637 141.919 75.705C142.077 75.5463 142.229 75.3247 142.374 75.04C142.518 74.7507 142.649 74.3773 142.766 73.92C142.887 73.458 142.99 72.9003 143.074 72.247C143.162 71.589 143.23 70.8097 143.277 69.909H147.799V77ZM155.855 69.909V77H154.609V72.184C154.609 72.0907 154.614 71.9903 154.623 71.883C154.632 71.7757 154.644 71.6683 154.658 71.561C154.616 71.6543 154.574 71.7407 154.532 71.82C154.49 71.8993 154.446 71.9717 154.399 72.037L150.976 76.692C150.925 76.7667 150.859 76.839 150.78 76.909C150.705 76.9743 150.621 77.007 150.528 77.007H149.772V69.916H151.025V74.732C151.025 74.8207 151.02 74.9187 151.011 75.026C151.002 75.1287 150.99 75.2337 150.976 75.341C151.018 75.2523 151.06 75.1707 151.102 75.096C151.144 75.0167 151.186 74.9443 151.228 74.879L154.651 70.224C154.702 70.1493 154.768 70.0793 154.847 70.014C154.926 69.944 155.013 69.909 155.106 69.909H155.855ZM163.054 69.909V77H161.808V73.99C161.201 74.1487 160.63 74.249 160.093 74.291C159.561 74.3283 159.094 74.2863 158.693 74.165C158.296 74.0437 157.981 73.8313 157.748 73.528C157.519 73.22 157.405 72.7953 157.405 72.254V69.909H158.658V72.065C158.658 72.4057 158.726 72.674 158.861 72.87C159.001 73.066 159.204 73.2013 159.47 73.276C159.736 73.3507 160.065 73.3717 160.457 73.339C160.849 73.3063 161.299 73.2293 161.808 73.108V69.909H163.054ZM170.938 69.909V77H169.685V73.682H166.283V77H165.03V69.909H166.283V72.737H169.685V69.909H170.938ZM175.908 69.797C176.426 69.797 176.892 69.8833 177.308 70.056C177.723 70.2287 178.078 70.4737 178.372 70.791C178.666 71.1083 178.89 71.4933 179.044 71.946C179.202 72.394 179.282 72.8957 179.282 73.451C179.282 74.011 179.202 74.515 179.044 74.963C178.89 75.411 178.666 75.7937 178.372 76.111C178.078 76.4283 177.723 76.6733 177.308 76.846C176.892 77.014 176.426 77.098 175.908 77.098C175.385 77.098 174.914 77.014 174.494 76.846C174.078 76.6733 173.724 76.4283 173.43 76.111C173.136 75.7937 172.909 75.411 172.751 74.963C172.597 74.515 172.52 74.011 172.52 73.451C172.52 72.8957 172.597 72.394 172.751 71.946C172.909 71.4933 173.136 71.1083 173.43 70.791C173.724 70.4737 174.078 70.2287 174.494 70.056C174.914 69.8833 175.385 69.797 175.908 69.797ZM175.908 76.125C176.608 76.125 177.13 75.8917 177.476 75.425C177.821 74.9537 177.994 74.298 177.994 73.458C177.994 72.6133 177.821 71.9553 177.476 71.484C177.13 71.0127 176.608 70.777 175.908 70.777C175.553 70.777 175.243 70.8377 174.977 70.959C174.715 71.0803 174.496 71.2553 174.319 71.484C174.146 71.7127 174.015 71.995 173.927 72.331C173.843 72.6623 173.801 73.038 173.801 73.458C173.801 74.298 173.973 74.9537 174.319 75.425C174.669 75.8917 175.198 76.125 175.908 76.125ZM182.36 66.969V70.973C182.36 71.183 182.355 71.3883 182.346 71.589C182.337 71.7897 182.325 71.9927 182.311 72.198C182.297 72.3987 182.278 72.6063 182.255 72.821C182.236 73.031 182.213 73.2573 182.185 73.5H181.345C181.317 73.2573 181.291 73.031 181.268 72.821C181.249 72.6063 181.233 72.3987 181.219 72.198C181.205 71.9927 181.193 71.7897 181.184 71.589C181.175 71.3883 181.17 71.183 181.17 70.973V66.969H182.36ZM180.869 76.23C180.869 76.1087 180.89 75.9943 180.932 75.887C180.979 75.7797 181.042 75.6863 181.121 75.607C181.2 75.5277 181.291 75.4647 181.394 75.418C181.501 75.3713 181.618 75.348 181.744 75.348C181.865 75.348 181.977 75.3713 182.08 75.418C182.187 75.4647 182.281 75.5277 182.36 75.607C182.439 75.6863 182.502 75.7797 182.549 75.887C182.596 75.9943 182.619 76.1087 182.619 76.23C182.619 76.356 182.596 76.4727 182.549 76.58C182.502 76.6827 182.439 76.7737 182.36 76.853C182.281 76.9323 182.187 76.993 182.08 77.035C181.977 77.0817 181.865 77.105 181.744 77.105C181.618 77.105 181.501 77.0817 181.394 77.035C181.291 76.993 181.2 76.9323 181.121 76.853C181.042 76.7737 180.979 76.6827 180.932 76.58C180.89 76.4727 180.869 76.356 180.869 76.23ZM195.281 68.11H192.033V77H190.682V68.11H187.427V66.969H195.281V68.11ZM199.512 72.681C199.512 72.3917 199.47 72.128 199.386 71.89C199.307 71.6473 199.188 71.4397 199.029 71.267C198.875 71.0897 198.686 70.9543 198.462 70.861C198.238 70.763 197.984 70.714 197.699 70.714C197.102 70.714 196.628 70.889 196.278 71.239C195.933 71.5843 195.718 72.065 195.634 72.681H199.512ZM200.52 76.006C200.366 76.1927 200.182 76.356 199.967 76.496C199.753 76.6313 199.522 76.7433 199.274 76.832C199.032 76.9207 198.78 76.986 198.518 77.028C198.257 77.0747 197.998 77.098 197.741 77.098C197.251 77.098 196.799 77.0163 196.383 76.853C195.973 76.685 195.616 76.4423 195.312 76.125C195.014 75.803 194.78 75.4063 194.612 74.935C194.444 74.4637 194.36 73.9223 194.36 73.311C194.36 72.8163 194.435 72.3543 194.584 71.925C194.738 71.4957 194.958 71.1247 195.242 70.812C195.527 70.4947 195.875 70.2473 196.285 70.07C196.696 69.888 197.158 69.797 197.671 69.797C198.096 69.797 198.488 69.8693 198.847 70.014C199.211 70.154 199.524 70.3593 199.785 70.63C200.051 70.896 200.259 71.2273 200.408 71.624C200.558 72.016 200.632 72.464 200.632 72.968C200.632 73.164 200.611 73.2947 200.569 73.36C200.527 73.4253 200.448 73.458 200.331 73.458H195.592C195.606 73.906 195.667 74.2957 195.774 74.627C195.886 74.9583 196.04 75.236 196.236 75.46C196.432 75.6793 196.666 75.845 196.936 75.957C197.207 76.0643 197.51 76.118 197.846 76.118C198.159 76.118 198.427 76.083 198.651 76.013C198.88 75.9383 199.076 75.859 199.239 75.775C199.403 75.691 199.538 75.614 199.645 75.544C199.757 75.4693 199.853 75.432 199.932 75.432C200.035 75.432 200.114 75.4717 200.17 75.551L200.52 76.006ZM208.071 77H206.818V70.861H203.416V77H202.163V69.909H208.071V77ZM214.797 72.681C214.797 72.3917 214.755 72.128 214.671 71.89C214.592 71.6473 214.473 71.4397 214.314 71.267C214.16 71.0897 213.971 70.9543 213.747 70.861C213.523 70.763 213.269 70.714 212.984 70.714C212.387 70.714 211.913 70.889 211.563 71.239C211.218 71.5843 211.003 72.065 210.919 72.681H214.797ZM215.805 76.006C215.651 76.1927 215.467 76.356 215.252 76.496C215.038 76.6313 214.807 76.7433 214.559 76.832C214.317 76.9207 214.065 76.986 213.803 77.028C213.542 77.0747 213.283 77.098 213.026 77.098C212.536 77.098 212.084 77.0163 211.668 76.853C211.258 76.685 210.901 76.4423 210.597 76.125C210.299 75.803 210.065 75.4063 209.897 74.935C209.729 74.4637 209.645 73.9223 209.645 73.311C209.645 72.8163 209.72 72.3543 209.869 71.925C210.023 71.4957 210.243 71.1247 210.527 70.812C210.812 70.4947 211.16 70.2473 211.57 70.07C211.981 69.888 212.443 69.797 212.956 69.797C213.381 69.797 213.773 69.8693 214.132 70.014C214.496 70.154 214.809 70.3593 215.07 70.63C215.336 70.896 215.544 71.2273 215.693 71.624C215.843 72.016 215.917 72.464 215.917 72.968C215.917 73.164 215.896 73.2947 215.854 73.36C215.812 73.4253 215.733 73.458 215.616 73.458H210.877C210.891 73.906 210.952 74.2957 211.059 74.627C211.171 74.9583 211.325 75.236 211.521 75.46C211.717 75.6793 211.951 75.845 212.221 75.957C212.492 76.0643 212.795 76.118 213.131 76.118C213.444 76.118 213.712 76.083 213.936 76.013C214.165 75.9383 214.361 75.859 214.524 75.775C214.688 75.691 214.823 75.614 214.93 75.544C215.042 75.4693 215.138 75.432 215.217 75.432C215.32 75.432 215.399 75.4717 215.455 75.551L215.805 76.006ZM218.701 75.292C218.93 75.6 219.179 75.817 219.45 75.943C219.721 76.069 220.024 76.132 220.36 76.132C221.023 76.132 221.531 75.8963 221.886 75.425C222.241 74.9537 222.418 74.2817 222.418 73.409C222.418 72.947 222.376 72.5503 222.292 72.219C222.213 71.8877 222.096 71.617 221.942 71.407C221.788 71.1923 221.599 71.036 221.375 70.938C221.151 70.84 220.897 70.791 220.612 70.791C220.206 70.791 219.849 70.8843 219.541 71.071C219.238 71.2577 218.958 71.5213 218.701 71.862V75.292ZM218.638 71.008C218.937 70.6393 219.282 70.343 219.674 70.119C220.066 69.895 220.514 69.783 221.018 69.783C221.429 69.783 221.8 69.8623 222.131 70.021C222.462 70.175 222.745 70.406 222.978 70.714C223.211 71.0173 223.391 71.3953 223.517 71.848C223.643 72.3007 223.706 72.821 223.706 73.409C223.706 73.9317 223.636 74.4193 223.496 74.872C223.356 75.32 223.153 75.7097 222.887 76.041C222.626 76.3677 222.304 76.6267 221.921 76.818C221.543 77.0047 221.116 77.098 220.64 77.098C220.206 77.098 219.833 77.0257 219.52 76.881C219.212 76.7317 218.939 76.5263 218.701 76.265V79.401H217.448V69.909H218.197C218.374 69.909 218.484 69.9953 218.526 70.168L218.638 71.008ZM228.005 76.09C228.257 76.09 228.474 76.0597 228.656 75.999C228.843 75.9337 228.997 75.845 229.118 75.733C229.239 75.6163 229.33 75.481 229.391 75.327C229.452 75.173 229.482 75.005 229.482 74.823C229.482 74.655 229.456 74.4987 229.405 74.354C229.354 74.2047 229.267 74.074 229.146 73.962C229.029 73.85 228.875 73.7613 228.684 73.696C228.493 73.6307 228.259 73.598 227.984 73.598H226.479V76.09H228.005ZM227.984 72.688C228.474 72.688 228.885 72.7463 229.216 72.863C229.552 72.9797 229.82 73.136 230.021 73.332C230.226 73.528 230.373 73.7543 230.462 74.011C230.551 74.2677 230.595 74.5337 230.595 74.809C230.595 75.1263 230.539 75.4203 230.427 75.691C230.315 75.957 230.149 76.188 229.93 76.384C229.711 76.5753 229.44 76.727 229.118 76.839C228.796 76.9463 228.425 77 228.005 77H225.282V69.909H226.479V72.688H227.984ZM127.718 94.22V91.749H126.528C126.262 91.749 126.038 91.7887 125.856 91.868C125.674 91.9427 125.527 92.0407 125.415 92.162C125.308 92.2787 125.231 92.4117 125.184 92.561C125.137 92.7057 125.114 92.8503 125.114 92.995C125.114 93.3777 125.254 93.6787 125.534 93.898C125.814 94.1127 126.197 94.22 126.682 94.22H127.718ZM128.908 90.909V98H127.718V95.011H127.172C127.041 95.011 126.932 95.0227 126.843 95.046C126.759 95.0647 126.684 95.0927 126.619 95.13C126.558 95.1673 126.505 95.2163 126.458 95.277C126.411 95.333 126.362 95.3983 126.311 95.473L124.757 97.566C124.678 97.7153 124.58 97.825 124.463 97.895C124.351 97.965 124.185 98 123.966 98H123.098L125.156 95.326C125.324 95.046 125.546 94.8593 125.821 94.766C125.462 94.7193 125.158 94.6353 124.911 94.514C124.664 94.3927 124.461 94.2503 124.302 94.087C124.148 93.919 124.036 93.7347 123.966 93.534C123.896 93.3333 123.861 93.1303 123.861 92.925C123.861 92.6823 123.908 92.4397 124.001 92.197C124.099 91.9543 124.253 91.7397 124.463 91.553C124.673 91.3617 124.944 91.2077 125.275 91.091C125.611 90.9697 126.017 90.909 126.493 90.909H128.908ZM134.025 91.637C134.291 91.385 134.613 91.182 134.991 91.028C135.374 90.874 135.834 90.797 136.37 90.797C136.8 90.797 137.178 90.8507 137.504 90.958C137.831 91.0607 138.104 91.1983 138.323 91.371C138.547 91.5437 138.715 91.742 138.827 91.966C138.944 92.1853 139.002 92.414 139.002 92.652C139.002 92.792 138.979 92.939 138.932 93.093C138.89 93.247 138.818 93.394 138.715 93.534C138.613 93.674 138.48 93.8047 138.316 93.926C138.153 94.0473 137.95 94.1453 137.707 94.22C138.16 94.3553 138.515 94.5723 138.771 94.871C139.033 95.1697 139.163 95.536 139.163 95.97C139.163 96.2967 139.089 96.593 138.939 96.859C138.79 97.1203 138.589 97.3443 138.337 97.531C138.085 97.713 137.791 97.853 137.455 97.951C137.124 98.049 136.776 98.098 136.412 98.098C136.184 98.098 135.95 98.077 135.712 98.035C135.479 97.993 135.25 97.9277 135.026 97.839C134.802 97.7457 134.59 97.6313 134.389 97.496C134.193 97.3607 134.018 97.1973 133.864 97.006L134.214 96.551C134.27 96.4717 134.35 96.432 134.452 96.432C134.536 96.432 134.625 96.4693 134.718 96.544C134.816 96.614 134.935 96.6933 135.075 96.782C135.215 96.8707 135.386 96.9523 135.586 97.027C135.792 97.097 136.041 97.132 136.335 97.132C136.592 97.132 136.821 97.1017 137.021 97.041C137.227 96.9757 137.399 96.887 137.539 96.775C137.679 96.663 137.787 96.53 137.861 96.376C137.936 96.222 137.973 96.054 137.973 95.872C137.973 95.522 137.826 95.2397 137.532 95.025C137.243 94.8103 136.802 94.703 136.209 94.703H135.404V93.877H136.209C136.466 93.877 136.697 93.8513 136.902 93.8C137.108 93.744 137.283 93.6693 137.427 93.576C137.572 93.4827 137.682 93.3707 137.756 93.24C137.831 93.1047 137.868 92.96 137.868 92.806C137.868 92.666 137.836 92.533 137.77 92.407C137.71 92.281 137.614 92.1713 137.483 92.078C137.357 91.9847 137.199 91.91 137.007 91.854C136.816 91.798 136.592 91.77 136.335 91.77C136.055 91.77 135.817 91.798 135.621 91.854C135.43 91.91 135.267 91.9707 135.131 92.036C135.001 92.1013 134.893 92.162 134.809 92.218C134.725 92.274 134.653 92.302 134.592 92.302C134.532 92.302 134.48 92.2903 134.438 92.267C134.401 92.2437 134.359 92.1947 134.312 92.12L134.025 91.637ZM146.67 90.909V98H145.417V94.682H142.015V98H140.762V90.909H142.015V93.737H145.417V90.909H146.67ZM152.494 94.808C151.92 94.8267 151.43 94.8733 151.024 94.948C150.623 95.018 150.294 95.1113 150.037 95.228C149.785 95.3447 149.601 95.4823 149.484 95.641C149.372 95.7997 149.316 95.977 149.316 96.173C149.316 96.3597 149.346 96.5207 149.407 96.656C149.468 96.7913 149.549 96.9033 149.652 96.992C149.759 97.076 149.883 97.139 150.023 97.181C150.168 97.2183 150.322 97.237 150.485 97.237C150.704 97.237 150.905 97.216 151.087 97.174C151.269 97.1273 151.439 97.062 151.598 96.978C151.761 96.894 151.915 96.7937 152.06 96.677C152.209 96.5603 152.354 96.4273 152.494 96.278V94.808ZM148.469 91.91C148.861 91.532 149.283 91.2497 149.736 91.063C150.189 90.8763 150.69 90.783 151.241 90.783C151.638 90.783 151.99 90.8483 152.298 90.979C152.606 91.1097 152.865 91.2917 153.075 91.525C153.285 91.7583 153.444 92.0407 153.551 92.372C153.658 92.7033 153.712 93.0673 153.712 93.464V98H153.159C153.038 98 152.944 97.9813 152.879 97.944C152.814 97.902 152.762 97.8227 152.725 97.706L152.585 97.034C152.398 97.2067 152.216 97.3607 152.039 97.496C151.862 97.6267 151.675 97.7387 151.479 97.832C151.283 97.9207 151.073 97.9883 150.849 98.035C150.63 98.0863 150.385 98.112 150.114 98.112C149.839 98.112 149.58 98.0747 149.337 98C149.094 97.9207 148.882 97.804 148.7 97.65C148.523 97.496 148.38 97.3023 148.273 97.069C148.17 96.831 148.119 96.551 148.119 96.229C148.119 95.949 148.196 95.6807 148.35 95.424C148.504 95.1627 148.754 94.9317 149.099 94.731C149.444 94.5303 149.895 94.367 150.45 94.241C151.005 94.1103 151.687 94.0357 152.494 94.017V93.464C152.494 92.9133 152.375 92.498 152.137 92.218C151.899 91.9333 151.551 91.791 151.094 91.791C150.786 91.791 150.527 91.8307 150.317 91.91C150.112 91.9847 149.932 92.071 149.778 92.169C149.629 92.2623 149.498 92.3487 149.386 92.428C149.279 92.5027 149.171 92.54 149.064 92.54C148.98 92.54 148.908 92.519 148.847 92.477C148.786 92.4303 148.735 92.3743 148.693 92.309L148.469 91.91ZM161.756 97.125C162.409 97.125 162.897 96.8917 163.219 96.425C163.541 95.9537 163.702 95.298 163.702 94.458C163.702 93.6133 163.541 92.9553 163.219 92.484C162.897 92.0127 162.409 91.777 161.756 91.777C161.103 91.777 160.615 92.0127 160.293 92.484C159.971 92.9553 159.81 93.6133 159.81 94.458C159.81 95.298 159.971 95.9537 160.293 96.425C160.615 96.8917 161.103 97.125 161.756 97.125ZM158.585 93.968C158.627 93.4827 158.727 93.044 158.886 92.652C159.049 92.26 159.266 91.9263 159.537 91.651C159.812 91.3757 160.134 91.1657 160.503 91.021C160.876 90.8717 161.294 90.797 161.756 90.797C162.251 90.797 162.696 90.8833 163.093 91.056C163.494 91.2287 163.835 91.4737 164.115 91.791C164.395 92.1083 164.61 92.4933 164.759 92.946C164.913 93.394 164.99 93.8957 164.99 94.451C164.99 95.011 164.913 95.515 164.759 95.963C164.605 96.411 164.386 96.7937 164.101 97.111C163.816 97.4283 163.476 97.6733 163.079 97.846C162.682 98.014 162.241 98.098 161.756 98.098C161.285 98.098 160.86 98.0233 160.482 97.874C160.109 97.7247 159.787 97.5123 159.516 97.237C159.245 96.957 159.028 96.6187 158.865 96.222C158.706 95.8253 158.611 95.3773 158.578 94.878H156.863V98H155.61V90.909H156.863V93.968H158.585ZM166.484 99.694C166.447 99.6613 166.421 99.631 166.407 99.603C166.393 99.575 166.386 99.54 166.386 99.498C166.386 99.4653 166.396 99.4327 166.414 99.4C166.438 99.3673 166.463 99.337 166.491 99.309C166.538 99.2577 166.596 99.19 166.666 99.106C166.741 99.022 166.816 98.9217 166.89 98.805C166.965 98.693 167.033 98.567 167.093 98.427C167.159 98.2917 167.205 98.147 167.233 97.993C167.219 97.9977 167.203 98 167.184 98C167.17 98 167.156 98 167.142 98C166.9 98 166.701 97.9207 166.547 97.762C166.398 97.5987 166.323 97.391 166.323 97.139C166.323 96.9197 166.398 96.733 166.547 96.579C166.701 96.425 166.904 96.348 167.156 96.348C167.296 96.348 167.42 96.3737 167.527 96.425C167.635 96.4763 167.723 96.5487 167.793 96.642C167.868 96.7307 167.924 96.8357 167.961 96.957C167.999 97.0737 168.017 97.202 168.017 97.342C168.017 97.552 167.987 97.7713 167.926 98C167.87 98.224 167.784 98.4457 167.667 98.665C167.555 98.889 167.418 99.106 167.254 99.316C167.091 99.526 166.904 99.7197 166.694 99.897L166.484 99.694ZM178.544 90.909V98H177.298V94.99C176.691 95.1487 176.12 95.249 175.583 95.291C175.051 95.3283 174.584 95.2863 174.183 95.165C173.786 95.0437 173.471 94.8313 173.238 94.528C173.009 94.22 172.895 93.7953 172.895 93.254V90.909H174.148V93.065C174.148 93.4057 174.216 93.674 174.351 93.87C174.491 94.066 174.694 94.2013 174.96 94.276C175.226 94.3507 175.555 94.3717 175.947 94.339C176.339 94.3063 176.789 94.2293 177.298 94.108V90.909H178.544ZM186.414 91.861H183.691V98H182.445V91.861H179.722V90.909H186.414V91.861ZM190.304 90.797C190.822 90.797 191.289 90.8833 191.704 91.056C192.119 91.2287 192.474 91.4737 192.768 91.791C193.062 92.1083 193.286 92.4933 193.44 92.946C193.599 93.394 193.678 93.8957 193.678 94.451C193.678 95.011 193.599 95.515 193.44 95.963C193.286 96.411 193.062 96.7937 192.768 97.111C192.474 97.4283 192.119 97.6733 191.704 97.846C191.289 98.014 190.822 98.098 190.304 98.098C189.781 98.098 189.31 98.014 188.89 97.846C188.475 97.6733 188.12 97.4283 187.826 97.111C187.532 96.7937 187.306 96.411 187.147 95.963C186.993 95.515 186.916 95.011 186.916 94.451C186.916 93.8957 186.993 93.394 187.147 92.946C187.306 92.4933 187.532 92.1083 187.826 91.791C188.12 91.4737 188.475 91.2287 188.89 91.056C189.31 90.8833 189.781 90.797 190.304 90.797ZM190.304 97.125C191.004 97.125 191.527 96.8917 191.872 96.425C192.217 95.9537 192.39 95.298 192.39 94.458C192.39 93.6133 192.217 92.9553 191.872 92.484C191.527 92.0127 191.004 91.777 190.304 91.777C189.949 91.777 189.639 91.8377 189.373 91.959C189.112 92.0803 188.892 92.2553 188.715 92.484C188.542 92.7127 188.412 92.995 188.323 93.331C188.239 93.6623 188.197 94.038 188.197 94.458C188.197 95.298 188.37 95.9537 188.715 96.425C189.065 96.8917 189.595 97.125 190.304 97.125ZM203.727 97.09V91.889H201.48C201.433 92.617 201.368 93.261 201.284 93.821C201.2 94.381 201.102 94.8733 200.99 95.298C200.882 95.718 200.761 96.075 200.626 96.369C200.495 96.663 200.357 96.9033 200.213 97.09H203.727ZM206.233 97.055V100.058C206.233 100.179 206.198 100.273 206.128 100.338C206.062 100.408 205.976 100.443 205.869 100.443H205.106V98H199.142V100.086C199.142 100.175 199.114 100.256 199.058 100.331C199.006 100.406 198.92 100.443 198.799 100.443H198.015V97.09H198.246C198.409 97.09 198.57 97.062 198.729 97.006C198.892 96.95 199.048 96.845 199.198 96.691C199.347 96.5323 199.487 96.3107 199.618 96.026C199.753 95.7413 199.874 95.3703 199.982 94.913C200.089 94.4557 200.182 93.9003 200.262 93.247C200.341 92.589 200.404 91.8097 200.451 90.909H204.938V97.055H206.233ZM212.118 93.681C212.118 93.3917 212.076 93.128 211.992 92.89C211.912 92.6473 211.793 92.4397 211.635 92.267C211.481 92.0897 211.292 91.9543 211.068 91.861C210.844 91.763 210.589 91.714 210.305 91.714C209.707 91.714 209.234 91.889 208.884 92.239C208.538 92.5843 208.324 93.065 208.24 93.681H212.118ZM213.126 97.006C212.972 97.1927 212.787 97.356 212.573 97.496C212.358 97.6313 212.127 97.7433 211.88 97.832C211.637 97.9207 211.385 97.986 211.124 98.028C210.862 98.0747 210.603 98.098 210.347 98.098C209.857 98.098 209.404 98.0163 208.989 97.853C208.578 97.685 208.221 97.4423 207.918 97.125C207.619 96.803 207.386 96.4063 207.218 95.935C207.05 95.4637 206.966 94.9223 206.966 94.311C206.966 93.8163 207.04 93.3543 207.19 92.925C207.344 92.4957 207.563 92.1247 207.848 91.812C208.132 91.4947 208.48 91.2473 208.891 91.07C209.301 90.888 209.763 90.797 210.277 90.797C210.701 90.797 211.093 90.8693 211.453 91.014C211.817 91.154 212.129 91.3593 212.391 91.63C212.657 91.896 212.864 92.2273 213.014 92.624C213.163 93.016 213.238 93.464 213.238 93.968C213.238 94.164 213.217 94.2947 213.175 94.36C213.133 94.4253 213.053 94.458 212.937 94.458H208.198C208.212 94.906 208.272 95.2957 208.38 95.627C208.492 95.9583 208.646 96.236 208.842 96.46C209.038 96.6793 209.271 96.845 209.542 96.957C209.812 97.0643 210.116 97.118 210.452 97.118C210.764 97.118 211.033 97.083 211.257 97.013C211.485 96.9383 211.681 96.859 211.845 96.775C212.008 96.691 212.143 96.614 212.251 96.544C212.363 96.4693 212.458 96.432 212.538 96.432C212.64 96.432 212.72 96.4717 212.776 96.551L213.126 97.006ZM220.984 98H219.738V91.889H217.498C217.442 92.7897 217.358 93.569 217.246 94.227C217.134 94.8803 216.999 95.438 216.84 95.9C216.686 96.3573 216.511 96.7307 216.315 97.02C216.124 97.3047 215.921 97.5263 215.706 97.685C215.496 97.8437 215.277 97.951 215.048 98.007C214.824 98.063 214.6 98.091 214.376 98.091C213.98 98.091 213.781 98.028 213.781 97.902V97.111H214.145C214.304 97.111 214.465 97.083 214.628 97.027C214.792 96.971 214.95 96.8637 215.104 96.705C215.263 96.5463 215.415 96.3247 215.559 96.04C215.704 95.7507 215.835 95.3773 215.951 94.92C216.073 94.458 216.175 93.9003 216.259 93.247C216.348 92.589 216.416 91.8097 216.462 90.909H220.984V98ZM226.801 94.808C226.227 94.8267 225.737 94.8733 225.331 94.948C224.929 95.018 224.6 95.1113 224.344 95.228C224.092 95.3447 223.907 95.4823 223.791 95.641C223.679 95.7997 223.623 95.977 223.623 96.173C223.623 96.3597 223.653 96.5207 223.714 96.656C223.774 96.7913 223.856 96.9033 223.959 96.992C224.066 97.076 224.19 97.139 224.33 97.181C224.474 97.2183 224.628 97.237 224.792 97.237C225.011 97.237 225.212 97.216 225.394 97.174C225.576 97.1273 225.746 97.062 225.905 96.978C226.068 96.894 226.222 96.7937 226.367 96.677C226.516 96.5603 226.661 96.4273 226.801 96.278V94.808ZM222.776 91.91C223.168 91.532 223.59 91.2497 224.043 91.063C224.495 90.8763 224.997 90.783 225.548 90.783C225.944 90.783 226.297 90.8483 226.605 90.979C226.913 91.1097 227.172 91.2917 227.382 91.525C227.592 91.7583 227.75 92.0407 227.858 92.372C227.965 92.7033 228.019 93.0673 228.019 93.464V98H227.466C227.344 98 227.251 97.9813 227.186 97.944C227.12 97.902 227.069 97.8227 227.032 97.706L226.892 97.034C226.705 97.2067 226.523 97.3607 226.346 97.496C226.168 97.6267 225.982 97.7387 225.786 97.832C225.59 97.9207 225.38 97.9883 225.156 98.035C224.936 98.0863 224.691 98.112 224.421 98.112C224.145 98.112 223.886 98.0747 223.644 98C223.401 97.9207 223.189 97.804 223.007 97.65C222.829 97.496 222.687 97.3023 222.58 97.069C222.477 96.831 222.426 96.551 222.426 96.229C222.426 95.949 222.503 95.6807 222.657 95.424C222.811 95.1627 223.06 94.9317 223.406 94.731C223.751 94.5303 224.201 94.367 224.757 94.241C225.312 94.1103 225.993 94.0357 226.801 94.017V93.464C226.801 92.9133 226.682 92.498 226.444 92.218C226.206 91.9333 225.858 91.791 225.401 91.791C225.093 91.791 224.834 91.8307 224.624 91.91C224.418 91.9847 224.239 92.071 224.085 92.169C223.935 92.2623 223.805 92.3487 223.693 92.428C223.585 92.5027 223.478 92.54 223.371 92.54C223.287 92.54 223.214 92.519 223.154 92.477C223.093 92.4303 223.042 92.3743 223 92.309L222.776 91.91ZM235.633 91.861H232.91V98H231.664V91.861H228.941V90.909H235.633V91.861ZM239.544 97.09C239.796 97.09 240.013 97.0597 240.195 96.999C240.382 96.9337 240.536 96.845 240.657 96.733C240.778 96.6163 240.869 96.481 240.93 96.327C240.991 96.173 241.021 96.005 241.021 95.823C241.021 95.655 240.995 95.4987 240.944 95.354C240.893 95.2047 240.806 95.074 240.685 94.962C240.568 94.85 240.414 94.7613 240.223 94.696C240.032 94.6307 239.798 94.598 239.523 94.598H238.018V97.09H239.544ZM239.523 93.688C240.013 93.688 240.424 93.7463 240.755 93.863C241.091 93.9797 241.359 94.136 241.56 94.332C241.765 94.528 241.912 94.7543 242.001 95.011C242.09 95.2677 242.134 95.5337 242.134 95.809C242.134 96.1263 242.078 96.4203 241.966 96.691C241.854 96.957 241.688 97.188 241.469 97.384C241.25 97.5753 240.979 97.727 240.657 97.839C240.335 97.9463 239.964 98 239.544 98H236.821V90.909H238.018V93.688H239.523ZM245.018 87.969V91.973C245.018 92.183 245.014 92.3883 245.004 92.589C244.995 92.7897 244.983 92.9927 244.969 93.198C244.955 93.3987 244.937 93.6063 244.913 93.821C244.895 94.031 244.871 94.2573 244.843 94.5H244.003C243.975 94.2573 243.95 94.031 243.926 93.821C243.908 93.6063 243.891 93.3987 243.877 93.198C243.863 92.9927 243.852 92.7897 243.842 92.589C243.833 92.3883 243.828 92.183 243.828 91.973V87.969H245.018ZM243.527 97.23C243.527 97.1087 243.548 96.9943 243.59 96.887C243.637 96.7797 243.7 96.6863 243.779 96.607C243.859 96.5277 243.95 96.4647 244.052 96.418C244.16 96.3713 244.276 96.348 244.402 96.348C244.524 96.348 244.636 96.3713 244.738 96.418C244.846 96.4647 244.939 96.5277 245.018 96.607C245.098 96.6863 245.161 96.7797 245.207 96.887C245.254 96.9943 245.277 97.1087 245.277 97.23C245.277 97.356 245.254 97.4727 245.207 97.58C245.161 97.6827 245.098 97.7737 245.018 97.853C244.939 97.9323 244.846 97.993 244.738 98.035C244.636 98.0817 244.524 98.105 244.402 98.105C244.276 98.105 244.16 98.0817 244.052 98.035C243.95 97.993 243.859 97.9323 243.779 97.853C243.7 97.7737 243.637 97.6827 243.59 97.58C243.548 97.4727 243.527 97.356 243.527 97.23Z" fill="#475658"/>
<path d="M4.24 12.71C4.54 10.63 5.12 8.81 5.98 7.25C6.84 5.67 7.91 4.36 9.19 3.32C10.49 2.26 11.97 1.47 13.63 0.949998C15.31 0.409999 17.11 0.14 19.03 0.14C21.03 0.14 22.83 0.429999 24.43 1.01C26.05 1.57 27.43 2.36 28.57 3.38C29.71 4.38 30.58 5.56 31.18 6.92C31.8 8.28 32.11 9.75 32.11 11.33C32.11 12.71 31.95 13.93 31.63 14.99C31.33 16.03 30.89 16.94 30.31 17.72C29.73 18.5 29.01 19.16 28.15 19.7C27.29 20.24 26.32 20.69 25.24 21.05C27.84 21.87 29.78 23.12 31.06 24.8C32.34 26.48 32.98 28.59 32.98 31.13C32.98 33.29 32.58 35.2 31.78 36.86C30.98 38.52 29.9 39.92 28.54 41.06C27.18 42.18 25.6 43.03 23.8 43.61C22.02 44.19 20.13 44.48 18.13 44.48C15.95 44.48 14.05 44.23 12.43 43.73C10.81 43.23 9.4 42.49 8.2 41.51C7 40.53 5.98 39.33 5.14 37.91C4.3 36.49 3.58 34.85 2.98 32.99L6.25 31.64C7.11 31.28 7.91 31.19 8.65 31.37C9.41 31.53 9.96 31.93 10.3 32.57C10.66 33.27 11.05 33.96 11.47 34.64C11.91 35.32 12.43 35.93 13.03 36.47C13.63 36.99 14.33 37.42 15.13 37.76C15.95 38.08 16.92 38.24 18.04 38.24C19.3 38.24 20.4 38.04 21.34 37.64C22.28 37.22 23.06 36.68 23.68 36.02C24.32 35.36 24.79 34.63 25.09 33.83C25.41 33.01 25.57 32.19 25.57 31.37C25.57 30.33 25.46 29.39 25.24 28.55C25.02 27.69 24.56 26.96 23.86 26.36C23.16 25.76 22.15 25.29 20.83 24.95C19.53 24.61 17.78 24.44 15.58 24.44V19.16C17.4 19.14 18.91 18.97 20.11 18.65C21.31 18.33 22.26 17.89 22.96 17.33C23.68 16.75 24.18 16.06 24.46 15.26C24.74 14.46 24.88 13.58 24.88 12.62C24.88 10.58 24.31 9.03 23.17 7.97C22.03 6.91 20.51 6.38 18.61 6.38C17.73 6.38 16.92 6.51 16.18 6.77C15.44 7.01 14.77 7.36 14.17 7.82C13.59 8.26 13.1 8.78 12.7 9.38C12.3 9.98 12 10.64 11.8 11.36C11.46 12.28 11.01 12.89 10.45 13.19C9.91 13.49 9.14 13.56 8.14 13.4L4.24 12.71Z" fill="#03073C"/>
</svg>
