<svg width="380" height="403" viewBox="0 0 380 403" fill="none" xmlns="http://www.w3.org/2000/svg">
<path d="M5 23.5H330C357.338 23.5 379.5 45.6619 379.5 73V353C379.5 380.338 357.338 402.5 330 402.5H50C22.6619 402.5 0.5 380.338 0.5 353V28C0.5 25.5147 2.51472 23.5 5 23.5Z" stroke="#E0E0E0"/>
<path d="M182.02 156.725C178.736 163.702 172.168 169.342 166.221 173.248C164.579 178.378 160.971 187.711 160.479 189.771C158.837 184.64 158.336 180.623 156.582 180.54C154.829 180.456 153.298 181.876 152.686 185.16C152.074 188.444 151.758 191.218 152.788 196.135C153.744 200.718 154.94 204.243 159.05 203.826C159.458 208.548 158.846 211.832 161.1 216.136C163.355 220.45 168.281 228.447 167.873 233.986C162.334 234.802 159.05 233.986 157.204 231.731C155.358 229.477 154.644 227.213 153.92 224.143C150.432 223.113 148.586 218.604 148.994 215.32C144.995 212.138 143.353 206.497 143.149 201.775C142.945 197.053 144.281 189.669 147.352 184.334C150.432 179 154.736 174.074 157.204 171.615C159.662 169.157 161.824 165.771 163.262 161.049C164.7 156.326 167.78 153.367 171.064 151.502C174.144 149.758 178.347 150.268 180.814 151.706C183.486 149.248 186.872 147.912 192.003 147.912C197.133 147.912 201.651 150.473 206.364 154.991C211.086 159.509 214.37 164.323 217.654 171.513C220.938 178.694 223.193 183.824 223.814 191.422C224.436 199.02 225.864 208.149 226.792 213.483C227.562 217.945 226.996 222.306 225.762 224.56C224.528 226.814 221.56 230.618 218.174 229.996C215.502 233.995 211.809 235.229 208.943 235.025C206.271 238.105 200.426 240.053 194.786 237.075C194.99 232.761 195.398 228.456 196.02 225.998C198.58 223.437 200.946 220.051 203.404 216.767C204.017 208.149 204.434 195.838 206.076 190.299C203.72 187.526 202.384 180.039 201.354 173.471C200.324 166.902 198.682 160.538 194.99 157.876C191.261 155.185 187.772 155.287 182.02 156.725Z" fill="#D44B4B"/>
<path d="M220.428 231.175C220.038 231.175 219.658 230.97 219.454 230.599C219.157 230.061 219.352 229.384 219.89 229.087C224.361 226.629 226.978 221.081 226.263 215.598L226.245 215.468C225.54 210.041 224.352 200.959 224.593 192.86C224.816 185.234 222.348 178.592 216.736 166.605C211.178 154.74 200.927 147.29 195.751 146.001C190.073 144.581 183.44 145.769 182.716 146.938C182.391 147.457 181.705 147.615 181.185 147.29C180.666 146.966 180.508 146.279 180.833 145.76C182.512 143.069 190.741 142.457 196.298 143.849C202.05 145.287 212.821 153.005 218.758 165.668C224.528 177.989 227.07 184.854 226.829 192.934C226.597 200.857 227.766 209.828 228.462 215.19L228.48 215.32C229.315 221.684 226.226 228.15 220.966 231.045C220.79 231.137 220.613 231.175 220.428 231.175Z" fill="#475658"/>
<path d="M212.691 235.581C212.227 235.581 211.8 235.294 211.642 234.83C211.438 234.245 211.754 233.614 212.329 233.41C215.103 232.455 217.255 229.959 218.229 226.545C219.175 223.215 220.02 215.487 218.443 207.833C218.322 207.23 218.702 206.646 219.305 206.516C219.908 206.395 220.493 206.776 220.623 207.379C222.404 216.053 221.235 224.105 220.363 227.148C219.185 231.267 216.522 234.31 213.052 235.507C212.932 235.563 212.811 235.581 212.691 235.581Z" fill="#475658"/>
<path d="M180.74 157.727C180.202 157.421 179.525 157.616 179.219 158.145C176.027 163.767 169.561 170.084 165.526 172.459C165.284 172.599 165.108 172.821 165.025 173.081C164.514 174.704 163.763 176.708 162.984 178.823C162.074 181.282 161.082 183.954 160.293 186.468C159.839 182.275 159.041 180.159 157.631 179.427C157.093 179.148 156.221 178.944 155.098 179.575C152.417 181.059 150.942 184.204 150.942 188.435C150.942 192.591 151.202 195.188 151.935 198.38C152.538 200.977 153.345 204.484 156.267 204.484C156.406 204.484 156.555 204.475 156.703 204.456C157.315 204.391 157.751 203.835 157.686 203.222C157.621 202.61 157.065 202.174 156.453 202.239C155.46 202.35 154.885 201.284 154.096 197.87C153.4 194.864 153.159 192.396 153.159 188.425C153.159 185.048 154.226 182.59 156.165 181.514C156.239 181.477 156.49 181.347 156.592 181.403C156.759 181.486 157.594 182.145 158.085 186.839C158.15 187.451 158.698 187.897 159.31 187.832C159.57 187.804 159.792 187.674 159.969 187.498C159.709 188.379 159.477 189.232 159.291 190.04C159.152 190.643 159.533 191.236 160.126 191.375C160.21 191.394 160.293 191.403 160.377 191.403C160.887 191.403 161.342 191.051 161.462 190.541C162.195 187.303 163.717 183.221 165.062 179.612C165.795 177.636 166.49 175.762 167.01 174.166C171.287 171.513 177.762 165.205 181.139 159.249C181.464 158.711 181.269 158.024 180.74 157.727Z" fill="#475658"/>
<path d="M182.484 183.082C182.289 183.082 182.104 183.035 181.928 182.933C179.312 181.412 174.756 180.02 171.472 180.466C170.851 180.54 170.303 180.122 170.22 179.51C170.136 178.898 170.563 178.341 171.175 178.258C174.998 177.747 180.035 179.259 183.05 181.013C183.579 181.319 183.765 182.006 183.449 182.534C183.236 182.887 182.865 183.082 182.484 183.082Z" fill="#475658"/>
<path d="M208.117 231.722C206.558 229.301 206.095 226.749 205.492 223.53C205.325 222.63 205.148 221.684 204.944 220.701C204.23 217.324 204.397 211.461 205.436 202.777C205.612 201.339 205.9 199.539 206.215 197.638C207.226 191.422 208.497 183.685 207.57 177.775C207.477 177.172 206.902 176.755 206.299 176.847C205.696 176.94 205.278 177.515 205.371 178.118C205.779 180.744 205.714 183.815 205.436 186.96C204.619 184.464 203.979 181.152 203.321 177.692C202.412 172.97 201.475 168.09 199.916 164.008C198.265 159.703 195.417 156.549 191.882 155.139C189.062 154.007 186.056 154.072 183.43 155.324C182.874 155.584 182.642 156.252 182.902 156.809C183.161 157.365 183.829 157.607 184.386 157.338C186.446 156.354 188.811 156.308 191.056 157.208C194.006 158.386 196.409 161.086 197.838 164.806C199.332 168.702 200.25 173.489 201.141 178.109C201.484 179.909 201.827 181.662 202.189 183.304C199.795 182.915 197.068 183.063 194.962 183.768C194.377 183.963 194.062 184.594 194.266 185.178C194.424 185.642 194.86 185.939 195.324 185.939C195.444 185.939 195.565 185.921 195.676 185.883C197.708 185.197 200.565 185.132 202.773 185.698C203.219 187.386 203.71 188.889 204.304 190.077C204.453 190.383 204.731 190.578 205.037 190.652C204.731 192.934 204.369 195.188 204.035 197.266C203.72 199.196 203.423 201.024 203.246 202.499C202.161 211.553 202.013 217.472 202.783 221.146C202.987 222.111 203.154 223.038 203.321 223.92C203.933 227.25 204.471 230.126 206.262 232.919C206.475 233.253 206.837 233.429 207.199 233.429C207.403 233.429 207.616 233.373 207.802 233.253C208.303 232.928 208.451 232.232 208.117 231.722Z" fill="#475658"/>
<path d="M188.088 206.469C187.55 206.469 187.077 206.08 186.993 205.523C186.446 201.979 188.598 196.608 189.934 193.723C190.194 193.166 190.852 192.916 191.409 193.175C191.966 193.435 192.207 194.094 191.956 194.65C189.897 199.103 188.867 203.046 189.192 205.18C189.285 205.792 188.867 206.358 188.264 206.451C188.199 206.46 188.143 206.469 188.088 206.469Z" fill="#475658"/>
<path d="M198.025 197.609C199.188 197.42 199.978 196.324 199.789 195.161C199.6 193.997 198.504 193.208 197.341 193.396C196.178 193.585 195.388 194.681 195.577 195.844C195.765 197.008 196.862 197.798 198.025 197.609Z" fill="#475658"/>
<path d="M171.314 190.754C171.314 191.932 172.27 192.888 173.448 192.888C174.626 192.888 175.582 191.932 175.582 190.754C175.582 189.576 174.626 188.62 173.448 188.62C172.279 188.62 171.314 189.576 171.314 190.754Z" fill="#475658"/>
<path d="M220.168 290.623C219.983 290.623 219.797 290.576 219.63 290.483C219.092 290.187 218.897 289.509 219.194 288.971C220.14 287.274 221.291 284.611 222.636 281.531C225.976 273.859 230.122 264.313 235.132 259.544C235.577 259.117 236.283 259.136 236.709 259.581C237.136 260.027 237.117 260.732 236.672 261.158C231.987 265.611 227.766 275.334 224.686 282.422C223.322 285.557 222.144 288.257 221.151 290.057C220.938 290.419 220.558 290.623 220.168 290.623Z" fill="#475658"/>
<path d="M101.012 336.34C100.447 336.34 99.927 336.173 99.5003 335.839C98.9344 335.394 97.7933 334.021 99.4075 330.793C101.578 326.451 110.67 320.708 116.19 320.189C116.802 320.133 117.35 320.578 117.405 321.191C117.461 321.803 117.016 322.35 116.403 322.406C111.653 322.851 103.239 328.111 101.402 331.785C100.623 333.344 100.799 334.012 100.873 334.086C100.966 334.151 101.597 334.142 102.469 333.39C103.332 332.648 103.898 331.859 104.454 331.099C105.298 329.93 106.171 328.714 107.942 327.833C108.49 327.564 109.158 327.777 109.436 328.334C109.714 328.881 109.492 329.549 108.935 329.828C107.655 330.468 107.043 331.321 106.263 332.407C105.66 333.232 104.983 334.179 103.925 335.088C102.951 335.914 101.922 336.34 101.012 336.34Z" fill="#475658"/>
<path d="M218.359 342.25C218.155 342.25 217.96 342.231 217.765 342.203C215.724 341.888 214.37 340.209 214.472 338.112C214.509 337.352 214.565 336.582 214.63 335.812C214.824 333.316 215.019 330.737 214.277 329.355C213.99 328.817 214.184 328.139 214.732 327.842C215.27 327.555 215.947 327.75 216.244 328.297C217.292 330.254 217.079 333.028 216.856 335.979C216.801 336.73 216.736 337.481 216.708 338.214C216.652 339.365 217.431 339.893 218.118 339.996C218.879 340.107 219.89 339.754 220.252 338.372C221.077 335.199 217.96 325.987 214.054 321.914C213.628 321.469 213.646 320.764 214.082 320.337C214.528 319.91 215.233 319.929 215.659 320.365C219.834 324.716 223.489 334.772 222.404 338.929C221.782 341.276 219.983 342.25 218.359 342.25Z" fill="#475658"/>
<path d="M242.285 262.596C241.756 262.281 241.069 262.448 240.754 262.977C240.439 263.506 240.606 264.183 241.134 264.498C241.793 264.981 243.556 269.359 243.305 275.056C243.231 276.8 243.148 280.557 243.045 285.307C242.814 295.836 242.507 310.262 242.006 313.602C241.227 318.779 238.5 327.973 234.149 336.814C231.097 343.029 228.453 346.434 225.048 350.562C222.209 354.014 217.171 353.55 209.963 351.676C203.293 349.95 154.486 338.957 151.285 338.465C148.678 338.066 148.344 337.38 148.539 335.246C148.854 331.748 150.766 319.994 153.781 315.087C155.692 311.979 158.048 311.329 159.161 311.645C161.212 312.229 206.911 322.221 209.573 322.666C210.186 322.768 210.752 322.36 210.854 321.748C210.882 321.571 210.854 321.395 210.807 321.237C212.885 319.744 214.388 318.176 215.39 316.45C216.93 315.634 219.407 313.417 220.085 311.691C220.344 311.042 220.354 310.448 220.131 309.928C221.309 309.427 222.441 308.852 223.229 308.268C225.206 306.802 225.744 304.39 224.5 302.525C224.426 302.405 224.324 302.321 224.213 302.238C224.732 301.653 225.131 300.985 225.521 300.067C225.994 298.963 225.753 297.794 224.909 297.015C224.009 296.18 222.255 295.716 220.047 296.875C219.955 296.922 219.825 296.987 219.695 297.052C219.788 296.022 219.546 294.983 218.953 294.25C218.572 293.786 217.134 292.395 214.546 294.102C212.524 295.428 208.052 297.738 205.38 299.13C204.582 299.547 203.933 299.881 203.571 300.076C202.94 300.419 202.235 300.828 201.558 301.31C204.378 294.575 207.152 286.346 208.646 280.566C211.104 271.02 210.455 254.479 206.169 245.508C211.819 247.679 220.697 250.944 226.922 253.236C230.503 254.553 233.314 255.583 234.334 255.982C236.579 256.845 239.613 258.208 240.04 260.101C240.151 260.62 240.615 260.973 241.125 260.973C241.209 260.973 241.283 260.964 241.366 260.945C241.969 260.815 242.35 260.212 242.211 259.618C241.57 256.733 238.277 255.11 235.132 253.904C234.102 253.505 231.282 252.475 227.683 251.148C220.446 248.486 209.592 244.497 204.48 242.465C203.729 241.482 203.042 240.674 202.347 239.849C204.675 239.561 206.846 238.643 208.238 237.103C208.646 236.648 208.618 235.943 208.154 235.535C207.699 235.127 206.994 235.155 206.586 235.618C204.555 237.873 199.331 238.698 195.908 236.351C195.843 236.305 195.76 236.286 195.686 236.258C195.788 233.086 196.149 229.894 196.892 227.13C196.957 226.907 196.919 226.684 196.845 226.471C198.2 225.117 199.452 223.623 200.51 221.999C200.844 221.489 200.705 220.793 200.185 220.459C199.675 220.126 198.979 220.265 198.645 220.784C194.925 226.49 189.164 229.913 186.334 231.045C182.976 232.39 178.504 231.833 175.814 230.59C173.253 229.412 171.732 227.863 169.96 226.072L169.246 225.358C168.81 224.922 168.105 224.922 167.669 225.358C167.557 225.469 167.474 225.599 167.427 225.729C167.038 224.95 166.583 224.17 166.064 223.382C164.19 220.571 161.731 215.496 161.017 212.203C160.2 208.399 160.516 203.445 160.748 199.827L160.794 199.141C160.831 198.528 160.367 197.999 159.755 197.962C159.143 197.907 158.614 198.389 158.577 199.001L158.531 199.688C158.289 203.436 157.965 208.575 158.846 212.676C159.625 216.275 162.186 221.582 164.217 224.625C165.739 226.907 166.62 229.087 166.889 231.267C166.963 231.833 167.437 232.241 167.993 232.241C168.04 232.241 168.086 232.241 168.132 232.232C168.745 232.158 169.171 231.601 169.097 230.989C168.949 229.802 168.643 228.633 168.197 227.445L168.383 227.631C170.229 229.495 171.964 231.258 174.886 232.613C176.695 233.448 179.246 234.051 181.89 234.051C183.672 234.051 185.499 233.772 187.16 233.114C189.266 232.269 191.789 230.785 194.229 228.818C193.004 235.303 193.348 243.216 194.285 248.319V248.328C194.285 248.328 194.285 248.328 194.285 248.337C195.138 252.586 195.352 257.373 195.138 262.439C194.823 262.318 194.461 262.337 194.155 262.531C186.687 267.346 169.106 266.966 161.731 261.817C161.49 261.65 161.202 261.594 160.924 261.632C160.701 257.828 160.599 254.247 160.664 251.111C160.924 251.037 161.156 250.861 161.304 250.61C162.529 248.495 165.312 239.988 165.433 236.119C165.433 236.036 165.405 235.962 165.396 235.887C166.379 235.86 167.39 235.73 168.392 235.442C168.986 235.275 169.329 234.654 169.153 234.069C168.986 233.475 168.374 233.132 167.78 233.299C163.188 234.607 158.299 232.121 157.083 229.894C155.024 226.137 154.847 223.697 154.847 217.129C154.847 216.517 154.347 216.016 153.734 216.016C153.122 216.016 152.621 216.517 152.621 217.129C152.621 219.124 152.64 220.766 152.723 222.204C149.847 218.78 149.819 213.882 152.63 206.85C152.862 206.275 152.584 205.635 152.009 205.403C151.433 205.171 150.793 205.449 150.561 206.024C149.365 209.011 148.66 211.693 148.428 214.105C148.446 213.826 148.363 213.548 148.177 213.325C146.016 210.737 143.928 207.499 144.16 199.103C144.374 191.478 148.168 181.987 155.135 171.671C158.92 166.058 160.033 162.663 161.008 159.666C161.685 157.588 162.269 155.798 163.698 153.608C166.973 148.58 174.58 146.418 177.141 148.005C177.66 148.33 178.347 148.172 178.671 147.652C178.996 147.133 178.838 146.446 178.319 146.122C174.552 143.774 165.711 146.446 161.833 152.393C160.247 154.824 159.588 156.846 158.892 158.98C157.965 161.837 156.907 165.075 153.289 170.428C148.27 177.868 142.221 188.871 141.934 199.048C141.683 208.214 144.142 211.962 146.47 214.754C146.693 215.014 147.008 215.153 147.324 215.153C147.574 215.153 147.825 215.069 148.038 214.893C148.261 214.708 148.391 214.448 148.428 214.179C148.038 218.363 149.096 221.703 151.61 224.291C151.832 224.514 152.12 224.625 152.408 224.625C152.593 224.625 152.769 224.56 152.936 224.467C153.252 226.796 153.883 228.67 155.135 230.952C156.081 232.678 158.438 234.449 161.369 235.331C161.36 235.34 161.341 235.349 161.332 235.359C159.31 237.743 156.1 239.7 153.521 241.277L152.677 241.788C152.157 242.103 151.99 242.79 152.306 243.309C151.87 243.17 151.415 243.309 151.127 243.652C151.127 243.55 151.137 243.448 151.109 243.346C150.951 242.753 150.339 242.391 149.745 242.558C148.558 242.873 146.804 243.309 144.8 243.801C136.469 245.86 129.391 247.669 127.211 248.885C123.88 250.731 123.11 253.041 122.433 255.073C122.238 255.657 122.554 256.288 123.138 256.483C123.259 256.52 123.37 256.538 123.491 256.538C123.955 256.538 124.391 256.242 124.548 255.778C125.179 253.885 125.726 252.252 128.296 250.824C130.402 249.655 139.392 247.428 145.338 245.953C147.361 245.452 149.123 245.016 150.32 244.701C150.441 244.673 150.534 244.608 150.636 244.543C143.038 260.416 146.795 279.713 148.613 289.055C149.838 295.345 151.489 301.152 152.816 305.819C153.252 307.359 153.651 308.76 153.985 309.993C150.459 309.372 145.747 309.047 145.515 309.029C145.273 309.01 145.023 309.075 144.819 309.214C144.522 309.409 144.216 309.687 143.9 310.003C143.733 309.854 143.52 309.734 143.279 309.715C137.147 309.131 132.703 309.483 130.04 310.773C129.864 310.856 129.688 310.958 129.512 311.06C129.502 311.023 129.512 310.986 129.502 310.949C128.751 307.934 127.795 301.635 127.276 296.282C126.775 291.142 126.738 273.404 127.211 266.632C127.257 266.02 126.793 265.482 126.181 265.444C125.559 265.407 125.04 265.862 124.994 266.474C124.502 273.488 124.548 291.161 125.058 296.495C125.587 301.941 126.571 308.388 127.341 311.487C127.415 311.765 127.591 311.988 127.814 312.136C126.367 313.175 124.845 314.484 123.435 315.69C122.591 316.413 121.802 317.09 121.144 317.61C119.325 319.039 118.277 320.579 118.119 322.063C118.008 323.083 118.314 324.076 119.01 324.92C120.902 327.23 124.075 327.861 127.202 326.59C128.797 327.332 130.847 327.611 132.805 327.611C133.881 327.611 134.92 327.527 135.848 327.397C135.839 327.472 135.811 327.564 135.801 327.639C135.727 328.102 135.941 328.557 136.349 328.789C136.423 328.826 143.529 332.88 145.756 334.457C145.923 334.578 146.118 334.634 146.312 334.652C146.303 334.782 146.285 334.903 146.275 335.005C145.96 338.446 147.305 340.079 150.905 340.627C152.101 340.812 159.709 342.473 169.097 344.56C166.759 344.968 164.069 345.367 161.425 345.757C159.783 345.998 158.178 346.239 156.712 346.471C142.509 348.716 114.39 352.251 108.916 351.286C102.404 350.136 98.2753 347.603 96.6425 343.753C95.7334 341.629 93.9336 335.617 96.6889 325.811C99.0453 317.443 110.781 284.574 112.998 280.139C113.907 278.33 115.03 275.111 116.217 271.707C117.887 266.938 120.179 260.407 121.58 259.182C122.043 258.774 122.09 258.078 121.682 257.615C121.273 257.151 120.578 257.104 120.114 257.512C118.397 259.015 116.626 263.821 114.121 270.983C112.952 274.323 111.848 277.468 111.004 279.156C108.564 284.027 96.7075 317.545 94.5459 325.227C92.4678 332.611 92.4864 339.69 94.5923 344.644C96.5405 349.227 101.235 352.205 108.527 353.494C109.287 353.633 110.391 353.689 111.755 353.689C115.985 353.689 122.748 353.104 129.92 352.307C130.523 357.4 131.163 364.515 131.163 369.646C131.163 370.258 131.664 370.759 132.276 370.759C132.888 370.759 133.389 370.258 133.389 369.646C133.389 364.423 132.749 357.214 132.137 352.056C141.85 350.934 151.879 349.505 157.055 348.688C158.512 348.457 160.108 348.225 161.74 347.974C164.728 347.529 167.78 347.074 170.34 346.61C171.5 353.735 172.289 358.355 172.762 360.702C172.864 361.203 173.29 361.574 173.801 361.593C173.819 361.593 173.829 361.593 173.847 361.593C174.339 361.593 174.775 361.268 174.914 360.795C175.814 357.697 176.964 353.336 178.606 346.712C192.058 349.737 206.002 352.937 209.342 353.8C212.375 354.589 215.576 355.303 218.526 355.303C220.307 355.303 221.986 355.025 223.489 354.366C223.109 359.218 223.146 363.087 223.22 369.506V369.896C223.229 370.508 223.721 371 224.333 371H224.343C224.955 370.991 225.447 370.49 225.447 369.877V369.497C225.372 362.409 225.326 358.457 225.855 352.854C226.152 352.585 226.43 352.288 226.699 351.963C230.197 347.714 232.915 344.217 236.078 337.779C240.838 328.102 243.389 318.872 244.14 313.918C244.66 310.439 244.975 295.938 245.207 285.344C245.309 280.789 245.393 276.865 245.467 275.139C245.764 269.731 244.214 263.747 242.285 262.596ZM163.29 235.758C163.28 235.785 163.262 235.804 163.262 235.832C163.253 235.804 163.234 235.776 163.225 235.748C163.243 235.748 163.262 235.748 163.29 235.758ZM163.039 236.806C163.113 236.722 163.151 236.62 163.197 236.528C163.011 238.735 162.047 242.363 161.072 245.285C161.341 243.235 161.74 241.584 162.316 240.47C162.594 239.923 162.381 239.255 161.833 238.967C161.49 238.791 161.1 238.828 160.785 239.005C161.611 238.309 162.381 237.585 163.039 236.806ZM196.483 247.92C196.483 247.92 196.483 247.911 196.483 247.92C196.02 245.396 195.704 242.168 195.667 238.782C196.827 239.366 198.125 239.728 199.461 239.877C199.768 240.238 200.064 240.591 200.352 240.934C201.205 241.936 202.003 242.882 202.912 244.07C202.968 244.144 203.033 244.209 203.107 244.265C203.117 244.45 203.154 244.626 203.256 244.793C208.098 252.521 208.989 270.389 206.503 280.028C204.434 288.062 199.591 301.505 195.973 307.971C195.825 308.24 195.797 308.546 195.871 308.824C194.368 311.079 192.717 313.482 191.687 314.753C191.297 315.226 191.372 315.931 191.854 316.32C192.058 316.487 192.309 316.571 192.55 316.571C192.875 316.571 193.199 316.432 193.413 316.153C195.732 313.287 201.048 304.956 201.103 304.872C201.892 303.639 203.395 302.72 204.619 302.061C204.981 301.867 205.612 301.542 206.401 301.134C209.11 299.733 213.646 297.386 215.761 295.994C216.095 295.772 216.912 295.298 217.218 295.688C217.617 296.18 217.58 297.497 217.014 298.072C216.893 298.193 216.819 298.323 216.763 298.471C215.585 299.009 214.249 299.622 212.932 300.225C209.416 301.82 206.104 303.323 205.028 303.935C203.089 305.021 201.929 306.607 200.899 307.999L200.5 308.537C200.129 309.029 200.231 309.724 200.723 310.095C201.215 310.467 201.911 310.364 202.282 309.873L202.69 309.316C203.627 308.045 204.592 306.728 206.113 305.874C207.106 305.318 210.529 303.759 213.85 302.256C216.967 300.837 219.918 299.501 221.077 298.889C222.181 298.313 223.053 298.378 223.396 298.694C223.489 298.777 223.601 298.926 223.471 299.232C222.812 300.781 222.292 301.282 220.01 302.581C219.129 303.082 215.706 304.687 212.96 305.967C210.343 307.192 208.711 307.952 208.228 308.231C207.032 308.899 205.696 310.179 204.555 311.747C204.193 312.248 204.304 312.944 204.805 313.305C205 313.445 205.232 313.519 205.454 313.519C205.798 313.519 206.141 313.361 206.354 313.064C207.301 311.765 208.405 310.689 209.314 310.188C209.759 309.938 211.865 308.954 213.915 307.999C216.847 306.626 220.168 305.077 221.124 304.529C221.689 304.204 222.163 303.917 222.589 303.639C222.617 303.694 222.617 303.75 222.654 303.796C223.322 304.798 222.766 305.884 221.912 306.514C220.326 307.683 216.42 309.066 214.778 309.483C213.488 309.808 211.939 311.116 210.047 312.795C209.629 313.166 209.249 313.5 208.933 313.76C208.46 314.15 208.386 314.855 208.776 315.328C208.998 315.597 209.314 315.736 209.638 315.736C209.889 315.736 210.139 315.652 210.343 315.485C210.677 315.216 211.076 314.855 211.522 314.465C212.616 313.491 214.453 311.867 215.316 311.645C215.845 311.515 216.875 311.199 218.062 310.773C217.951 311.608 215.464 314.066 214.166 314.604C213.934 314.706 213.739 314.882 213.609 315.105C212.681 316.831 211.113 318.417 208.813 319.948C208.701 320.022 208.609 320.124 208.534 320.226C205.009 319.502 195.834 317.517 186.371 315.458C186.566 315.318 186.715 315.114 186.779 314.864L187.011 314.038C192.29 295.159 200.241 266.706 196.483 247.92ZM178.922 268.218C185.045 268.218 191.066 267.022 195.036 264.591C193.96 280.863 188.709 299.696 184.878 313.389L184.646 314.215C184.562 314.511 184.609 314.808 184.748 315.049C178.05 313.584 171.361 312.109 166.583 311.051C166.973 310.81 167.186 310.355 167.093 309.891C165.822 303.676 162.316 281.884 161.091 264.044C165.479 266.808 172.251 268.218 178.922 268.218ZM150.812 288.647C149.012 279.407 145.255 260.184 152.973 244.858C153.15 244.506 153.103 244.107 152.918 243.792C153.029 243.829 153.15 243.856 153.27 243.856C153.465 243.856 153.669 243.801 153.855 243.689L154.69 243.179C156.508 242.066 158.623 240.767 160.497 239.236C160.442 239.301 160.377 239.357 160.34 239.431C154.625 250.517 163.457 303.212 164.913 310.327C164.941 310.467 164.997 310.596 165.071 310.708C162.13 310.049 160.163 309.594 159.774 309.483C158.753 309.196 157.491 309.288 156.193 309.864C156.202 309.743 156.202 309.622 156.174 309.492C155.84 308.231 155.432 306.793 154.977 305.206C153.66 300.596 152.027 294.844 150.812 288.647ZM136.154 325.134C133.547 325.588 129.827 325.57 127.832 324.419C127.517 324.243 127.127 324.225 126.803 324.382C123.964 325.727 121.774 324.772 120.772 323.538C120.457 323.148 120.327 322.768 120.374 322.332C120.466 321.469 121.246 320.421 122.563 319.382C123.259 318.835 124.066 318.139 124.929 317.397C126.877 315.717 129.298 313.639 131.042 312.786C133.195 311.738 137.119 311.431 142.388 311.877C140.023 315.244 137.601 320.718 136.404 325.124C136.33 325.134 136.247 325.124 136.154 325.134ZM146.646 332.37C144.485 330.904 139.921 328.269 138.176 327.277C139.327 321.72 143.297 313.38 145.793 311.301C146.962 311.394 150.432 311.673 153.205 312.136C152.742 312.656 152.296 313.24 151.879 313.918C149.059 318.51 147.352 327.546 146.646 332.37ZM174.125 355.516C173.708 353.114 173.198 350.015 172.576 346.211C173.068 346.109 173.532 346.007 173.958 345.896C174.079 345.868 174.181 345.803 174.274 345.748C175.007 345.915 175.749 346.082 176.491 346.249C175.554 350.015 174.784 353.049 174.125 355.516Z" fill="#475658"/>
<path d="M188.787 218.734C188.716 218.734 188.64 218.717 188.57 218.682C185.181 217.06 179.617 216.602 176.427 217.681C176.047 217.81 175.673 217.457 175.585 216.904C175.497 216.343 175.737 215.791 176.111 215.662C179.565 214.496 185.344 214.971 188.997 216.714C189.365 216.887 189.57 217.474 189.447 218.018C189.359 218.458 189.085 218.734 188.787 218.734Z" fill="#475658"/>
<rect x="51.5" y="51.5" width="280" height="67" rx="33.5" fill="white" stroke="#E0E0E0"/>
<path d="M89.289 78H88.071C87.9357 78 87.819 77.965 87.721 77.895C87.6277 77.8203 87.539 77.713 87.455 77.573L84.802 73.898C84.6807 73.716 84.55 73.59 84.41 73.52C84.27 73.4453 84.0787 73.408 83.836 73.408H82.632V78H81.281V67.969H82.632V72.365H83.675C83.885 72.365 84.0623 72.3323 84.207 72.267C84.3563 72.2017 84.5033 72.0733 84.648 71.882L87.273 68.354C87.343 68.242 87.427 68.151 87.525 68.081C87.6277 68.0063 87.7467 67.969 87.882 67.969H89.023L85.992 72.092C85.7633 72.414 85.4693 72.6357 85.11 72.757C85.3573 72.8223 85.565 72.9273 85.733 73.072C85.9057 73.212 86.069 73.408 86.223 73.66L89.289 78ZM94.1132 74.808C93.5392 74.8267 93.0492 74.8733 92.6432 74.948C92.2419 75.018 91.9129 75.1113 91.6562 75.228C91.4042 75.3447 91.2199 75.4823 91.1032 75.641C90.9912 75.7997 90.9352 75.977 90.9352 76.173C90.9352 76.3597 90.9655 76.5207 91.0262 76.656C91.0869 76.7913 91.1685 76.9033 91.2712 76.992C91.3785 77.076 91.5022 77.139 91.6422 77.181C91.7869 77.2183 91.9409 77.237 92.1042 77.237C92.3235 77.237 92.5242 77.216 92.7062 77.174C92.8882 77.1273 93.0585 77.062 93.2172 76.978C93.3805 76.894 93.5345 76.7937 93.6792 76.677C93.8285 76.5603 93.9732 76.4273 94.1132 76.278V74.808ZM90.0882 71.91C90.4802 71.532 90.9025 71.2497 91.3552 71.063C91.8079 70.8763 92.3095 70.783 92.8602 70.783C93.2569 70.783 93.6092 70.8483 93.9172 70.979C94.2252 71.1097 94.4842 71.2917 94.6942 71.525C94.9042 71.7583 95.0629 72.0407 95.1702 72.372C95.2775 72.7033 95.3312 73.0673 95.3312 73.464V78H94.7782C94.6569 78 94.5635 77.9813 94.4982 77.944C94.4329 77.902 94.3815 77.8227 94.3442 77.706L94.2042 77.034C94.0175 77.2067 93.8355 77.3607 93.6582 77.496C93.4809 77.6267 93.2942 77.7387 93.0982 77.832C92.9022 77.9207 92.6922 77.9883 92.4682 78.035C92.2489 78.0863 92.0039 78.112 91.7332 78.112C91.4579 78.112 91.1989 78.0747 90.9562 78C90.7135 77.9207 90.5012 77.804 90.3192 77.65C90.1419 77.496 89.9995 77.3023 89.8922 77.069C89.7895 76.831 89.7382 76.551 89.7382 76.229C89.7382 75.949 89.8152 75.6807 89.9692 75.424C90.1232 75.1627 90.3729 74.9317 90.7182 74.731C91.0635 74.5303 91.5139 74.367 92.0692 74.241C92.6245 74.1103 93.3059 74.0357 94.1132 74.017V73.464C94.1132 72.9133 93.9942 72.498 93.7562 72.218C93.5182 71.9333 93.1705 71.791 92.7132 71.791C92.4052 71.791 92.1462 71.8307 91.9362 71.91C91.7309 71.9847 91.5512 72.071 91.3972 72.169C91.2479 72.2623 91.1172 72.3487 91.0052 72.428C90.8979 72.5027 90.7905 72.54 90.6832 72.54C90.5992 72.54 90.5269 72.519 90.4662 72.477C90.4055 72.4303 90.3542 72.3743 90.3122 72.309L90.0882 71.91ZM101.534 71.259C101.6 71.1563 101.686 71.0723 101.793 71.007C101.901 70.9417 102.015 70.909 102.136 70.909H103.109L101.268 73.611C101.156 73.7837 101.04 73.926 100.918 74.038C100.797 74.1453 100.648 74.2293 100.47 74.29C100.694 74.3507 100.883 74.4463 101.037 74.577C101.191 74.703 101.329 74.8663 101.45 75.067L103.312 78H102.444C102.22 78 102.048 77.9627 101.926 77.888C101.805 77.8133 101.7 77.706 101.611 77.566L100.232 75.361C100.013 74.997 99.6839 74.815 99.2452 74.815H98.4822V78.007H97.2292V70.909H98.4822V73.975H99.1542C99.5275 73.975 99.8192 73.8163 100.029 73.499L101.534 71.259ZM110.558 70.909V78H109.312V73.184C109.312 73.0907 109.317 72.9903 109.326 72.883C109.336 72.7757 109.347 72.6683 109.361 72.561C109.319 72.6543 109.277 72.7407 109.235 72.82C109.193 72.8993 109.149 72.9717 109.102 73.037L105.679 77.692C105.628 77.7667 105.563 77.839 105.483 77.909C105.409 77.9743 105.325 78.007 105.231 78.007H104.475V70.916H105.728V75.732C105.728 75.8207 105.724 75.9187 105.714 76.026C105.705 76.1287 105.693 76.2337 105.679 76.341C105.721 76.2523 105.763 76.1707 105.805 76.096C105.847 76.0167 105.889 75.9443 105.931 75.879L109.354 71.224C109.406 71.1493 109.471 71.0793 109.55 71.014C109.63 70.944 109.716 70.909 109.809 70.909H110.558ZM117.274 73.681C117.274 73.3917 117.232 73.128 117.148 72.89C117.069 72.6473 116.95 72.4397 116.791 72.267C116.637 72.0897 116.448 71.9543 116.224 71.861C116 71.763 115.746 71.714 115.461 71.714C114.864 71.714 114.39 71.889 114.04 72.239C113.695 72.5843 113.48 73.065 113.396 73.681H117.274ZM118.282 77.006C118.128 77.1927 117.944 77.356 117.729 77.496C117.514 77.6313 117.283 77.7433 117.036 77.832C116.793 77.9207 116.541 77.986 116.28 78.028C116.019 78.0747 115.76 78.098 115.503 78.098C115.013 78.098 114.56 78.0163 114.145 77.853C113.734 77.685 113.377 77.4423 113.074 77.125C112.775 76.803 112.542 76.4063 112.374 75.935C112.206 75.4637 112.122 74.9223 112.122 74.311C112.122 73.8163 112.197 73.3543 112.346 72.925C112.5 72.4957 112.719 72.1247 113.004 71.812C113.289 71.4947 113.636 71.2473 114.047 71.07C114.458 70.888 114.92 70.797 115.433 70.797C115.858 70.797 116.25 70.8693 116.609 71.014C116.973 71.154 117.286 71.3593 117.547 71.63C117.813 71.896 118.021 72.2273 118.17 72.624C118.319 73.016 118.394 73.464 118.394 73.968C118.394 74.164 118.373 74.2947 118.331 74.36C118.289 74.4253 118.21 74.458 118.093 74.458H113.354C113.368 74.906 113.429 75.2957 113.536 75.627C113.648 75.9583 113.802 76.236 113.998 76.46C114.194 76.6793 114.427 76.845 114.698 76.957C114.969 77.0643 115.272 77.118 115.608 77.118C115.921 77.118 116.189 77.083 116.413 77.013C116.642 76.9383 116.838 76.859 117.001 76.775C117.164 76.691 117.3 76.614 117.407 76.544C117.519 76.4693 117.615 76.432 117.694 76.432C117.797 76.432 117.876 76.4717 117.932 76.551L118.282 77.006ZM128.393 77.09V71.889H126.146C126.099 72.617 126.034 73.261 125.95 73.821C125.866 74.381 125.768 74.8733 125.656 75.298C125.548 75.718 125.427 76.075 125.292 76.369C125.161 76.663 125.023 76.9033 124.879 77.09H128.393ZM130.899 77.055V80.058C130.899 80.1793 130.864 80.2727 130.794 80.338C130.728 80.408 130.642 80.443 130.535 80.443H129.772V78H123.808V80.086C123.808 80.1747 123.78 80.2563 123.724 80.331C123.672 80.4057 123.586 80.443 123.465 80.443H122.681V77.09H122.912C123.075 77.09 123.236 77.062 123.395 77.006C123.558 76.95 123.714 76.845 123.864 76.691C124.013 76.5323 124.153 76.3107 124.284 76.026C124.419 75.7413 124.54 75.3703 124.648 74.913C124.755 74.4557 124.848 73.9003 124.928 73.247C125.007 72.589 125.07 71.8097 125.117 70.909H129.604V77.055H130.899ZM135.027 70.797C135.545 70.797 136.011 70.8833 136.427 71.056C136.842 71.2287 137.197 71.4737 137.491 71.791C137.785 72.1083 138.009 72.4933 138.163 72.946C138.321 73.394 138.401 73.8957 138.401 74.451C138.401 75.011 138.321 75.515 138.163 75.963C138.009 76.411 137.785 76.7937 137.491 77.111C137.197 77.4283 136.842 77.6733 136.427 77.846C136.011 78.014 135.545 78.098 135.027 78.098C134.504 78.098 134.033 78.014 133.613 77.846C133.197 77.6733 132.843 77.4283 132.549 77.111C132.255 76.7937 132.028 76.411 131.87 75.963C131.716 75.515 131.639 75.011 131.639 74.451C131.639 73.8957 131.716 73.394 131.87 72.946C132.028 72.4933 132.255 72.1083 132.549 71.791C132.843 71.4737 133.197 71.2287 133.613 71.056C134.033 70.8833 134.504 70.797 135.027 70.797ZM135.027 77.125C135.727 77.125 136.249 76.8917 136.595 76.425C136.94 75.9537 137.113 75.298 137.113 74.458C137.113 73.6133 136.94 72.9553 136.595 72.484C136.249 72.0127 135.727 71.777 135.027 71.777C134.672 71.777 134.362 71.8377 134.096 71.959C133.834 72.0803 133.615 72.2553 133.438 72.484C133.265 72.7127 133.134 72.995 133.046 73.331C132.962 73.6623 132.92 74.038 132.92 74.458C132.92 75.298 133.092 75.9537 133.438 76.425C133.788 76.8917 134.317 77.125 135.027 77.125ZM144.286 71.259C144.351 71.1563 144.438 71.0723 144.545 71.007C144.652 70.9417 144.767 70.909 144.888 70.909H145.861L144.02 73.611C143.908 73.7837 143.791 73.926 143.67 74.038C143.549 74.1453 143.399 74.2293 143.222 74.29C143.446 74.3507 143.635 74.4463 143.789 74.577C143.943 74.703 144.081 74.8663 144.202 75.067L146.064 78H145.196C144.972 78 144.799 77.9627 144.678 77.888C144.557 77.8133 144.452 77.706 144.363 77.566L142.984 75.361C142.765 74.997 142.436 74.815 141.997 74.815H141.234V78.007H139.981V70.909H141.234V73.975H141.906C142.279 73.975 142.571 73.8163 142.781 73.499L144.286 71.259ZM153.345 70.909L149.39 80.093C149.348 80.1863 149.295 80.261 149.229 80.317C149.169 80.373 149.073 80.401 148.942 80.401H148.018L149.313 77.587L146.387 70.909H147.465C147.573 70.909 147.657 70.937 147.717 70.993C147.783 71.0443 147.827 71.1027 147.85 71.168L149.747 75.634C149.822 75.83 149.885 76.0353 149.936 76.25C150.002 76.0307 150.072 75.823 150.146 75.627L151.987 71.168C152.015 71.0933 152.062 71.0327 152.127 70.986C152.197 70.9347 152.274 70.909 152.358 70.909H153.345ZM162.349 70.888V78H161.222V73.289C161.222 73.1583 161.229 73.0137 161.243 72.855C161.262 72.6917 161.285 72.54 161.313 72.4L158.849 76.719C158.812 76.789 158.763 76.845 158.702 76.887C158.641 76.929 158.571 76.95 158.492 76.95H158.352C158.273 76.95 158.2 76.929 158.135 76.887C158.074 76.845 158.025 76.789 157.988 76.719L155.482 72.386C155.505 72.526 155.526 72.68 155.545 72.848C155.564 73.0113 155.573 73.1583 155.573 73.289V78H154.446V70.888H155.447C155.536 70.888 155.622 70.909 155.706 70.951C155.79 70.9883 155.862 71.0607 155.923 71.168L158.135 74.864C158.242 75.0787 158.338 75.305 158.422 75.543C158.501 75.2957 158.595 75.0693 158.702 74.864L160.872 71.168C160.933 71.056 161.005 70.9813 161.089 70.944C161.173 70.9067 161.259 70.888 161.348 70.888H162.349ZM169.063 73.681C169.063 73.3917 169.021 73.128 168.937 72.89C168.858 72.6473 168.739 72.4397 168.58 72.267C168.426 72.0897 168.237 71.9543 168.013 71.861C167.789 71.763 167.535 71.714 167.25 71.714C166.653 71.714 166.179 71.889 165.829 72.239C165.484 72.5843 165.269 73.065 165.185 73.681H169.063ZM170.071 77.006C169.917 77.1927 169.733 77.356 169.518 77.496C169.303 77.6313 169.072 77.7433 168.825 77.832C168.582 77.9207 168.33 77.986 168.069 78.028C167.808 78.0747 167.549 78.098 167.292 78.098C166.802 78.098 166.349 78.0163 165.934 77.853C165.523 77.685 165.166 77.4423 164.863 77.125C164.564 76.803 164.331 76.4063 164.163 75.935C163.995 75.4637 163.911 74.9223 163.911 74.311C163.911 73.8163 163.986 73.3543 164.135 72.925C164.289 72.4957 164.508 72.1247 164.793 71.812C165.078 71.4947 165.425 71.2473 165.836 71.07C166.247 70.888 166.709 70.797 167.222 70.797C167.647 70.797 168.039 70.8693 168.398 71.014C168.762 71.154 169.075 71.3593 169.336 71.63C169.602 71.896 169.81 72.2273 169.959 72.624C170.108 73.016 170.183 73.464 170.183 73.968C170.183 74.164 170.162 74.2947 170.12 74.36C170.078 74.4253 169.999 74.458 169.882 74.458H165.143C165.157 74.906 165.218 75.2957 165.325 75.627C165.437 75.9583 165.591 76.236 165.787 76.46C165.983 76.6793 166.216 76.845 166.487 76.957C166.758 77.0643 167.061 77.118 167.397 77.118C167.71 77.118 167.978 77.083 168.202 77.013C168.431 76.9383 168.627 76.859 168.79 76.775C168.953 76.691 169.089 76.614 169.196 76.544C169.308 76.4693 169.404 76.432 169.483 76.432C169.586 76.432 169.665 76.4717 169.721 76.551L170.071 77.006ZM177.622 70.909V78H176.369V74.682H172.967V78H171.714V70.909H172.967V73.737H176.369V70.909H177.622ZM185.496 71.861H182.773V78H181.527V71.861H178.804V70.909H185.496V71.861ZM189.407 77.09C189.659 77.09 189.876 77.0597 190.058 76.999C190.245 76.9337 190.399 76.845 190.52 76.733C190.642 76.6163 190.733 76.481 190.793 76.327C190.854 76.173 190.884 76.005 190.884 75.823C190.884 75.655 190.859 75.4987 190.807 75.354C190.756 75.2047 190.67 75.074 190.548 74.962C190.432 74.85 190.278 74.7613 190.086 74.696C189.895 74.6307 189.662 74.598 189.386 74.598H187.874V77.09H189.407ZM189.386 73.688C189.876 73.688 190.287 73.7463 190.618 73.863C190.954 73.9797 191.223 74.136 191.423 74.332C191.629 74.528 191.776 74.7543 191.864 75.011C191.953 75.2677 191.997 75.5337 191.997 75.809C191.997 76.1263 191.941 76.4203 191.829 76.691C191.717 76.957 191.552 77.188 191.332 77.384C191.113 77.5753 190.842 77.727 190.52 77.839C190.198 77.9463 189.827 78 189.407 78H186.684V70.909H187.874V73.688H189.386ZM194.804 70.909V78H193.558V70.909H194.804ZM208.273 70.888V78H207.146V73.289C207.146 73.1583 207.153 73.0137 207.167 72.855C207.185 72.6917 207.209 72.54 207.237 72.4L204.773 76.719C204.735 76.789 204.686 76.845 204.626 76.887C204.565 76.929 204.495 76.95 204.416 76.95H204.276C204.196 76.95 204.124 76.929 204.059 76.887C203.998 76.845 203.949 76.789 203.912 76.719L201.406 72.386C201.429 72.526 201.45 72.68 201.469 72.848C201.487 73.0113 201.497 73.1583 201.497 73.289V78H200.37V70.888H201.371C201.459 70.888 201.546 70.909 201.63 70.951C201.714 70.9883 201.786 71.0607 201.847 71.168L204.059 74.864C204.166 75.0787 204.262 75.305 204.346 75.543C204.425 75.2957 204.518 75.0693 204.626 74.864L206.796 71.168C206.856 71.056 206.929 70.9813 207.013 70.944C207.097 70.9067 207.183 70.888 207.272 70.888H208.273ZM216.149 70.909V78H214.896V74.682H211.494V78H210.241V70.909H211.494V73.737H214.896V70.909H216.149ZM222.876 73.681C222.876 73.3917 222.834 73.128 222.75 72.89C222.67 72.6473 222.551 72.4397 222.393 72.267C222.239 72.0897 222.05 71.9543 221.826 71.861C221.602 71.763 221.347 71.714 221.063 71.714C220.465 71.714 219.992 71.889 219.642 72.239C219.296 72.5843 219.082 73.065 218.998 73.681H222.876ZM223.884 77.006C223.73 77.1927 223.545 77.356 223.331 77.496C223.116 77.6313 222.885 77.7433 222.638 77.832C222.395 77.9207 222.143 77.986 221.882 78.028C221.62 78.0747 221.361 78.098 221.105 78.098C220.615 78.098 220.162 78.0163 219.747 77.853C219.336 77.685 218.979 77.4423 218.676 77.125C218.377 76.803 218.144 76.4063 217.976 75.935C217.808 75.4637 217.724 74.9223 217.724 74.311C217.724 73.8163 217.798 73.3543 217.948 72.925C218.102 72.4957 218.321 72.1247 218.606 71.812C218.89 71.4947 219.238 71.2473 219.649 71.07C220.059 70.888 220.521 70.797 221.035 70.797C221.459 70.797 221.851 70.8693 222.211 71.014C222.575 71.154 222.887 71.3593 223.149 71.63C223.415 71.896 223.622 72.2273 223.772 72.624C223.921 73.016 223.996 73.464 223.996 73.968C223.996 74.164 223.975 74.2947 223.933 74.36C223.891 74.4253 223.811 74.458 223.695 74.458H218.956C218.97 74.906 219.03 75.2957 219.138 75.627C219.25 75.9583 219.404 76.236 219.6 76.46C219.796 76.6793 220.029 76.845 220.3 76.957C220.57 77.0643 220.874 77.118 221.21 77.118C221.522 77.118 221.791 77.083 222.015 77.013C222.243 76.9383 222.439 76.859 222.603 76.775C222.766 76.691 222.901 76.614 223.009 76.544C223.121 76.4693 223.216 76.432 223.296 76.432C223.398 76.432 223.478 76.4717 223.534 76.551L223.884 77.006ZM235.016 70.909V78H233.763V74.682H230.361V78H229.108V70.909H230.361V73.737H233.763V70.909H235.016ZM243.115 70.909L239.16 80.093C239.118 80.1863 239.064 80.261 238.999 80.317C238.938 80.373 238.842 80.401 238.712 80.401H237.788L239.083 77.587L236.157 70.909H237.235C237.342 70.909 237.426 70.937 237.487 70.993C237.552 71.0443 237.596 71.1027 237.62 71.168L239.517 75.634C239.591 75.83 239.654 76.0353 239.706 76.25C239.771 76.0307 239.841 75.823 239.916 75.627L241.757 71.168C241.785 71.0933 241.831 71.0327 241.897 70.986C241.967 70.9347 242.044 70.909 242.128 70.909H243.115ZM254.086 78H253.218C252.994 78 252.821 77.965 252.7 77.895C252.583 77.825 252.492 77.7153 252.427 77.566L251.048 75.361C250.819 74.997 250.49 74.815 250.061 74.815H249.347V78.007H248.136V74.815H247.429C247.219 74.815 247.027 74.8617 246.855 74.955C246.687 75.0483 246.549 75.1837 246.442 75.361L245.063 77.566C244.993 77.7153 244.897 77.825 244.776 77.895C244.659 77.965 244.489 78 244.265 78H243.404L245.266 75.067C245.387 74.8617 245.525 74.696 245.679 74.57C245.833 74.444 246.022 74.3483 246.246 74.283C246.068 74.227 245.917 74.1453 245.791 74.038C245.669 73.926 245.555 73.7837 245.448 73.611L243.6 70.909H244.58C244.701 70.909 244.811 70.9417 244.909 71.007C245.007 71.0677 245.084 71.1517 245.14 71.259L246.645 73.499C246.747 73.653 246.871 73.772 247.016 73.856C247.16 73.9353 247.331 73.975 247.527 73.975H248.136V70.909H249.347V73.975H249.942C250.338 73.975 250.637 73.8163 250.838 73.499L252.343 71.259C252.399 71.1517 252.476 71.0677 252.574 71.007C252.676 70.9417 252.788 70.909 252.91 70.909H253.89L252.042 73.611C251.934 73.7837 251.818 73.926 251.692 74.038C251.57 74.1453 251.421 74.227 251.244 74.283C251.468 74.3483 251.657 74.444 251.811 74.57C251.965 74.696 252.102 74.8617 252.224 75.067L254.086 78ZM261.157 70.909V78H259.904V74.682H256.502V78H255.249V70.909H256.502V73.737H259.904V70.909H261.157ZM265.86 77.09C266.112 77.09 266.329 77.0597 266.511 76.999C266.698 76.9337 266.852 76.845 266.973 76.733C267.095 76.6163 267.186 76.481 267.246 76.327C267.307 76.173 267.337 76.005 267.337 75.823C267.337 75.655 267.312 75.4987 267.26 75.354C267.209 75.2047 267.123 75.074 267.001 74.962C266.885 74.85 266.731 74.7613 266.539 74.696C266.348 74.6307 266.115 74.598 265.839 74.598H264.327V77.09H265.86ZM265.839 73.688C266.329 73.688 266.74 73.7463 267.071 73.863C267.407 73.9797 267.676 74.136 267.876 74.332C268.082 74.528 268.229 74.7543 268.317 75.011C268.406 75.2677 268.45 75.5337 268.45 75.809C268.45 76.1263 268.394 76.4203 268.282 76.691C268.17 76.957 268.005 77.188 267.785 77.384C267.566 77.5753 267.295 77.727 266.973 77.839C266.651 77.9463 266.28 78 265.86 78H263.137V70.909H264.327V73.688H265.839ZM271.257 70.909V78H270.011V70.909H271.257ZM281.709 77.09V71.889H279.462C279.415 72.617 279.35 73.261 279.266 73.821C279.182 74.381 279.084 74.8733 278.972 75.298C278.865 75.718 278.743 76.075 278.608 76.369C278.477 76.663 278.34 76.9033 278.195 77.09H281.709ZM284.215 77.055V80.058C284.215 80.1793 284.18 80.2727 284.11 80.338C284.045 80.408 283.958 80.443 283.851 80.443H283.088V78H277.124V80.086C277.124 80.1747 277.096 80.2563 277.04 80.331C276.989 80.4057 276.902 80.443 276.781 80.443H275.997V77.09H276.228C276.391 77.09 276.552 77.062 276.711 77.006C276.874 76.95 277.031 76.845 277.18 76.691C277.329 76.5323 277.469 76.3107 277.6 76.026C277.735 75.7413 277.857 75.3703 277.964 74.913C278.071 74.4557 278.165 73.9003 278.244 73.247C278.323 72.589 278.386 71.8097 278.433 70.909H282.92V77.055H284.215ZM291.693 78H290.447V71.889H288.207C288.151 72.7897 288.067 73.569 287.955 74.227C287.843 74.8803 287.708 75.438 287.549 75.9C287.395 76.3573 287.22 76.7307 287.024 77.02C286.833 77.3047 286.63 77.5263 286.415 77.685C286.205 77.8437 285.986 77.951 285.757 78.007C285.533 78.063 285.309 78.091 285.085 78.091C284.689 78.091 284.49 78.028 284.49 77.902V77.111H284.854C285.013 77.111 285.174 77.083 285.337 77.027C285.501 76.971 285.659 76.8637 285.813 76.705C285.972 76.5463 286.124 76.3247 286.268 76.04C286.413 75.7507 286.544 75.3773 286.66 74.92C286.782 74.458 286.884 73.9003 286.968 73.247C287.057 72.589 287.125 71.8097 287.171 70.909H291.693V78ZM297.398 74.22V71.749H296.208C295.942 71.749 295.718 71.7887 295.536 71.868C295.354 71.9427 295.207 72.0407 295.095 72.162C294.987 72.2787 294.91 72.4117 294.864 72.561C294.817 72.7057 294.794 72.8503 294.794 72.995C294.794 73.3777 294.934 73.6787 295.214 73.898C295.494 74.1127 295.876 74.22 296.362 74.22H297.398ZM298.588 70.909V78H297.398V75.011H296.852C296.721 75.011 296.611 75.0227 296.523 75.046C296.439 75.0647 296.364 75.0927 296.299 75.13C296.238 75.1673 296.184 75.2163 296.138 75.277C296.091 75.333 296.042 75.3983 295.991 75.473L294.437 77.566C294.357 77.7153 294.259 77.825 294.143 77.895C294.031 77.965 293.865 78 293.646 78H292.778L294.836 75.326C295.004 75.046 295.225 74.8593 295.501 74.766C295.141 74.7193 294.838 74.6353 294.591 74.514C294.343 74.3927 294.14 74.2503 293.982 74.087C293.828 73.919 293.716 73.7347 293.646 73.534C293.576 73.3333 293.541 73.1303 293.541 72.925C293.541 72.6823 293.587 72.4397 293.681 72.197C293.779 71.9543 293.933 71.7397 294.143 71.553C294.353 71.3617 294.623 71.2077 294.955 71.091C295.291 70.9697 295.697 70.909 296.173 70.909H298.588ZM86.895 99H85.642V92.861H82.24V99H80.987V91.909H86.895V99ZM90.1287 97.292C90.3573 97.6 90.607 97.817 90.8777 97.943C91.1483 98.069 91.4517 98.132 91.7877 98.132C92.4503 98.132 92.959 97.8963 93.3137 97.425C93.6683 96.9537 93.8457 96.2817 93.8457 95.409C93.8457 94.947 93.8037 94.5503 93.7197 94.219C93.6403 93.8877 93.5237 93.617 93.3697 93.407C93.2157 93.1923 93.0267 93.036 92.8027 92.938C92.5787 92.84 92.3243 92.791 92.0397 92.791C91.6337 92.791 91.2767 92.8843 90.9687 93.071C90.6653 93.2577 90.3853 93.5213 90.1287 93.862V97.292ZM90.0657 93.008C90.3643 92.6393 90.7097 92.343 91.1017 92.119C91.4937 91.895 91.9417 91.783 92.4457 91.783C92.8563 91.783 93.2273 91.8623 93.5587 92.021C93.89 92.175 94.1723 92.406 94.4057 92.714C94.639 93.0173 94.8187 93.3953 94.9447 93.848C95.0707 94.3007 95.1337 94.821 95.1337 95.409C95.1337 95.9317 95.0637 96.4193 94.9237 96.872C94.7837 97.32 94.5807 97.7097 94.3147 98.041C94.0533 98.3677 93.7313 98.6267 93.3487 98.818C92.9707 99.0047 92.5437 99.098 92.0677 99.098C91.6337 99.098 91.2603 99.0257 90.9477 98.881C90.6397 98.7317 90.3667 98.5263 90.1287 98.265V101.401H88.8757V91.909H89.6247C89.802 91.909 89.9117 91.9953 89.9537 92.168L90.0657 93.008ZM99.6987 91.797C100.217 91.797 100.683 91.8833 101.099 92.056C101.514 92.2287 101.869 92.4737 102.163 92.791C102.457 93.1083 102.681 93.4933 102.835 93.946C102.993 94.394 103.073 94.8957 103.073 95.451C103.073 96.011 102.993 96.515 102.835 96.963C102.681 97.411 102.457 97.7937 102.163 98.111C101.869 98.4283 101.514 98.6733 101.099 98.846C100.683 99.014 100.217 99.098 99.6987 99.098C99.176 99.098 98.7047 99.014 98.2847 98.846C97.8693 98.6733 97.5147 98.4283 97.2207 98.111C96.9267 97.7937 96.7003 97.411 96.5417 96.963C96.3877 96.515 96.3107 96.011 96.3107 95.451C96.3107 94.8957 96.3877 94.394 96.5417 93.946C96.7003 93.4933 96.9267 93.1083 97.2207 92.791C97.5147 92.4737 97.8693 92.2287 98.2847 92.056C98.7047 91.8833 99.176 91.797 99.6987 91.797ZM99.6987 98.125C100.399 98.125 100.921 97.8917 101.267 97.425C101.612 96.9537 101.785 96.298 101.785 95.458C101.785 94.6133 101.612 93.9553 101.267 93.484C100.921 93.0127 100.399 92.777 99.6987 92.777C99.344 92.777 99.0337 92.8377 98.7677 92.959C98.5063 93.0803 98.287 93.2553 98.1097 93.484C97.937 93.7127 97.8063 93.995 97.7177 94.331C97.6337 94.6623 97.5917 95.038 97.5917 95.458C97.5917 96.298 97.7643 96.9537 98.1097 97.425C98.4597 97.8917 98.9893 98.125 99.6987 98.125ZM109.279 98.09V92.889H107.032C106.986 93.617 106.92 94.261 106.836 94.821C106.752 95.381 106.654 95.8733 106.542 96.298C106.435 96.718 106.314 97.075 106.178 97.369C106.048 97.663 105.91 97.9033 105.765 98.09H109.279ZM111.785 98.055V101.058C111.785 101.179 111.75 101.273 111.68 101.338C111.615 101.408 111.529 101.443 111.421 101.443H110.658V99H104.694V101.086C104.694 101.175 104.666 101.256 104.61 101.331C104.559 101.406 104.473 101.443 104.351 101.443H103.567V98.09H103.798C103.962 98.09 104.123 98.062 104.281 98.006C104.445 97.95 104.601 97.845 104.75 97.691C104.9 97.5323 105.04 97.3107 105.17 97.026C105.306 96.7413 105.427 96.3703 105.534 95.913C105.642 95.4557 105.735 94.9003 105.814 94.247C105.894 93.589 105.957 92.8097 106.003 91.909H110.49V98.055H111.785ZM116.891 95.808C116.317 95.8267 115.827 95.8733 115.421 95.948C115.019 96.018 114.69 96.1113 114.434 96.228C114.182 96.3447 113.997 96.4823 113.881 96.641C113.769 96.7997 113.713 96.977 113.713 97.173C113.713 97.3597 113.743 97.5207 113.804 97.656C113.864 97.7913 113.946 97.9033 114.049 97.992C114.156 98.076 114.28 98.139 114.42 98.181C114.564 98.2183 114.718 98.237 114.882 98.237C115.101 98.237 115.302 98.216 115.484 98.174C115.666 98.1273 115.836 98.062 115.995 97.978C116.158 97.894 116.312 97.7937 116.457 97.677C116.606 97.5603 116.751 97.4273 116.891 97.278V95.808ZM112.866 92.91C113.258 92.532 113.68 92.2497 114.133 92.063C114.585 91.8763 115.087 91.783 115.638 91.783C116.034 91.783 116.387 91.8483 116.695 91.979C117.003 92.1097 117.262 92.2917 117.472 92.525C117.682 92.7583 117.84 93.0407 117.948 93.372C118.055 93.7033 118.109 94.0673 118.109 94.464V99H117.556C117.434 99 117.341 98.9813 117.276 98.944C117.21 98.902 117.159 98.8227 117.122 98.706L116.982 98.034C116.795 98.2067 116.613 98.3607 116.436 98.496C116.258 98.6267 116.072 98.7387 115.876 98.832C115.68 98.9207 115.47 98.9883 115.246 99.035C115.026 99.0863 114.781 99.112 114.511 99.112C114.235 99.112 113.976 99.0747 113.734 99C113.491 98.9207 113.279 98.804 113.097 98.65C112.919 98.496 112.777 98.3023 112.67 98.069C112.567 97.831 112.516 97.551 112.516 97.229C112.516 96.949 112.593 96.6807 112.747 96.424C112.901 96.1627 113.15 95.9317 113.496 95.731C113.841 95.5303 114.291 95.367 114.847 95.241C115.402 95.1103 116.083 95.0357 116.891 95.017V94.464C116.891 93.9133 116.772 93.498 116.534 93.218C116.296 92.9333 115.948 92.791 115.491 92.791C115.183 92.791 114.924 92.8307 114.714 92.91C114.508 92.9847 114.329 93.071 114.175 93.169C114.025 93.2623 113.895 93.3487 113.783 93.428C113.675 93.5027 113.568 93.54 113.461 93.54C113.377 93.54 113.304 93.519 113.244 93.477C113.183 93.4303 113.132 93.3743 113.09 93.309L112.866 92.91ZM129.877 99H129.009C128.785 99 128.612 98.965 128.491 98.895C128.374 98.825 128.283 98.7153 128.218 98.566L126.839 96.361C126.61 95.997 126.281 95.815 125.852 95.815H125.138V99.007H123.927V95.815H123.22C123.01 95.815 122.818 95.8617 122.646 95.955C122.478 96.0483 122.34 96.1837 122.233 96.361L120.854 98.566C120.784 98.7153 120.688 98.825 120.567 98.895C120.45 98.965 120.28 99 120.056 99H119.195L121.057 96.067C121.178 95.8617 121.316 95.696 121.47 95.57C121.624 95.444 121.813 95.3483 122.037 95.283C121.859 95.227 121.708 95.1453 121.582 95.038C121.46 94.926 121.346 94.7837 121.239 94.611L119.391 91.909H120.371C120.492 91.909 120.602 91.9417 120.7 92.007C120.798 92.0677 120.875 92.1517 120.931 92.259L122.436 94.499C122.538 94.653 122.662 94.772 122.807 94.856C122.951 94.9353 123.122 94.975 123.318 94.975H123.927V91.909H125.138V94.975H125.733C126.129 94.975 126.428 94.8163 126.629 94.499L128.134 92.259C128.19 92.1517 128.267 92.0677 128.365 92.007C128.467 91.9417 128.579 91.909 128.701 91.909H129.681L127.833 94.611C127.725 94.7837 127.609 94.926 127.483 95.038C127.361 95.1453 127.212 95.227 127.035 95.283C127.259 95.3483 127.448 95.444 127.602 95.57C127.756 95.696 127.893 95.8617 128.015 96.067L129.877 99ZM137.123 91.909V99H135.877V94.184C135.877 94.0907 135.881 93.9903 135.891 93.883C135.9 93.7757 135.912 93.6683 135.926 93.561C135.884 93.6543 135.842 93.7407 135.8 93.82C135.758 93.8993 135.713 93.9717 135.667 94.037L132.244 98.692C132.192 98.7667 132.127 98.839 132.048 98.909C131.973 98.9743 131.889 99.007 131.796 99.007H131.04V91.916H132.293V96.732C132.293 96.8207 132.288 96.9187 132.279 97.026C132.269 97.1287 132.258 97.2337 132.244 97.341C132.286 97.2523 132.328 97.1707 132.37 97.096C132.412 97.0167 132.454 96.9443 132.496 96.879L135.919 92.224C135.97 92.1493 136.035 92.0793 136.115 92.014C136.194 91.944 136.28 91.909 136.374 91.909H137.123ZM148.757 91.909V99H147.512V94.184C147.512 94.0907 147.516 93.9903 147.526 93.883C147.535 93.7757 147.547 93.6683 147.561 93.561C147.519 93.6543 147.477 93.7407 147.435 93.82C147.393 93.8993 147.348 93.9717 147.302 94.037L143.879 98.692C143.827 98.7667 143.762 98.839 143.683 98.909C143.608 98.9743 143.524 99.007 143.431 99.007H142.675V91.916H143.928V96.732C143.928 96.8207 143.923 96.9187 143.914 97.026C143.904 97.1287 143.893 97.2337 143.879 97.341C143.921 97.2523 143.963 97.1707 144.005 97.096C144.047 97.0167 144.089 96.9443 144.131 96.879L147.554 92.224C147.605 92.1493 147.67 92.0793 147.75 92.014C147.829 91.944 147.915 91.909 148.009 91.909H148.757ZM156.943 99H155.697V92.889H153.457C153.401 93.7897 153.317 94.569 153.205 95.227C153.093 95.8803 152.958 96.438 152.799 96.9C152.645 97.3573 152.47 97.7307 152.274 98.02C152.083 98.3047 151.88 98.5263 151.665 98.685C151.455 98.8437 151.236 98.951 151.007 99.007C150.783 99.063 150.559 99.091 150.335 99.091C149.939 99.091 149.74 99.028 149.74 98.902V98.111H150.104C150.263 98.111 150.424 98.083 150.587 98.027C150.751 97.971 150.909 97.8637 151.063 97.705C151.222 97.5463 151.374 97.3247 151.518 97.04C151.663 96.7507 151.794 96.3773 151.91 95.92C152.032 95.458 152.134 94.9003 152.218 94.247C152.307 93.589 152.375 92.8097 152.421 91.909H156.943V99ZM165 91.909V99H163.754V94.184C163.754 94.0907 163.758 93.9903 163.768 93.883C163.777 93.7757 163.789 93.6683 163.803 93.561C163.761 93.6543 163.719 93.7407 163.677 93.82C163.635 93.8993 163.59 93.9717 163.544 94.037L160.121 98.692C160.069 98.7667 160.004 98.839 159.925 98.909C159.85 98.9743 159.766 99.007 159.673 99.007H158.917V91.916H160.17V96.732C160.17 96.8207 160.165 96.9187 160.156 97.026C160.146 97.1287 160.135 97.2337 160.121 97.341C160.163 97.2523 160.205 97.1707 160.247 97.096C160.289 97.0167 160.331 96.9443 160.373 96.879L163.796 92.224C163.847 92.1493 163.912 92.0793 163.992 92.014C164.071 91.944 164.157 91.909 164.251 91.909H165ZM176.459 99H175.206V92.861H171.804V99H170.551V91.909H176.459V99ZM181.429 91.797C181.947 91.797 182.414 91.8833 182.829 92.056C183.244 92.2287 183.599 92.4737 183.893 92.791C184.187 93.1083 184.411 93.4933 184.565 93.946C184.724 94.394 184.803 94.8957 184.803 95.451C184.803 96.011 184.724 96.515 184.565 96.963C184.411 97.411 184.187 97.7937 183.893 98.111C183.599 98.4283 183.244 98.6733 182.829 98.846C182.414 99.014 181.947 99.098 181.429 99.098C180.906 99.098 180.435 99.014 180.015 98.846C179.6 98.6733 179.245 98.4283 178.951 98.111C178.657 97.7937 178.431 97.411 178.272 96.963C178.118 96.515 178.041 96.011 178.041 95.451C178.041 94.8957 178.118 94.394 178.272 93.946C178.431 93.4933 178.657 93.1083 178.951 92.791C179.245 92.4737 179.6 92.2287 180.015 92.056C180.435 91.8833 180.906 91.797 181.429 91.797ZM181.429 98.125C182.129 98.125 182.652 97.8917 182.997 97.425C183.342 96.9537 183.515 96.298 183.515 95.458C183.515 94.6133 183.342 93.9553 182.997 93.484C182.652 93.0127 182.129 92.777 181.429 92.777C181.074 92.777 180.764 92.8377 180.498 92.959C180.237 93.0803 180.017 93.2553 179.84 93.484C179.667 93.7127 179.537 93.995 179.448 94.331C179.364 94.6623 179.322 95.038 179.322 95.458C179.322 96.298 179.495 96.9537 179.84 97.425C180.19 97.8917 180.72 98.125 181.429 98.125ZM190.688 92.259C190.754 92.1563 190.84 92.0723 190.947 92.007C191.055 91.9417 191.169 91.909 191.29 91.909H192.263L190.422 94.611C190.31 94.7837 190.194 94.926 190.072 95.038C189.951 95.1453 189.802 95.2293 189.624 95.29C189.848 95.3507 190.037 95.4463 190.191 95.577C190.345 95.703 190.483 95.8663 190.604 96.067L192.466 99H191.598C191.374 99 191.202 98.9627 191.08 98.888C190.959 98.8133 190.854 98.706 190.765 98.566L189.386 96.361C189.167 95.997 188.838 95.815 188.399 95.815H187.636V99.007H186.383V91.909H187.636V94.975H188.308C188.682 94.975 188.973 94.8163 189.183 94.499L190.688 92.259ZM199.748 91.909L195.793 101.093C195.751 101.186 195.697 101.261 195.632 101.317C195.571 101.373 195.475 101.401 195.345 101.401H194.421L195.716 98.587L192.79 91.909H193.868C193.975 91.909 194.059 91.937 194.12 91.993C194.185 92.0443 194.229 92.1027 194.253 92.168L196.15 96.634C196.224 96.83 196.287 97.0353 196.339 97.25C196.404 97.0307 196.474 96.823 196.549 96.627L198.39 92.168C198.418 92.0933 198.464 92.0327 198.53 91.986C198.6 91.9347 198.677 91.909 198.761 91.909H199.748ZM206.756 99H205.503V92.861H202.101V99H200.848V91.909H206.756V99ZM213.042 92.259C213.107 92.1563 213.194 92.0723 213.301 92.007C213.408 91.9417 213.523 91.909 213.644 91.909H214.617L212.776 94.611C212.664 94.7837 212.547 94.926 212.426 95.038C212.305 95.1453 212.155 95.2293 211.978 95.29C212.202 95.3507 212.391 95.4463 212.545 95.577C212.699 95.703 212.837 95.8663 212.958 96.067L214.82 99H213.952C213.728 99 213.555 98.9627 213.434 98.888C213.313 98.8133 213.208 98.706 213.119 98.566L211.74 96.361C211.521 95.997 211.192 95.815 210.753 95.815H209.99V99.007H208.737V91.909H209.99V94.975H210.662C211.035 94.975 211.327 94.8163 211.537 94.499L213.042 92.259ZM222.066 91.909V99H220.82V94.184C220.82 94.0907 220.825 93.9903 220.834 93.883C220.843 93.7757 220.855 93.6683 220.869 93.561C220.827 93.6543 220.785 93.7407 220.743 93.82C220.701 93.8993 220.657 93.9717 220.61 94.037L217.187 98.692C217.136 98.7667 217.07 98.839 216.991 98.909C216.916 98.9743 216.832 99.007 216.739 99.007H215.983V91.916H217.236V96.732C217.236 96.8207 217.231 96.9187 217.222 97.026C217.213 97.1287 217.201 97.2337 217.187 97.341C217.229 97.2523 217.271 97.1707 217.313 97.096C217.355 97.0167 217.397 96.9443 217.439 96.879L220.862 92.224C220.913 92.1493 220.979 92.0793 221.058 92.014C221.137 91.944 221.224 91.909 221.317 91.909H222.066ZM231.923 92.259C231.988 92.1563 232.075 92.0723 232.182 92.007C232.289 91.9417 232.404 91.909 232.525 91.909H233.498L231.657 94.611C231.545 94.7837 231.428 94.926 231.307 95.038C231.186 95.1453 231.036 95.2293 230.859 95.29C231.083 95.3507 231.272 95.4463 231.426 95.577C231.58 95.703 231.718 95.8663 231.839 96.067L233.701 99H232.833C232.609 99 232.436 98.9627 232.315 98.888C232.194 98.8133 232.089 98.706 232 98.566L230.621 96.361C230.402 95.997 230.073 95.815 229.634 95.815H228.871V99.007H227.618V91.909H228.871V94.975H229.543C229.916 94.975 230.208 94.8163 230.418 94.499L231.923 92.259ZM237.587 98.125C238.054 98.125 238.422 98.0177 238.693 97.803C238.964 97.5837 239.099 97.285 239.099 96.907C239.099 96.739 239.073 96.5873 239.022 96.452C238.971 96.312 238.887 96.1907 238.77 96.088C238.653 95.9853 238.497 95.906 238.301 95.85C238.11 95.794 237.874 95.766 237.594 95.766H236.061V98.125H237.587ZM236.061 92.749V94.975H237.426C237.631 94.975 237.82 94.947 237.993 94.891C238.17 94.8303 238.322 94.7487 238.448 94.646C238.574 94.5387 238.672 94.4127 238.742 94.268C238.812 94.1187 238.847 93.9553 238.847 93.778C238.847 93.6473 238.824 93.5213 238.777 93.4C238.73 93.274 238.651 93.1643 238.539 93.071C238.427 92.973 238.28 92.896 238.098 92.84C237.916 92.7793 237.692 92.749 237.426 92.749H236.061ZM237.461 91.909C237.9 91.909 238.275 91.9533 238.588 92.042C238.901 92.1307 239.157 92.252 239.358 92.406C239.559 92.5553 239.706 92.7327 239.799 92.938C239.892 93.1433 239.939 93.3627 239.939 93.596C239.939 93.75 239.918 93.911 239.876 94.079C239.834 94.247 239.759 94.408 239.652 94.562C239.549 94.716 239.407 94.856 239.225 94.982C239.048 95.1033 238.824 95.199 238.553 95.269C239.094 95.3623 239.512 95.5513 239.806 95.836C240.1 96.116 240.247 96.487 240.247 96.949C240.247 97.2943 240.177 97.5953 240.037 97.852C239.902 98.104 239.713 98.3163 239.47 98.489C239.232 98.6617 238.952 98.79 238.63 98.874C238.308 98.958 237.963 99 237.594 99H234.864V91.909H237.461ZM245.652 95.808C245.078 95.8267 244.588 95.8733 244.182 95.948C243.781 96.018 243.452 96.1113 243.195 96.228C242.943 96.3447 242.759 96.4823 242.642 96.641C242.53 96.7997 242.474 96.977 242.474 97.173C242.474 97.3597 242.505 97.5207 242.565 97.656C242.626 97.7913 242.708 97.9033 242.81 97.992C242.918 98.076 243.041 98.139 243.181 98.181C243.326 98.2183 243.48 98.237 243.643 98.237C243.863 98.237 244.063 98.216 244.245 98.174C244.427 98.1273 244.598 98.062 244.756 97.978C244.92 97.894 245.074 97.7937 245.218 97.677C245.368 97.5603 245.512 97.4273 245.652 97.278V95.808ZM241.627 92.91C242.019 92.532 242.442 92.2497 242.894 92.063C243.347 91.8763 243.849 91.783 244.399 91.783C244.796 91.783 245.148 91.8483 245.456 91.979C245.764 92.1097 246.023 92.2917 246.233 92.525C246.443 92.7583 246.602 93.0407 246.709 93.372C246.817 93.7033 246.87 94.0673 246.87 94.464V99H246.317C246.196 99 246.103 98.9813 246.037 98.944C245.972 98.902 245.921 98.8227 245.883 98.706L245.743 98.034C245.557 98.2067 245.375 98.3607 245.197 98.496C245.02 98.6267 244.833 98.7387 244.637 98.832C244.441 98.9207 244.231 98.9883 244.007 99.035C243.788 99.0863 243.543 99.112 243.272 99.112C242.997 99.112 242.738 99.0747 242.495 99C242.253 98.9207 242.04 98.804 241.858 98.65C241.681 98.496 241.539 98.3023 241.431 98.069C241.329 97.831 241.277 97.551 241.277 97.229C241.277 96.949 241.354 96.6807 241.508 96.424C241.662 96.1627 241.912 95.9317 242.257 95.731C242.603 95.5303 243.053 95.367 243.608 95.241C244.164 95.1103 244.845 95.0357 245.652 95.017V94.464C245.652 93.9133 245.533 93.498 245.295 93.218C245.057 92.9333 244.71 92.791 244.252 92.791C243.944 92.791 243.685 92.8307 243.475 92.91C243.27 92.9847 243.09 93.071 242.936 93.169C242.787 93.2623 242.656 93.3487 242.544 93.428C242.437 93.5027 242.33 93.54 242.222 93.54C242.138 93.54 242.066 93.519 242.005 93.477C241.945 93.4303 241.893 93.3743 241.851 93.309L241.627 92.91ZM250.021 97.292C250.25 97.6 250.5 97.817 250.77 97.943C251.041 98.069 251.344 98.132 251.68 98.132C252.343 98.132 252.852 97.8963 253.206 97.425C253.561 96.9537 253.738 96.2817 253.738 95.409C253.738 94.947 253.696 94.5503 253.612 94.219C253.533 93.8877 253.416 93.617 253.262 93.407C253.108 93.1923 252.919 93.036 252.695 92.938C252.471 92.84 252.217 92.791 251.932 92.791C251.526 92.791 251.169 92.8843 250.861 93.071C250.558 93.2577 250.278 93.5213 250.021 93.862V97.292ZM249.958 93.008C250.257 92.6393 250.602 92.343 250.994 92.119C251.386 91.895 251.834 91.783 252.338 91.783C252.749 91.783 253.12 91.8623 253.451 92.021C253.783 92.175 254.065 92.406 254.298 92.714C254.532 93.0173 254.711 93.3953 254.837 93.848C254.963 94.3007 255.026 94.821 255.026 95.409C255.026 95.9317 254.956 96.4193 254.816 96.872C254.676 97.32 254.473 97.7097 254.207 98.041C253.946 98.3677 253.624 98.6267 253.241 98.818C252.863 99.0047 252.436 99.098 251.96 99.098C251.526 99.098 251.153 99.0257 250.84 98.881C250.532 98.7317 250.259 98.5263 250.021 98.265V101.401H248.768V91.909H249.517C249.695 91.909 249.804 91.9953 249.846 92.168L249.958 93.008ZM262.305 92.861H259.582V99H258.336V92.861H255.613V91.909H262.305V92.861ZM269.576 91.909V99H268.33V94.184C268.33 94.0907 268.335 93.9903 268.344 93.883C268.353 93.7757 268.365 93.6683 268.379 93.561C268.337 93.6543 268.295 93.7407 268.253 93.82C268.211 93.8993 268.167 93.9717 268.12 94.037L264.697 98.692C264.646 98.7667 264.58 98.839 264.501 98.909C264.426 98.9743 264.342 99.007 264.249 99.007H263.493V91.916H264.746V96.732C264.746 96.8207 264.741 96.9187 264.732 97.026C264.723 97.1287 264.711 97.2337 264.697 97.341C264.739 97.2523 264.781 97.1707 264.823 97.096C264.865 97.0167 264.907 96.9443 264.949 96.879L268.372 92.224C268.423 92.1493 268.489 92.0793 268.568 92.014C268.647 91.944 268.734 91.909 268.827 91.909H269.576ZM272.799 97.292C273.027 97.6 273.277 97.817 273.548 97.943C273.818 98.069 274.122 98.132 274.458 98.132C275.12 98.132 275.629 97.8963 275.984 97.425C276.338 96.9537 276.516 96.2817 276.516 95.409C276.516 94.947 276.474 94.5503 276.39 94.219C276.31 93.8877 276.194 93.617 276.04 93.407C275.886 93.1923 275.697 93.036 275.473 92.938C275.249 92.84 274.994 92.791 274.71 92.791C274.304 92.791 273.947 92.8843 273.639 93.071C273.335 93.2577 273.055 93.5213 272.799 93.862V97.292ZM272.736 93.008C273.034 92.6393 273.38 92.343 273.772 92.119C274.164 91.895 274.612 91.783 275.116 91.783C275.526 91.783 275.897 91.8623 276.229 92.021C276.56 92.175 276.842 92.406 277.076 92.714C277.309 93.0173 277.489 93.3953 277.615 93.848C277.741 94.3007 277.804 94.821 277.804 95.409C277.804 95.9317 277.734 96.4193 277.594 96.872C277.454 97.32 277.251 97.7097 276.985 98.041C276.723 98.3677 276.401 98.6267 276.019 98.818C275.641 99.0047 275.214 99.098 274.738 99.098C274.304 99.098 273.93 99.0257 273.618 98.881C273.31 98.7317 273.037 98.5263 272.799 98.265V101.401H271.546V91.909H272.295C272.472 91.909 272.582 91.9953 272.624 92.168L272.736 93.008ZM282.103 98.09C282.355 98.09 282.572 98.0597 282.754 97.999C282.94 97.9337 283.094 97.845 283.216 97.733C283.337 97.6163 283.428 97.481 283.489 97.327C283.549 97.173 283.58 97.005 283.58 96.823C283.58 96.655 283.554 96.4987 283.503 96.354C283.451 96.2047 283.365 96.074 283.244 95.962C283.127 95.85 282.973 95.7613 282.782 95.696C282.59 95.6307 282.357 95.598 282.082 95.598H280.57V98.09H282.103ZM282.082 94.688C282.572 94.688 282.982 94.7463 283.314 94.863C283.65 94.9797 283.918 95.136 284.119 95.332C284.324 95.528 284.471 95.7543 284.56 96.011C284.648 96.2677 284.693 96.5337 284.693 96.809C284.693 97.1263 284.637 97.4203 284.525 97.691C284.413 97.957 284.247 98.188 284.028 98.384C283.808 98.5753 283.538 98.727 283.216 98.839C282.894 98.9463 282.523 99 282.103 99H279.38V91.909H280.57V94.688H282.082ZM287.5 91.909V99H286.254V91.909H287.5ZM288.94 89.865C289.085 89.7297 289.243 89.6013 289.416 89.48C289.593 89.3587 289.785 89.2513 289.99 89.158C290.2 89.0647 290.424 88.9923 290.662 88.941C290.905 88.885 291.166 88.857 291.446 88.857C291.815 88.857 292.155 88.9107 292.468 89.018C292.785 89.1253 293.058 89.277 293.287 89.473C293.516 89.669 293.695 89.907 293.826 90.187C293.957 90.467 294.022 90.782 294.022 91.132C294.022 91.4867 293.968 91.7923 293.861 92.049C293.758 92.3057 293.625 92.532 293.462 92.728C293.303 92.9193 293.128 93.0873 292.937 93.232C292.75 93.372 292.573 93.505 292.405 93.631C292.237 93.757 292.092 93.883 291.971 94.009C291.854 94.135 291.787 94.275 291.768 94.429L291.642 95.5H290.788L290.704 94.338C290.685 94.128 290.725 93.946 290.823 93.792C290.921 93.6333 291.049 93.4863 291.208 93.351C291.367 93.211 291.542 93.0757 291.733 92.945C291.924 92.8097 292.102 92.6603 292.265 92.497C292.433 92.3337 292.573 92.1493 292.685 91.944C292.797 91.734 292.853 91.4843 292.853 91.195C292.853 90.9943 292.813 90.8123 292.734 90.649C292.655 90.4857 292.547 90.348 292.412 90.236C292.277 90.1193 292.116 90.0307 291.929 89.97C291.747 89.9093 291.551 89.879 291.341 89.879C291.056 89.879 290.811 89.914 290.606 89.984C290.405 90.054 290.235 90.131 290.095 90.215C289.955 90.299 289.841 90.376 289.752 90.446C289.668 90.516 289.598 90.551 289.542 90.551C289.425 90.551 289.334 90.4973 289.269 90.39L288.94 89.865ZM290.305 98.23C290.305 98.1087 290.326 97.9943 290.368 97.887C290.415 97.7797 290.475 97.6863 290.55 97.607C290.629 97.5277 290.723 97.4647 290.83 97.418C290.937 97.3713 291.052 97.348 291.173 97.348C291.294 97.348 291.409 97.3713 291.516 97.418C291.623 97.4647 291.717 97.5277 291.796 97.607C291.875 97.6863 291.938 97.7797 291.985 97.887C292.032 97.9943 292.055 98.1087 292.055 98.23C292.055 98.356 292.032 98.4727 291.985 98.58C291.938 98.6827 291.875 98.7737 291.796 98.853C291.717 98.9323 291.623 98.993 291.516 99.035C291.409 99.0817 291.294 99.105 291.173 99.105C291.052 99.105 290.937 99.0817 290.83 99.035C290.723 98.993 290.629 98.9323 290.55 98.853C290.475 98.7737 290.415 98.6827 290.368 98.58C290.326 98.4727 290.305 98.356 290.305 98.23Z" fill="#475658"/>
<path d="M31.05 38.45V44H7.05V38.45H15.84V13.16C15.84 12.16 15.87 11.13 15.93 10.07L9.69 15.29C9.33 15.57 8.97 15.75 8.61 15.83C8.27 15.89 7.94 15.89 7.62 15.83C7.32 15.77 7.05 15.67 6.81 15.53C6.57 15.37 6.39 15.2 6.27 15.02L3.93 11.81L17.16 0.559998H23.25V38.45H31.05Z" fill="#03073C"/>
</svg>
