<svg width="83" height="96" fill="none" xmlns="http://www.w3.org/2000/svg"><path d="M66.164 7.352A11.368 11.368 0 0058.092 4a11.368 11.368 0 00-8.071 3.352l-8.81 8.83-8.357-8.38a11.368 11.368 0 00-8.072-3.351 11.368 11.368 0 00-8.071 3.351c-3.299 3.002-3.346 8.04-3.346 8.04l-.022 33.427c0 2.227 1.273 3.553 3.41 3.553h9.997c2.482 0 3.383-1.83 3.383-3.055V37.204c3.654 3.479 7.833 7.467 8.602 8.241.721.727 1.512 1.437 2.551 1.469.027 0 1.04.26 2.843-1.543.87-.875 4.794-4.79 8.48-8.47v12.866c0 1.23.901 3.055 3.378 3.055h9.996c2.132 0 3.41-1.331 3.41-3.553l.022-33.872c.01-2.944-1.013-5.802-3.251-8.045z" fill="#fff"/><path d="M66.164 7.352A11.368 11.368 0 0058.092 4a11.368 11.368 0 00-8.071 3.352l-8.81 8.83-8.357-8.38a11.368 11.368 0 00-8.072-3.351 11.368 11.368 0 00-8.071 3.351c-3.299 3.002-3.346 8.04-3.346 8.04l-.022 33.427c0 2.227 1.273 3.553 3.41 3.553h9.997c2.482 0 3.383-1.83 3.383-3.055V37.204c3.654 3.479 7.833 7.467 8.602 8.241.721.727 1.512 1.437 2.551 1.469.027 0 1.04.26 2.843-1.543.87-.875 4.794-4.79 8.48-8.47v12.866c0 1.23.901 3.055 3.378 3.055h9.996c2.132 0 3.41-1.331 3.41-3.553l.022-33.872c.01-2.944-1.013-5.802-3.251-8.045z" stroke="#fff" stroke-width="6.7" stroke-miterlimit="10"/><path d="M66.768 17.958a7.8 7.8 0 00.133-.504v-.005.005c-.037.17-.085.334-.133.504zm-2.365-8.75a8.509 8.509 0 00-.515-.467c.175.154.35.302.515.467a9.062 9.062 0 012.672 6.449c0 .132-.02.265-.037.397.016-.132.037-.26.037-.397a9.066 9.066 0 00-2.672-6.45z" fill="#475658"/><path d="M64.472 22.026c-.027.026-.048.053-.075.08l-3.203 3.202a9.011 9.011 0 01-5.335 1.761 8.66 8.66 0 01-1.543-.154 8.713 8.713 0 01-3.023-1.14c-.064-.037-.138-.069-.201-.106a8.479 8.479 0 01-.955-.737c-.196-.164-.403-.302-.589-.483l-.291-.291-1.172-1.172-5.192-5.192 8.596-8.597a9.062 9.062 0 016.449-2.673c3.924 0 6.29 2.509 6.454 2.673a9.07 9.07 0 011.846 2.673 9.066 9.066 0 01.827 3.776c.005.148.244 3.548-2.593 6.38zm2.524 26.893c0 1.182-.445 1.405-1.267 1.405h-9.854c-.997 0-1.225-.51-1.24-.912V34.88h-.006l10.988-10.989c.541-.54.987-1.103 1.374-1.665V48.92h.005zM42.712 43.61c-.827.827-1.13.918-1.257.907-.185-.005-.52-.324-1.097-.833-4.593-4.004-21.68-21.128-21.68-21.128-5.001-5.775-1.724-11.18 0-12.903a9.066 9.066 0 016.454-2.673c2.44 0 4.73.95 6.449 2.673l16.392 16.393c2.652 2.651 6.364 3.834 8.523 3.834a7593.016 7593.016 0 00-13.784 13.73zM28.31 49.407c0 .212-.09.912-1.241.912h-9.854c-.822 0-1.267-.223-1.267-1.406V22.556c.032.037.058.064.058.064.355.498.721.986 1.172 1.432l7.584 7.583-.032.032 1.252 1.183 2.333 2.333v14.224h-.005zm37.594-41.7a11.215 11.215 0 00-7.954-3.293c-2.88 0-5.754 1.097-7.955 3.293l-8.682 8.681-8.236-8.236a11.215 11.215 0 00-7.954-3.293c-2.88 0-5.76 1.098-7.955 3.293-3.251 2.954-3.294 7.908-3.294 7.908h-.02v32.859c0 2.19 1.256 3.494 3.356 3.494h9.854c2.444 0 3.33-1.797 3.33-3.006V37.055c3.6 3.42 7.716 7.345 8.48 8.104.71.71 1.49 1.41 2.514 1.442.026 0 1.028.26 2.8-1.517.859-.859 4.72-4.709 8.358-8.331v12.654c0 1.209.885 3.006 3.33 3.006h9.853c2.106 0 3.358-1.304 3.358-3.494l.02-33.3c.011-2.895-.996-5.706-3.203-7.912z" fill="#475658"/><path d="M66.248 11.88zM48.09 22.996l1.177 1.172-6.364-6.364 5.187 5.192z" fill="#D44B4B"/><path d="M67.07 15.657a9.042 9.042 0 00-.827-3.776 9.072 9.072 0 00-1.846-2.673c-.164-.165-2.54-2.673-6.448-2.673-2.44 0-4.73.95-6.454 2.673l-8.592 8.596 6.364 6.364.292.292c.18.18.392.318.589.483.307.26.62.52.954.731.064.043.138.07.202.107a8.82 8.82 0 003.023 1.14c.509.09 1.018.148 1.543.148a9.011 9.011 0 005.335-1.76s3.25-3.257 3.272-3.283c2.832-2.832 2.593-6.232 2.593-6.37z" fill="#D44B4B"/><path d="M57.949 6.535c.28 0 .28 0 0 0-2.44 0-4.73.95-6.454 2.673l-8.592 8.596L51.5 9.208a9.063 9.063 0 016.449-2.673zm6.454 15.575c.026-.026.048-.052.074-.079-.032.021-.053.053-.074.08z" fill="#475658"/><path d="M63.507 8.434c-.064-.048-.128-.09-.191-.138a9.053 9.053 0 011.797 5.425c0 .196.011 1.554-.583 3.14a9.147 9.147 0 01-2.09 3.314l-3.203 3.203a8.975 8.975 0 01-5.335 1.76c-.525 0-1.04-.063-1.543-.148a8.82 8.82 0 01-3.023-1.14c-.063-.037-.138-.069-.201-.106a8.479 8.479 0 01-.955-.737c-.143-.117-.286-.228-.43-.345l.34.34 1.172 1.172.292.291c.18.18.392.319.588.483.308.26.62.52.955.737.063.043.138.069.201.106a8.82 8.82 0 003.023 1.14c.51.09 1.018.149 1.544.149a9.011 9.011 0 005.334-1.76l3.204-3.204c2.922-2.922 2.673-6.253 2.673-6.449 0-2.434-.95-4.725-2.673-6.449a8.26 8.26 0 00-.897-.784z" fill="#D44B4B"/><path d="M12.42 79.322h-1.723c-.265 0-.403-.117-.403-.35v-7.456c0-.08-.037-.08-.117 0l-.96 2.545L7.51 78.48a1.05 1.05 0 01-.212.302c-.08.08-.196.117-.35.117H5.871a1.2 1.2 0 01-.377-.048c-.095-.032-.18-.132-.26-.302l-1.66-4.37-.933-2.614c-.016-.016-.037-.027-.058-.038-.027-.005-.037.006-.037.038v7.408c0 .234-.144.35-.42.35H.42c-.281 0-.419-.132-.419-.398V65.37c0-.313.164-.466.493-.466h1.448c.186 0 .334.015.435.047.1.032.201.149.292.35.047.122.137.356.27.69.133.334.286.726.456 1.166.17.446.355.918.552 1.416.196.499.37.971.535 1.411.165.446.313.833.446 1.167.132.334.222.562.27.69l1.146 3.06c.063.153.132.153.212 0 .032-.112.1-.314.212-.61.106-.298.228-.61.35-.934.127-.329.244-.636.35-.933a12 12 0 01.233-.61l2.525-6.518c.127-.265.37-.398.732-.398h1.394c.33 0 .493.154.493.467V78.92c0 .27-.143.403-.424.403zm7.881-8.644l-.562-2.689c-.016-.064-.043-.095-.08-.106-.037-.01-.069.027-.08.106l-.535 2.641-.726 3.341c-.016.08-.016.133 0 .165.015.031.069.047.164.047h2.429c.154 0 .201-.08.138-.233l-.748-3.272zm4.672 8.151a.51.51 0 01.01.302c-.026.122-.142.186-.36.186H22.73c-.25 0-.403-.1-.467-.302l-.535-2.34a.695.695 0 00-.106-.254c-.038-.047-.107-.069-.202-.069h-3.458c-.127 0-.201.032-.233.096a2.758 2.758 0 00-.095.212c-.032.122-.07.292-.117.504-.048.212-.096.435-.154.679-.053.243-.106.472-.154.689a9.448 9.448 0 01-.116.493.366.366 0 01-.175.233.54.54 0 01-.27.07h-1.799c-.217 0-.344-.048-.387-.144a.526.526 0 01-.01-.328l3.41-13.625c.08-.217.244-.328.493-.328h2.662a.89.89 0 01.281.037c.08.026.133.111.165.27l3.51 13.619zm10.119-11.704h-5.213c-.154 0-.255.031-.303.095a.414.414 0 00-.069.255V78.95c0 .25-.127.371-.37.371h-1.804c-.25 0-.371-.117-.371-.35V65.28c0-.25.122-.376.371-.376h7.764c.096 0 .18.026.255.08.08.052.116.142.116.27v1.516c-.005.239-.127.356-.376.356zm6.778 3.553l-.563-2.689c-.016-.064-.042-.095-.08-.106-.036-.01-.068.027-.079.106l-.536 2.641-.726 3.341c-.016.08-.016.133 0 .165.016.031.069.047.164.047h2.43c.153 0 .2-.08.137-.233l-.748-3.272zm4.672 8.151c.031.08.037.18.01.302-.021.122-.143.186-.36.186h-1.894c-.249 0-.403-.1-.466-.302l-.536-2.34a.694.694 0 00-.106-.254c-.037-.047-.106-.069-.202-.069h-3.457c-.128 0-.202.032-.234.096a2.76 2.76 0 00-.095.212c-.032.122-.07.292-.117.504-.047.212-.095.435-.154.679-.053.243-.106.472-.153.689a9.245 9.245 0 01-.117.493.366.366 0 01-.175.233.54.54 0 01-.27.07h-1.798c-.218 0-.345-.048-.387-.144a.527.527 0 01-.011-.328l3.41-13.625c.08-.217.244-.328.493-.328h2.662a.88.88 0 01.281.037c.08.021.133.111.165.27l3.51 13.619zm6.029-14.159c.732 0 1.384.095 1.952.291.567.196 1.044.461 1.426.796.382.334.674.742.875 1.214.202.477.303.992.303 1.554 0 .636-.17 1.235-.515 1.787-.345.552-.785.939-1.33 1.156-.033.016-.054.037-.06.069-.01.032.006.064.038.095.578.186 1.076.568 1.506 1.146.43.578.642 1.262.642 2.058 0 .731-.128 1.384-.377 1.951-.25.568-.6 1.05-1.05 1.448-.45.398-.986.7-1.602.912a6.163 6.163 0 01-2.02.318c-.45 0-.902-.031-1.352-.095a5.379 5.379 0 01-1.284-.34 4.89 4.89 0 01-1.135-.641 3.554 3.554 0 01-.901-1.029.563.563 0 01-.08-.318c.006-.085.075-.175.197-.27l1.24-.913c.138-.095.255-.132.34-.116.085.015.19.095.318.233.233.313.583.578 1.05.795a3.5 3.5 0 001.496.33c.716 0 1.299-.197 1.74-.584.444-.387.667-.912.667-1.565 0-.716-.228-1.267-.678-1.66-.451-.387-1.03-.583-1.73-.583h-1.495c-.25 0-.376-.133-.376-.398v-1.357c0-.138.02-.244.069-.313.047-.07.148-.106.302-.106h1.75c.562 0 1.023-.165 1.39-.493.365-.33.55-.764.55-1.31 0-.435-.169-.828-.503-1.167-.334-.345-.875-.515-1.623-.515-.329 0-.7.075-1.119.223a3.213 3.213 0 00-1.166.737c-.096.08-.207.16-.34.244-.133.085-.26.075-.387-.037l-1.077-.98c-.138-.096-.206-.192-.201-.293.01-.1.042-.19.106-.27.546-.732 1.198-1.252 1.962-1.554a6.831 6.831 0 012.482-.45zm7.409.63c0-.265.149-.397.446-.397h1.728c.281 0 .42.132.42.397v8.761c0 .048.01.07.036.059.027-.006.043-.027.059-.059.811-1.447 1.607-2.9 2.386-4.359.78-1.458 1.565-2.9 2.36-4.333.09-.153.191-.27.302-.35.106-.08.26-.116.462-.116h1.3c.275 0 .418.132.418.397v13.624c0 .266-.138.398-.419.398h-1.713c-.276 0-.419-.132-.419-.398v-8.76c0-.048-.01-.07-.021-.07h-.021l-.021.048a1793.35 1793.35 0 01-2.398 4.391c-.8 1.464-1.601 2.928-2.397 4.391-.11.186-.212.303-.302.34a1.3 1.3 0 01-.445.058h-1.31c-.297 0-.446-.132-.446-.398V65.3h-.005zm20.12-.047c0-.234.133-.35.398-.35h1.798c.297 0 .445.111.445.328v13.72c0 .25-.137.371-.418.371h-1.798c-.281 0-.42-.117-.42-.35v-5.494c0-.265-.132-.398-.397-.398H75.9c-.17 0-.28.037-.329.106a.517.517 0 00-.068.292v5.468c0 .249-.144.37-.42.37h-1.797c-.297 0-.446-.116-.446-.35V65.248c0-.233.149-.35.446-.35h1.798c.127 0 .228.021.302.07.08.047.117.132.117.26v5.117c0 .17.02.286.058.34.037.052.127.079.27.079h3.904c.138 0 .238-.027.291-.08.053-.053.08-.17.08-.34v-5.09H80.1zM21.15 92.384h-.902c-.16 0-.239-.08-.239-.239l-.085-1.58a2.965 2.965 0 00-.095-.62 1.466 1.466 0 00-.255-.525 1.15 1.15 0 00-.483-.356c-.201-.085-.46-.127-.763-.127-.53 0-.939.16-1.215.477a1.677 1.677 0 00-.413 1.14v1.666c0 .111-.059.17-.17.17h-1.034c-.112 0-.17-.054-.17-.154v-7.15c0-.11.053-.169.154-.169h1.055c.101 0 .154.053.154.154v2.668c0 .127.027.196.085.222.058.021.111.005.17-.047l2.63-2.87a.321.321 0 01.239-.084h1.257c.127 0 .185.053.185.153a.116.116 0 01-.026.075.4.4 0 01-.059.074l-2.243 2.413c-.069.08-.048.138.069.17.111.01.218.02.313.031.095.01.19.027.281.053.318.08.583.202.8.366.213.165.388.36.52.594.128.234.229.488.287.775.064.28.106.583.127.901l.07 1.543c-.011.18-.091.276-.245.276zm6.586-2.217c0-.302-.106-.562-.313-.785-.207-.217-.525-.328-.954-.328h-1.84c-.043 0-.07.031-.07.1v1.973c0 .059.027.085.085.085h1.878c.381 0 .678-.095.896-.297a.966.966 0 00.318-.748zm-.223-3.14a.838.838 0 00-.313-.678c-.206-.175-.503-.26-.885-.26H24.66c-.058 0-.085.016-.09.053a.73.73 0 00-.01.117v1.65c0 .079.031.116.1.116h1.67c.382 0 .674-.1.876-.292a.949.949 0 00.307-.705zm1.533 3.162c0 .668-.223 1.203-.663 1.601-.44.398-1.05.594-1.835.594h-3.092c-.17 0-.254-.074-.254-.223v-6.995c0-.058.016-.106.042-.153.027-.048.096-.07.196-.07h2.938c.77 0 1.369.18 1.798.536.43.356.647.854.647 1.501 0 .26-.069.525-.212.796-.143.27-.345.487-.605.641-.02.01-.037.027-.042.043-.005.016.016.037.058.058.36.16.62.392.78.705.164.319.244.637.244.966zm3.139-.334c0 .418.122.774.372 1.06.249.286.636.435 1.156.435.466 0 .832-.143 1.103-.424.27-.281.408-.637.408-1.072 0-.418-.122-.774-.366-1.06-.244-.287-.63-.435-1.161-.435-.467 0-.833.143-1.103.424-.27.287-.409.642-.409 1.072zm-1.272.031c0-.36.058-.7.18-1.018.117-.318.292-.594.525-.822a2.55 2.55 0 01.86-.552c.338-.137.736-.201 1.187-.201.498 0 .944.106 1.342.323.08.048.148.059.212.043.063-.016.095-.074.095-.18v-.154c0-.451-.116-.785-.35-1.002-.233-.213-.62-.324-1.161-.324a3 3 0 00-.393.032c-.159.021-.318.053-.482.085a3.583 3.583 0 00-.875.286c-.127.058-.212.021-.255-.1l-.286-.749c-.032-.11-.005-.185.085-.222a4.28 4.28 0 011.103-.371 6.13 6.13 0 011.257-.138c.52 0 .954.063 1.31.185.35.122.63.308.843.546.207.24.355.526.44.86.085.334.127.705.127 1.113v4.688c0 .112-.053.17-.154.17h-.933c-.1 0-.154-.048-.154-.138v-.307c0-.08-.02-.128-.069-.138-.047-.01-.095.01-.153.069a1.858 1.858 0 01-.775.477c-.286.09-.599.138-.922.138-.849 0-1.496-.239-1.936-.716-.451-.472-.668-1.098-.668-1.883zm12.733-2.211c0-.472-.138-.865-.414-1.177-.276-.308-.684-.467-1.214-.467-.477 0-.865.154-1.172.466-.308.313-.456.695-.456 1.162v2c0 .46.148.858.45 1.182.303.329.695.493 1.183.493.499 0 .896-.159 1.188-.483.292-.323.44-.72.44-1.193v-1.983h-.005zm1.358 1.978c0 .398-.07.769-.202 1.114a2.762 2.762 0 01-.567.907 2.647 2.647 0 01-1.957.833c-.44 0-.78-.054-1.024-.16a2.042 2.042 0 01-.583-.366c-.09-.08-.16-.1-.212-.058a.19.19 0 00-.075.159v3.208c0 .112-.053.17-.153.17h-1.056c-.1 0-.153-.053-.153-.154V85.103c0-.101.053-.154.153-.154h.934c.111 0 .17.053.17.154v.355c0 .069.026.1.084.096.059-.006.117-.043.186-.112.148-.122.366-.25.652-.382.286-.127.647-.196 1.077-.196.811 0 1.469.239 1.973.721.503.483.753 1.167.753 2.063v2.005zm6.894-3.569h-1.851c-.048 0-.074.016-.095.053a.238.238 0 00-.027.1v5.909c0 .09-.016.153-.042.185-.027.032-.085.053-.175.053h-.891c-.17 0-.25-.074-.25-.223v-5.929c0-.1-.042-.153-.138-.153h-1.781a.372.372 0 01-.197-.043c-.042-.026-.058-.09-.058-.18v-.695c0-.148.085-.223.255-.223h5.244c.17 0 .255.07.255.207v.716c.01.149-.074.223-.25.223zm1.802-.965c0-.112.075-.17.223-.17h.918c.09 0 .143.016.159.053a.32.32 0 01.026.138v4.858c0 .137.032.159.101.069l.918-1.512 2.09-3.346a.96.96 0 01.158-.196c.053-.043.138-.059.266-.059h.763c.09 0 .149.016.175.053.027.032.043.08.043.138v7.064c0 .122-.064.186-.186.186h-.97c-.08 0-.133-.01-.16-.032-.026-.021-.042-.08-.042-.17v-4.91c0-.059-.01-.08-.027-.075a.175.175 0 00-.058.043l-.864 1.442-2.175 3.5c-.069.122-.127.191-.17.196a1.156 1.156 0 01-.153.011h-.817c-.09 0-.148-.01-.175-.032-.026-.021-.042-.08-.042-.17v-7.08zm12.755 2.556c0-.472-.138-.865-.414-1.177-.275-.308-.684-.467-1.214-.467-.477 0-.864.154-1.172.466-.308.313-.456.695-.456 1.162v2c0 .46.148.858.45 1.182.303.329.695.493 1.183.493.499 0 .897-.159 1.188-.483.292-.323.44-.72.44-1.193v-1.983h-.005zm1.358 1.978c0 .398-.07.769-.202 1.114a2.854 2.854 0 01-.567.907 2.647 2.647 0 01-1.957.833c-.44 0-.78-.054-1.024-.16a2.042 2.042 0 01-.583-.366c-.09-.08-.16-.1-.212-.058a.19.19 0 00-.075.159v3.208c0 .112-.052.17-.153.17h-1.056c-.1 0-.153-.053-.153-.154V85.103c0-.101.053-.154.153-.154h.934c.111 0 .17.053.17.154v.355c0 .069.026.1.084.096.059-.006.117-.043.186-.112.148-.122.366-.25.652-.382.287-.127.647-.196 1.077-.196.811 0 1.469.239 1.973.721.503.483.753 1.167.753 2.063v2.005z" fill="#475658"/></svg>